SplineFontDB: 3.0
FontName: CMUConcrete-Italic
FullName: CMU Concrete Italic
FamilyName: CMU Concrete
Weight: Medium
Copyright: Converted by Andrey V. Panov from TeX fonts
UComments: "2009-6-18: Created." 
Version: 0.7.0
ItalicAngle: -14.04
UnderlinePosition: -100
UnderlineWidth: 50
Ascent: 800
Descent: 200
LayerCount: 2
Layer: 0 0 "+BBcEMAQ0BD0EOAQ5 +BD8EOwQwBD0A"  1
Layer: 1 0 "+BB8ENQRABDUENAQ9BDgEOQAA +BD8EOwQwBD0A"  0
NeedsXUIDChange: 1
XUID: [1067 11814744]
FSType: 0
OS2Version: 0
OS2_WeightWidthSlopeOnly: 0
OS2_UseTypoMetrics: 1
CreationTime: 1245317291
ModificationTime: 1245317962
PfmFamily: 17
TTFWeight: 500
TTFWidth: 5
LineGap: 200
VLineGap: 90
OS2TypoAscent: 0
OS2TypoAOffset: 1
OS2TypoDescent: 0
OS2TypoDOffset: 1
OS2TypoLinegap: 200
OS2WinAscent: 912
OS2WinAOffset: 0
OS2WinDescent: 263
OS2WinDOffset: 0
HheadAscent: 912
HheadAOffset: 0
HheadDescent: -263
HheadDOffset: 0
Lookup: 1 0 0 "Case substitutions"  {"Case substitutions subtable"  } ['case' ('cyrl' <'dflt' > 'grek' <'dflt' > 'latn' <'dflt' > ) ]
Lookup: 1 0 0 "Italic substitutions"  {"Italic substitutions cyr"  } ['locl' ('cyrl' <'MKD ' 'SRB ' > ) ]
Lookup: 3 0 0 "Greek alternatives"  {"Greek alternatives subtable"  } ['salt' ('grek' <'dflt' > ) ]
Lookup: 1 0 0 "Greek substitutions"  {"Greek substitutions subtable"  } ['locl' ('grek' <'dflt' > ) ]
Lookup: 4 0 1 "Latin Dutch ligatures"  {"Latin Dutch ligatures subtable"  } ['liga' ('latn' <'NLD ' > ) ]
Lookup: 4 0 1 "Latin ligatures excepting Turkic"  {"Latin ligatures excepting Turkic subtable"  } ['liga' ('latn' <'dflt' 'NLD ' 'VIT ' > ) ]
Lookup: 4 0 1 "Latin ligatures"  {"Latin ligatures subtable"  } ['liga' ('latn' <'dflt' 'NLD ' 'VIT ' 'TRK ' 'AZE ' > ) ]
Lookup: 4 0 1 "Cyrillic ligatures"  {"Cyrillic ligatures subtable"  } ['liga' ('cyrl' <'dflt' 'MKD ' 'SRB ' > ) ]
Lookup: 3 0 0 "Latin alternatives"  {"Latin alternatives subtable"  } ['salt' ('latn' <'dflt' > ) ]

StartChar: .notdef
Encoding: 0 0 0
Width: 760
Flags: HW
HStem: 10 60<105 655> 705 60<105 655>
VStem: 10 60<112 663> 690 60<112 663>
DStem2: 105 705 70 663 0.702289 -0.711892<5.31938 389.612 448.699 832.991> 70 112 105 70 0.702289 0.711892<0 384.292 443.379 827.672>
LayerCount: 2
Fore
SplineSet
10 10 m 1
 10 765 l 1
 750 765 l 1
 750 10 l 1
 10 10 l 1
70 112 m 1
 346 388 l 1
 70 663 l 1
 70 112 l 1
105 70 m 1
 655 70 l 1
 380 346 l 1
 105 70 l 1
105 705 m 1
 380 429 l 1
 655 705 l 1
 105 705 l 1
414 388 m 1
 690 112 l 1
 690 663 l 1
 414 388 l 1
EndSplineSet
EndChar

StartChar: uni262D
Encoding: 9773 9773 1
Width: 700
Flags: HW
TeX: 117 0
HStem: -1 21G<56 93 593.5 601> 39 76<321.786 462.78> 102 51<140.549 177.987>
VStem: 129 54<101.776 137.734> 556 82<197.341 366.709>
DStem2: 123 357 178 301 0.707107 0.707107<0 86.9741 130.108 182.434>
LayerCount: 2
Fore
SplineSet
40 18 m 0
 40 64 129 102 129 128 c 0
 129 148 134 153 148 153 c 0xb8
 162 153 164 157 182 180 c 1
 229 156 307 115 390 115 c 0
 438 115 463 128 463 129 c 0
 463 135 406 186 240 363 c 1
 178 301 l 1
 123 357 l 1
 252 486 l 1
 347 470 l 1
 271 393 l 1
 484 190 l 1
 513 165 l 1
 519 165 556 218 556 295 c 0
 556 473 346 588 346 593 c 1
 394 593 638 478 638 267 c 0
 638 167 592 118 580 100 c 1
 636 44 637 42 637 38 c 0xd8
 637 17 605 -1 597 -1 c 2
 596 -1 l 2
 591 -1 590 1 529 62 c 1
 500 51 474 39 428 39 c 0xd8
 297 39 201 138 188 138 c 0
 183 138 182 134 182 130 c 0
 182 126 183 123 183 118 c 0
 183 108 178 102 168 102 c 0
 131 102 122 0 64 -0 c 0
 48 0 40 7 40 18 c 0
EndSplineSet
EndChar

StartChar: longs
Encoding: 383 383 2
Width: 328
Flags: HW
TeX: 108 0
HStem: -200 59<48.3196 106.161> 400 58<126.633 221> 641 59<334.598 399.741>
VStem: -27 80<-139.671 -96.2722> 395 80<596.586 639.671>
DStem2: 221 400 225 64 0.186998 0.98236<-229.67 0 59.0339 259.86>
AnchorPoint: "above" 361 694 basechar 0
AnchorPoint: "below" 89 -194 basechar 0
LayerCount: 2
Fore
SplineSet
-27 -139 m 0
 -27 -96 12 -87 22 -87 c 0
 38 -87 53 -100 53 -118 c 0
 53 -125 51 -133 48 -140 c 1
 57 -141 64 -141 69 -141 c 0
 93 -141 108 -131 126 -70 c 0
 159 42 199 290 221 400 c 1
 146 400 l 2
 129 400 123 407 123 417 c 0
 123 425 128 450 139 456 c 0
 143 458 148 458 153 458 c 2
 232 458 l 1
 252 563 258 603 277 637 c 1
 299 674 338 700 380 700 c 0
 456 700 475 663 475 638 c 0
 474 596 438 588 427 588 c 0
 409 588 395 600 395 618 c 0
 395 625 397 633 400 640 c 1
 391 641 383 641 374 641 c 0
 325 641 331 618 300 458 c 2
 225 64 l 2
 198 -76 178 -115 151 -150 c 0
 128 -179 101 -200 64 -200 c 0
 15 -200 -27 -177 -27 -139 c 0
EndSplineSet
EndChar

StartChar: uni03F5
Encoding: 1013 1013 3
Width: 431
Flags: HW
HStem: -5 58<268.946 373> 225 61<191 375> 405 59<335.881 475>
VStem: 93 72<134.614 222.973>
LayerCount: 2
Fore
SplineSet
93 188 m 0
 93 331 250 464 490 464 c 1
 475 405 l 1
 341 405 243 363 191 286 c 1
 391 286 l 1
 375 225 l 1
 166 225 l 1
 165 218 165 212 165 206 c 0
 165 98 278 53 387 53 c 1
 373 -5 l 1
 215 -5 93 71 93 188 c 0
EndSplineSet
EndChar

StartChar: circumflex.cap
Encoding: 65536 -1 4
Width: 550
Flags: HW
HStem: 729 167
VStem: 318 296<754 771>
AnchorPoint: "above" 449 695 mark 0
LayerCount: 2
Fore
SplineSet
318 764 m 0
 318 771 323 776 332 783 c 0
 488 895 486 896 496 896 c 0
 506 896 515 884 519 879 c 0
 614 774 614 771 614 764 c 0
 614 752 588 729 577 729 c 0
 569 729 565 733 538 764 c 0
 520 785 502 805 485 827 c 1
 361 735 355 729 346 729 c 0
 332 729 318 754 318 764 c 0
EndSplineSet
EndChar

StartChar: dieresis.cap
Encoding: 65537 -1 5
Width: 550
Flags: HW
HStem: 786 105<350.944 423.615 545.191 619.005>
VStem: 334 107<803.592 873.861> 529 107<802.944 874.882>
AnchorPoint: "above" 449 695 mark 0
LayerCount: 2
Fore
SplineSet
334 830 m 0
 334 860 363 891 397 891 c 0
 420 891 441 874 441 848 c 0
 441 818 412 786 378 786 c 0
 352 786 334 806 334 830 c 0
EndSplineSet
Refer: 20 729 S 1 0 0 1 245 197 2
EndChar

StartChar: dotaccent.cap
Encoding: 65538 -1 6
Width: 550
Flags: HW
HStem: 745 105<437.541 510.845>
VStem: 421 107<762.489 833.486>
AnchorPoint: "above" 449 695 mark 0
LayerCount: 2
Fore
SplineSet
421 789 m 0
 421 819 450 850 483 850 c 0
 508 850 528 833 528 806 c 0
 528 777 499 745 465 745 c 0
 441 745 421 763 421 789 c 0
EndSplineSet
EndChar

StartChar: caron.cap
Encoding: 65539 -1 7
Width: 550
Flags: HW
HStem: 757 124
VStem: 351 274<841 860>
AnchorPoint: "above" 448 695 mark 0
LayerCount: 2
Fore
SplineSet
351 853 m 0
 351 864 367 881 377 881 c 0
 389 881 469 830 477 824 c 1
 595 879 597 882 605 882 c 0
 621 882 625 860 625 854 c 0
 625 841 612 836 586 821 c 0
 554 802 478 757 468 757 c 0
 461 757 456 760 434 778 c 0
 365 833 351 841 351 853 c 0
EndSplineSet
EndChar

StartChar: ring.cap
Encoding: 65540 -1 8
Width: 550
Flags: HW
HStem: 695 58<417.929 519.706> 841 59<428.335 530.651>
VStem: 360 57<756.077 828.37> 532 57<765.711 838.481>
AnchorPoint: "above" 449 695 mark 0
LayerCount: 2
Fore
SplineSet
360 770 m 0
 360 832 412 900 500 900 c 0
 538 900 589 885 589 825 c 0
 589 767 541 695 448 695 c 0
 395 695 360 721 360 770 c 0
417 782 m 0
 417 759 434 753 462 753 c 0
 499 753 532 765 532 813 c 0
 532 835 514 841 486 841 c 0
 431 841 417 811 417 782 c 0
EndSplineSet
EndChar

StartChar: breve.cap
Encoding: 65541 -1 9
Width: 550
Flags: HW
HStem: 753 62<396.426 567.826>
VStem: 324 59<830.511 891.686>
AnchorPoint: "above" 449 695 mark 0
LayerCount: 2
Fore
SplineSet
324 855 m 0
 324 884 331 892 352 892 c 2
 358 892 l 2
 381 892 384 883 384 872 c 0
 384 869 383 866 383 863 c 0
 383 825 437 815 476 815 c 0
 519 815 575 828 597 864 c 0
 607 881 604 892 630 892 c 2
 639 892 l 2
 650 892 661 888 661 875 c 0
 661 831 583 753 468 753 c 0
 384 753 324 794 324 855 c 0
EndSplineSet
EndChar

StartChar: grave
Encoding: 96 96 10
Width: 550
Flags: HW
TeX: 666 0
HStem: 519 163
VStem: 290 173
LayerCount: 2
Fore
SplineSet
290 644 m 0
 290 663 308 682 327 682 c 0
 346 682 362 661 451 574 c 0
 456 569 463 563 463 555 c 0
 463 543 438 519 427 519 c 0
 418 519 419 519 308 614 c 0
 302 620 290 629 290 644 c 0
EndSplineSet
EndChar

StartChar: acute
Encoding: 180 180 11
Width: 550
Flags: HW
TeX: 666 0
ItalicCorrection: 83
HStem: 518 164
VStem: 363 220
LayerCount: 2
Fore
SplineSet
363 554 m 0
 363 567 361 563 523 669 c 0
 531 674 542 682 554 682 c 0
 571 682 583 667 583 652 c 0
 583 629 558 616 553 613 c 0
 395 518 398 518 389 518 c 0
 374 518 363 547 363 554 c 0
EndSplineSet
EndChar

StartChar: circumflex
Encoding: 710 710 12
Width: 500
Flags: HW
TeX: 666 0
HStem: 497 174
VStem: 235 296<521 539>
LayerCount: 2
Fore
SplineSet
235 531 m 0
 235 544 236 542 371 644 c 0
 399 665 405 671 414 671 c 0
 426 671 427 667 509 567 c 0
 530 542 531 539 531 532 c 0
 531 518 503 497 492 497 c 0
 482 497 479 503 403 600 c 1
 277 502 272 497 263 497 c 0
 250 497 235 521 235 531 c 0
EndSplineSet
EndChar

StartChar: tilde
Encoding: 732 732 13
Width: 550
Flags: HW
TeX: 666 0
ItalicCorrection: 111
HStem: 568 73<447.893 529.645> 621 73<334.755 417.311>
LayerCount: 2
Fore
SplineSet
260 600 m 0
 260 609 268 616 274 622 c 0
 298 645 344 694 388 694 c 0x40
 436 694 451 641 484 641 c 2
 485 641 l 1
 520 642 557 693 572 693 c 0x80
 582 693 604 674 604 662 c 0
 604 653 596 646 590 640 c 0
 566 617 521 568 477 568 c 0x80
 429 568 413 621 380 621 c 0
 345 621 307 569 292 569 c 0
 282 569 260 588 260 600 c 0
EndSplineSet
EndChar

StartChar: dieresis
Encoding: 168 168 14
Width: 550
Flags: HW
TeX: 688 0
ItalicCorrection: 98
HStem: 578 105<296.644 371.006 491.514 565.005>
VStem: 280 108<594.962 665.861> 475 107<594.962 666.632>
LayerCount: 2
Fore
SplineSet
280 622 m 0
 280 652 309 683 343 683 c 0
 370 683 388 663 388 639 c 0
 388 608 358 578 325 578 c 0
 298 578 280 598 280 622 c 0
475 622 m 0
 475 657 509 683 537 683 c 0
 564 683 582 663 582 639 c 0
 582 608 552 578 519 578 c 0
 492 578 475 598 475 622 c 0
EndSplineSet
EndChar

StartChar: hungarumlaut
Encoding: 733 733 15
Width: 550
Flags: HW
TeX: 666 0
ItalicCorrection: 111
HStem: 518 164
VStem: 279 220
LayerCount: 2
Fore
SplineSet
446 554 m 0
 446 567 441 561 606 669 c 0
 614 674 625 682 637 682 c 0
 654 682 666 668 666 652 c 0
 666 629 640 616 635 613 c 0
 477 518 480 518 471 518 c 0
 456 518 446 547 446 554 c 0
EndSplineSet
Refer: 11 180 S 1 0 0 1 -84 0 2
EndChar

StartChar: ring
Encoding: 730 730 16
Width: 858
Flags: HW
TeX: 666 0
HStem: 501 35<521.127 611.053> 640 35<538.736 628.739>
VStem: 461 56<539.022 622.599> 633 56<553.871 636.978>
LayerCount: 2
Fore
SplineSet
461 568 m 0
 461 618 509 675 597 675 c 0
 672 675 689 635 689 608 c 0
 689 559 641 501 552 501 c 0
 479 501 461 541 461 568 c 0
517 569 m 0
 517 556 522 536 560 536 c 0
 627 536 633 591 633 607 c 0
 633 620 628 640 590 640 c 0
 523 640 517 587 517 569 c 0
EndSplineSet
EndChar

StartChar: caron
Encoding: 711 711 17
Width: 500
Flags: HW
TeX: 666 0
HStem: 512 159
VStem: 273 276<636 654>
LayerCount: 2
Fore
SplineSet
273 644 m 0
 273 654 289 671 302 671 c 0
 314 671 332 649 393 584 c 1
 507 662 517 671 526 671 c 0
 538 671 549 654 549 645 c 0
 549 636 543 632 533 624 c 0
 391 514 392 512 381 512 c 0
 370 512 358 530 350 540 c 0
 274 636 273 634 273 644 c 0
EndSplineSet
EndChar

StartChar: breve
Encoding: 728 728 18
Width: 550
Flags: HW
TeX: 666 0
ItalicCorrection: 112
HStem: 508 62<345.758 490.758>
VStem: 265 61<590.145 665.723> 544 59<615.141 665.891>
LayerCount: 2
Fore
SplineSet
265 624 m 0
 265 666 281 666 294 666 c 2
 297 666 l 2
 298 666 300 667 301 667 c 0
 322 667 326 659 326 647 c 2
 326 632 l 2
 326 588 375 570 413 570 c 0
 467 570 526 600 544 647 c 0
 551 663 554 666 570 666 c 2
 582 666 l 2
 595 666 603 660 603 649 c 0
 603 612 532 508 405 508 c 0
 326 508 265 554 265 624 c 0
EndSplineSet
EndChar

StartChar: macron
Encoding: 175 175 19
Width: 550
Flags: HW
TeX: 688 0
ItalicCorrection: 129
HStem: 634 61<266.238 617.839>
LayerCount: 2
Fore
SplineSet
257 652 m 0
 257 659 262 681 266 686 c 0
 271 694 281 695 287 695 c 2
 599 695 l 2
 616 695 622 688 622 677 c 0
 622 676 619 645 608 638 c 0
 601 634 590 634 580 634 c 2
 280 634 l 2
 263 634 257 641 257 652 c 0
EndSplineSet
EndChar

StartChar: dotaccent
Encoding: 729 729 20
Width: 328
Flags: HW
TeX: 694 0
ItalicCorrection: 115
HStem: 589 105<300.191 374.006>
VStem: 284 107<605.944 677.882>
LayerCount: 2
Fore
SplineSet
284 633 m 0
 284 663 312 694 346 694 c 0
 371 694 391 676 391 650 c 0
 391 619 361 589 328 589 c 0
 303 589 284 607 284 633 c 0
EndSplineSet
EndChar

StartChar: cedilla
Encoding: 184 184 21
Width: 494
Flags: HW
TeX: 0 170
HStem: -195 58<88.8442 254.787> -60 90<214.261 269.344>
VStem: 203 79<-9.625 26.3154> 210 72<-21.1838 28.8979> 271 69<-119.238 -65.6337>
LayerCount: 2
Fore
SplineSet
85 -178 m 0
 85 -174 89 -147 100 -140 c 0
 105 -137 114 -137 121 -137 c 2
 146 -137 l 1
 252 -135 271 -109 271 -90 c 0xc8
 271 -78 261 -64 226 -60 c 0
 208 -58 203 -53 203 -43 c 0xe0
 203 -35 206 -23 210 -8 c 0
 217 16 215 30 243 30 c 2xd0
 257 30 l 2
 277 30 282 23 282 13 c 0xe0
 282 6 280 -2 278 -10 c 1
 323 -24 340 -53 340 -82 c 0
 340 -122 312 -165 252 -182 c 0
 207 -195 162 -195 109 -195 c 0
 96 -195 85 -192 85 -178 c 0
EndSplineSet
EndChar

StartChar: ogonek
Encoding: 731 731 22
Width: 328
Flags: HW
TeX: 0 194
HStem: -188 65<82.5946 163.729>
VStem: 10 72<-119.979 -74.1465>
LayerCount: 2
Fore
SplineSet
10 -119 m 0
 10 -36 140 2 194 38 c 0
 199 41 206 48 215 48 c 0
 227 48 236 30 236 17 c 0
 236 -19 133 -35 91 -86 c 0
 85 -94 82 -101 82 -106 c 0
 82 -118 94 -123 108 -123 c 0
 160 -123 194 -66 209 -66 c 0
 217 -66 242 -82 242 -96 c 0
 242 -111 173 -188 94 -188 c 0
 47 -188 10 -161 10 -119 c 0
EndSplineSet
EndChar

StartChar: guilsinglleft
Encoding: 8249 8249 24
Width: 494
Flags: HW
TeX: 511 0
ItalicCorrection: 72
HStem: -0 21G<311 344>
VStem: 202 279
LayerCount: 2
Fore
SplineSet
202 255 m 0
 202 263 215 272 222 278 c 0
 366 394 414 499 429 508 c 0
 434 511 438 511 460 511 c 0
 469 511 481 511 481 502 c 0
 481 493 412 373 269 254 c 1
 337 163 358 44 358 14 c 0
 358 3 353 0 335 -0 c 2
 321 -0 l 2
 301 0 301 8 298 25 c 0
 274 182 202 236 202 255 c 0
EndSplineSet
EndChar

StartChar: guilsinglright
Encoding: 8250 8250 25
Width: 494
Flags: HW
TeX: 511 0
ItalicCorrection: 72
HStem: -0 21G<156 177>
VStem: 262 60<399.875 510.977>
LayerCount: 2
Fore
SplineSet
139 9 m 0
 139 24 218 146 351 257 c 1
 283 348 262 467 262 497 c 0
 262 508 267 511 285 511 c 2
 299 511 l 2
 320 511 319 503 322 486 c 0
 347 329 418 275 418 256 c 0
 418 248 405 239 398 233 c 0
 252 115 206 12 191 3 c 0
 186 0 180 0 174 -0 c 2
 160 -0 l 2
 152 0 139 0 139 9 c 0
EndSplineSet
EndChar

StartChar: quotedblbase
Encoding: 8222 8222 28
Width: 383
Flags: HW
TeX: 105 194
ItalicCorrection: 51
HStem: 0 106<63.972 95 275.256 305>
VStem: 46 113<10.1654 87.749> 257 113<10.1654 87.749>
LayerCount: 2
Fore
SplineSet
-0 -157 m 0
 0 -141 69 -104 95 0 c 1
 53 1 46 24 46 41 c 0
 46 73 75 106 111 106 c 0
 130 106 159 95 159 43 c 0
 159 -74 48 -192 28 -192 c 0
 18 -192 0 -165 -0 -157 c 0
210 -157 m 0
 210 -140 279 -105 305 0 c 1
 263 1 257 24 257 41 c 0
 257 73 286 106 322 106 c 0
 341 106 370 95 370 43 c 0
 370 -74 259 -192 239 -192 c 0
 229 -192 210 -164 210 -157 c 0
EndSplineSet
EndChar

StartChar: endash
Encoding: 8211 8211 31
Width: 550
Flags: HW
TeX: 458 0
ItalicCorrection: 98
HStem: 254 59<96.5338 593.125>
LayerCount: 2
Fore
SplineSet
93 272 m 0
 93 274 95 306 112 311 c 0
 116 312 121 313 125 313 c 2
 572 313 l 2
 585 313 597 311 597 295 c 0
 597 286 591 264 584 258 c 0
 579 255 574 254 568 254 c 2
 117 254 l 2
 104 254 93 258 93 272 c 0
EndSplineSet
EndChar

StartChar: emdash
Encoding: 8212 8212 32
Width: 1100
Flags: HW
TeX: 458 0
ItalicCorrection: 98
HStem: 254 59<120.766 1118.01>
LayerCount: 2
Fore
SplineSet
117 272 m 1
 117 272 119 306 136 311 c 0
 140 312 144 313 148 313 c 2
 1095 313 l 2
 1108 313 1122 311 1122 295 c 0
 1122 288 1117 266 1110 259 c 0
 1104 254 1096 254 1089 254 c 2
 141 254 l 2
 129 254 117 258 117 272 c 1
EndSplineSet
Substitution2: "Cyrillic substitutions subtable" emdash.cyr
AlternateSubs2: "Cyrillic alternatives subtable" emdash.cyr
EndChar

StartChar: dotlessi
Encoding: 305 305 34
Width: 328
Flags: HW
TeX: 458 0
ItalicCorrection: 95
HStem: -5 59<207.261 271.347> 405 59<170.293 233.821>
VStem: 73 61<297.089 363.516> 138 68<54.3015 155.503> 235 69<302.871 404.234> 307 61<95.6635 160.973>
AnchorPoint: "below" 163 0 basechar 0
AnchorPoint: "above" 280 464 basechar 0
LayerCount: 2
Fore
SplineSet
73 309 m 0
 73 329 124 464 222 464 c 0
 273 464 304 427 304 381 c 0
 304 329 206 125 206 85 c 0
 206 67 215 54 232 54 c 0
 247 54 282 65 307 143 c 0
 312 157 314 161 331 161 c 2
 348 161 l 2
 358 161 368 160 368 149 c 0
 368 131 319 -5 220 -5 c 0
 175 -5 138 25 138 77 c 0
 138 129 235 333 235 375 c 0
 235 393 224 405 209 405 c 0
 194 405 159 394 134 316 c 0
 129 299 124 297 107 297 c 2
 93 297 l 2
 82 297 73 298 73 309 c 0
EndSplineSet
EndChar

StartChar: dotlessj
Encoding: 567 567 35
Width: 356
Flags: HW
TeX: 458 194
ItalicCorrection: 36
HStem: -200 59<42.2454 128.757> 405 59<187.685 269.578>
VStem: -38 80<-140 -105.559> 74 63<297.561 352.527> 274 68<270.273 401.888>
DStem2: 135.238 -200 203.489 -200 0.242599 0.970127<83.3806 579.344>
AnchorPoint: "below" 95 -194 basechar 0
AnchorPoint: "above" 335 464 basechar 0
LayerCount: 2
Fore
SplineSet
-38 -147 m 0
 -38 -117 -13 -97 10 -97 c 0
 31 -97 42 -110 42 -130 c 0
 42 -133 42 -136 41 -140 c 1
 48 -140 55 -141 63 -141 c 0
 154 -141 172 -53 177 -33 c 2
 269 335 l 2
 271 341 274 352 274 363 c 0
 274 388 260 405 238 405 c 0
 198 405 159 364 137 317 c 0
 130 302 127 297 105 297 c 0
 81 297 74 300 74 308 c 0
 74 329 144 464 249 464 c 0
 305 464 342 424 342 371 c 0
 342 351 336 331 333 319 c 2
 244 -38 l 2
 239 -56 230 -121 157 -169 c 0
 132 -185 97 -200 58 -200 c 0
 24 -200 -38 -193 -38 -147 c 0
EndSplineSet
EndChar

StartChar: ff
Encoding: 64256 64256 36
Width: 656
Flags: HW
TeX: 694 194
ItalicCorrection: 215
HStem: -200 59<48.7094 105.674 301.435 402.441> 400 58<126.633 221 300 537 616 727.588> 641 59<340.348 479.245 652.193 726.553>
VStem: -27 80<-139.672 -96.2722> 226 79<-138.671 -95.867> 476 80<596.625 637.672> 722 81<596.898 639.671>
DStem2: 139 -21 203 -32 0.194191 0.980964<-111.053 428.909 501.146 680.655> 479 88 547 92 0.185892 0.98257<-183.718 248 389.018 576.853>
LayerCount: 2
Fore
SplineSet
-27 -139 m 0
 -27 -104 2 -87 21 -87 c 0
 39 -87 53 -100 53 -118 c 0
 53 -126 51 -133 48 -140 c 1
 58 -141 65 -141 70 -141 c 0
 98 -141 113 -128 139 -21 c 0
 164 80 221 400 221 400 c 1
 146 400 l 2
 130 400 123 406 123 417 c 0
 123 424 128 451 139 456 c 0
 143 458 148 458 153 458 c 2
 233 458 l 1
 255 583 265 610 291 641 c 0
 321 676 368 700 436 700 c 0
 523 700 556 673 556 639 c 0
 556 607 531 588 508 588 c 0
 486 588 476 601 476 618 c 0
 476 624 477 631 480 638 c 1
 461 640 442 641 423 641 c 0
 324 641 335 634 300 458 c 1
 549 458 l 1
 565 549 577 607 595 637 c 0
 612 664 649 700 701 700 c 0
 739 700 803 688 803 639 c 0
 803 609 779 588 755 588 c 0
 737 588 722 600 722 618 c 0
 722 625 724 633 727 640 c 1
 716 641 706 641 695 641 c 0
 645 641 648 627 616 458 c 1
 710 458 l 2
 720 458 731 455 731 441 c 0
 731 435 727 407 714 402 c 0
 709 400 704 400 699 400 c 2
 605 400 l 1
 605 398 561 159 547 92 c 0
 513 -75 490 -107 458 -140 c 0
 405 -196 359 -200 334 -200 c 0
 291 -200 226 -188 226 -139 c 0
 226 -113 245 -87 274 -87 c 0
 296 -87 305 -101 305 -118 c 0
 305 -124 304 -132 301 -139 c 1
 314 -141 327 -142 337 -142 c 0
 369 -142 389 -132 411 -112 c 0
 434 -90 448 -66 479 88 c 0
 491 150 532 369 537 400 c 1
 289 400 l 1
 288 395 230 68 203 -32 c 0
 171 -153 120 -200 65 -200 c 0
 35 -200 -27 -188 -27 -139 c 0
EndSplineSet
Ligature2: "Latin ligatures subtable" f f
EndChar

StartChar: fi
Encoding: 64257 64257 37
Width: 600
Flags: HW
TeX: 694 194
ItalicCorrection: 95
HStem: -200 59<48.7094 106.083> -5 59<500.242 555.89> 400 58<126.703 221 300 503> 641 59<348.886 550.734>
VStem: -27 80<-139.672 -95.75> 428 68<57.1246 186.281> 546 81<589.463 634.671> 586 55<89.477 160.95>
DStem2: 139 -20 250 195 0.192957 0.981207<3.38139 427.93 500.083 665.263> 352.226 -200 420.727 -200 0.242599 0.970127<320.597 618.654>
LayerCount: 2
Fore
SplineSet
-27 -139 m 0
 -27 -112 -6 -87 21 -87 c 0
 39 -87 53 -100 53 -118 c 0
 53 -126 51 -133 48 -140 c 1
 58 -141 65 -141 70 -141 c 0
 108 -141 119 -100 139 -20 c 0
 162 75 221 400 221 400 c 1
 146 400 l 2
 126 400 123 410 123 417 c 0
 123 424 128 451 139 456 c 0
 143 458 148 458 153 458 c 2
 233 458 l 1
 256 591 275 700 471 700 c 0
 556 700 627 691 627 635 c 0
 627 605 606 581 579 581 c 0
 568 581 546 588 546 612 c 0xfe
 546 620 549 628 552 635 c 1
 525 641 497 641 469 641 c 2
 456 641 l 2
 375 641 364 638 351 626 c 0
 329 605 319 565 300 458 c 1
 560 458 l 2
 576 458 581 455 581 447 c 0
 581 442 579 436 577 428 c 2
 502 125 l 2
 500 115 496 105 496 94 c 0
 496 64 519 54 529 54 c 0
 567 54 577 144 586 155 c 0
 592 163 603 161 615 161 c 2xfd
 621 161 l 2
 632 161 641 161 641 149 c 0xfd
 641 148 612 -5 519 -5 c 0
 469 -5 428 30 428 87 c 0
 428 111 436 136 440 151 c 2
 503 400 l 1
 289 400 l 1
 286 379 281 359 250 195 c 0
 206 -36 193 -97 152 -150 c 0
 128 -181 100 -200 65 -200 c 0
 35 -200 -27 -188 -27 -139 c 0
EndSplineSet
Ligature2: "Latin ligatures excepting Turkic subtable" f i
EndChar

StartChar: fl
Encoding: 64258 64258 38
Width: 628
Flags: HW
TeX: 694 194
ItalicCorrection: 95
HStem: -200 59<48.7094 105.96> -6 60<528.172 584.112> 400 58<126.633 221 300 530> 641 59<342.926 512.213>
VStem: -27 80<-139.672 -95.75> 456 68<57.3058 187.938> 614 55<89.7487 160.936>
DStem2: 139 -20 203 -31 0.194573 0.980888<-111.304 427.928 500.191 672.855> 380.727 -200 448.476 -200 0.242599 0.970127<321.628 618.289 678.196 839.967 860.825 926.914>
LayerCount: 2
Fore
SplineSet
-27 -139 m 0
 -27 -112 -6 -87 21 -87 c 0
 39 -87 53 -100 53 -118 c 0
 53 -126 51 -133 48 -140 c 1
 58 -141 65 -141 70 -141 c 0
 98 -141 113 -127 139 -20 c 0
 163 80 221 400 221 400 c 1
 146 400 l 2
 130 400 123 406 123 417 c 0
 123 424 128 451 139 456 c 0
 143 458 148 458 153 458 c 2
 233 458 l 1
 254 577 266 700 455 700 c 0
 577 700 587 669 590 635 c 1
 602 692 603 694 623 694 c 2
 643 694 l 2
 661 694 668 693 668 684 c 0
 668 680 667 674 665 667 c 2
 533 138 l 2
 530 124 524 110 524 95 c 0
 524 64 546 54 557 54 c 0
 596 54 605 145 614 156 c 0
 618 161 627 161 634 161 c 2
 642 161 l 2
 656 161 669 160 669 149 c 0
 669 147 640 -6 547 -6 c 0
 497 -6 456 32 456 87 c 0
 456 103 460 115 463 129 c 2
 530 400 l 1
 289 400 l 1
 289 400 230 71 203 -31 c 0
 171 -152 121 -200 65 -200 c 0
 35 -200 -27 -188 -27 -139 c 0
300 458 m 1
 545 458 l 1
 584 615 l 1
 576 603 563 588 541 588 c 0
 519 588 509 600 509 618 c 0
 509 624 511 630 513 637 c 1
 490 640 466 641 443 641 c 0
 380 641 363 640 351 630 c 0
 329 611 318 565 300 458 c 1
EndSplineSet
Ligature2: "Latin ligatures subtable" f l
EndChar

StartChar: ffi
Encoding: 64259 64259 39
Width: 942
Flags: HW
TeX: 694 194
ItalicCorrection: 95
HStem: -200 59<48.6864 106.251 302.834 411.781> -5 59<842.242 897.991> 400 58<126.946 222 300 549 627 844> 641 59<342.336 505.429 681.5 891.641>
VStem: -27 80<-139.672 -96.2722> 226 80<-138.672 -95.7539> 504 80<596.778 636.719> 770 68<57.1246 188.523> 888 80<590.567 633.809> 928 55<89.6736 160.95>
DStem2: 694.226 -200 761.477 -200 0.242599 0.970127<320.597 618.411>
LayerCount: 2
Fore
SplineSet
-27 -139 m 0
 -27 -113 -6 -87 21 -87 c 0
 39 -87 53 -100 53 -118 c 0
 53 -126 51 -133 48 -140 c 1
 57 -141 64 -141 69 -141 c 0
 126 -141 133 -74 222 400 c 1
 146 400 l 2
 129 400 124 407 124 418 c 0
 124 426 128 451 139 456 c 0
 143 458 148 458 153 458 c 2
 233 458 l 1
 233 459 l 1
 252 577 268 700 451 700 c 0
 503 700 584 696 584 640 c 0
 584 606 558 588 536 588 c 0
 515 588 504 601 504 619 c 0
 504 625 505 631 507 637 c 1
 485 640 463 641 441 641 c 0
 379 641 363 639 351 629 c 0
 322 604 316 535 300 458 c 1
 560 458 l 1
 584 584 594 700 806 700 c 2
 829 700 l 2
 880 700 968 696 968 636 c 0
 968 601 942 581 920 581 c 0
 901 581 888 594 888 612 c 0xff80
 888 621 891 630 893 634 c 1
 864 640 835 641 805 641 c 2
 789 641 l 2
 704 641 691 638 678 625 c 0
 652 599 645 556 627 458 c 1
 902 458 l 2
 918 458 923 455 923 447 c 0
 923 442 921 435 919 427 c 2
 843 126 l 2
 840 116 838 105 838 94 c 0
 838 64 861 54 871 54 c 0
 909 54 920 145 928 155 c 0
 934 163 945 161 957 161 c 2xff40
 962 161 l 2
 973 161 983 161 983 149 c 0xff40
 983 148 954 -5 861 -5 c 0
 811 -5 770 30 770 87 c 0
 770 111 778 136 782 151 c 2
 844 400 l 1
 616 400 l 1
 616 399 l 1
 615 392 563 105 545 29 c 0
 519 -78 500 -105 478 -130 c 0
 421 -195 367 -200 341 -200 c 0
 299 -200 226 -191 226 -138 c 0
 226 -110 248 -87 274 -87 c 0
 292 -87 306 -100 306 -118 c 0
 306 -125 304 -132 302 -139 c 1
 318 -141 332 -141 343 -141 c 0
 380 -141 398 -132 420 -113 c 0
 479 -61 487 103 549 400 c 1
 289 400 l 1
 221 35 205 -78 153 -148 c 0
 116 -197 83 -200 65 -200 c 0
 35 -200 -27 -188 -27 -139 c 0
EndSplineSet
Ligature2: "Latin ligatures excepting Turkic subtable" ff i
Ligature2: "Latin ligatures excepting Turkic subtable" f f i
EndChar

StartChar: ffl
Encoding: 64260 64260 40
Width: 956
Flags: HW
TeX: 694 194
ItalicCorrection: 95
HStem: -200 59<48.6864 106.251 302.833 410.896> -6 60<856.189 913.134> 400 58<127.195 222 300 549 627 858> 641 59<339.766 477.998 671.938 838.408>
VStem: -27 80<-139.672 -96.2722> 222 67<296.197 400> 226 80<-138.672 -95.7539> 476 80<597.135 637.672> 784 68<56.4157 187.938> 942 55<92.1821 161>
DStem2: 549 400 544 28 0.189525 0.981876<-228.644 0 71.7317 243.075> 708.727 -200 775.476 -200 0.242599 0.970127<321.628 618.289 678.196 839.967 860.583 926.914>
LayerCount: 2
Fore
SplineSet
-27 -139 m 0
 -27 -113 -6 -87 21 -87 c 0
 39 -87 53 -100 53 -118 c 0
 53 -126 51 -133 48 -140 c 1
 57 -141 64 -141 69 -141 c 0
 126 -141 133 -74 222 400 c 1xfdc0
 146 400 l 2
 129 400 124 406 124 417 c 0
 124 424 128 451 139 456 c 0
 143 458 148 458 153 458 c 2
 233 458 l 1
 233 459 l 1
 253 586 270 616 293 643 c 0
 323 677 370 700 436 700 c 0
 525 700 556 672 556 639 c 0
 556 607 529 588 508 588 c 0
 486 588 476 601 476 618 c 0
 476 624 477 631 480 638 c 1
 461 640 442 641 423 641 c 0
 320 641 337 634 300 458 c 1
 560 458 l 1
 580 562 587 700 779 700 c 2
 781 700 l 2
 892 700 916 676 917 635 c 1
 929 692 931 694 951 694 c 2
 971 694 l 2
 989 694 996 693 996 684 c 0
 996 680 995 674 993 667 c 2
 860 138 l 2
 857 124 852 110 852 95 c 0
 852 64 873 54 884 54 c 0
 924 54 932 145 942 156 c 0
 946 161 954 161 961 161 c 2
 975 161 l 2
 987 161 997 160 997 149 c 0
 997 147 967 -6 874 -6 c 0
 828 -6 784 28 784 87 c 0
 784 103 788 115 791 129 c 2
 858 400 l 1
 616 400 l 1
 616 399 l 1
 615 393 562 104 544 28 c 0
 518 -80 498 -106 476 -131 c 0
 420 -195 366 -200 341 -200 c 0
 299 -200 226 -191 226 -138 c 0
 226 -110 248 -87 274 -87 c 0
 292 -87 306 -100 306 -118 c 0xfbc0
 306 -125 304 -132 302 -139 c 1
 318 -141 331 -141 343 -141 c 0
 376 -141 395 -133 419 -113 c 0
 477 -63 486 92 549 400 c 1
 289 400 l 1
 220 33 205 -78 153 -148 c 0
 116 -197 83 -200 65 -200 c 0
 35 -200 -27 -188 -27 -139 c 0
627 458 m 1
 873 458 l 1
 912 615 l 1
 904 603 891 588 869 588 c 0xf9c0
 847 588 837 600 837 618 c 0
 837 624 838 630 840 637 c 1
 817 640 794 641 771 641 c 0
 690 641 678 638 664 611 c 0
 649 582 642 541 627 458 c 1
EndSplineSet
Ligature2: "Latin ligatures subtable" ff l
Ligature2: "Latin ligatures subtable" f f l
EndChar

StartChar: uni2423
Encoding: 9251 9251 41
Width: 550
Flags: HW
TeX: 458 97
ItalicCorrection: 50
HStem: -97 61<148.432 389.76>
LayerCount: 2
Fore
SplineSet
79 43 m 0
 79 58 89 61 104 61 c 2
 111 61 l 2
 140 61 134 51 147 -8 c 0
 153 -33 147 -36 203 -36 c 2
 323 -36 l 2
 375 -36 375 -34 393 -10 c 0
 442 60 437 61 464 61 c 2
 467 61 l 2
 479 61 492 59 492 46 c 0
 492 37 488 33 410 -81 c 0
 403 -91 399 -98 381 -98 c 0
 378 -98 375 -97 372 -97 c 2
 127 -97 l 2
 112 -97 104 -94 100 -77 c 0
 80 30 79 37 79 43 c 0
EndSplineSet
EndChar

StartChar: exclam
Encoding: 33 33 42
Width: 328
Flags: HW
TeX: 694 0
ItalicCorrection: 115
HStem: 0 106<138.978 212.845>
VStem: 122 108<17.3144 89.1551> 184 64<189.46 241.039>
LayerCount: 2
Fore
SplineSet
122 44 m 0xc0
 122 79 155 106 185 106 c 0
 210 106 230 88 230 63 c 0
 230 34 204 0 167 0 c 0
 144 0 122 17 122 44 c 0xc0
184 202 m 0
 184 208 185 210 187 222 c 2
 270 641 l 2
 282 701 323 705 337 705 c 0
 361 705 380 689 380 665 c 0
 380 655 378 645 375 636 c 2
 248 218 l 2
 240 191 241 189 212 189 c 2xa0
 207 189 l 2
 195 189 184 190 184 202 c 0
EndSplineSet
EndChar

StartChar: quotedbl
Encoding: 34 34 43
Width: 550
Flags: HW
TeX: 694 0
ItalicCorrection: 73
HStem: 371 329
VStem: 258 304
LayerCount: 2
Fore
SplineSet
258 389 m 0
 258 394 258 390 311 640 c 0
 313 651 319 700 361 700 c 0
 380 700 395 687 395 668 c 0
 395 657 382 618 320 400 c 0
 312 371 307 372 288 371 c 1
 285 371 l 2
 275 371 258 371 258 389 c 0
426 389 m 1
 426 389 479 656 487 673 c 0
 493 686 508 700 529 700 c 0
 548 700 562 687 562 668 c 0
 562 656 562 664 488 399 c 0
 480 370 473 372 455 371 c 1
 452 371 l 2
 440 371 426 372 426 389 c 1
EndSplineSet
EndChar

StartChar: numbersign
Encoding: 35 35 44
Width: 883
Flags: HW
TeX: 694 194
ItalicCorrection: 65
HStem: 117 59<118.272 291 388 512 609 836.087> 324 59<169.946 397 494 618 715 887.696> 673 20G<596.5 615 816.5 835>
VStem: 572 63<663 689.859> 793 63<663 690.216>
DStem2: 159 -138 212 -164 0.458275 0.88881<-27.6601 287.139 384.031 519.7 616.592 837.302> 380 -138 433 -164 0.458275 0.88881<-27.6601 287.139 384.031 519.7 616.592 837.302>
LayerCount: 2
Fore
SplineSet
117 147 m 0
 117 159 123 176 157 176 c 2
 322 176 l 1
 397 324 l 1
 208 324 l 2
 194 324 169 326 169 354 c 0
 169 381 197 383 208 383 c 2
 428 383 l 1
 434 395 440 407 446 419 c 2
 572 663 l 2
 578 674 586 693 607 693 c 0
 623 693 635 679 635 665 c 0
 635 652 635 658 494 383 c 1
 649 383 l 1
 655 395 661 407 667 419 c 2
 793 663 l 2
 799 674 806 693 827 693 c 0
 843 693 856 679 856 665 c 0
 856 652 856 658 715 383 c 1
 842 383 l 2
 849 383 856 383 863 382 c 0
 878 380 889 367 889 353 c 0
 889 341 883 324 849 324 c 2
 684 324 l 1
 609 176 l 1
 798 176 l 2
 811 176 837 174 837 146 c 0
 837 119 810 117 799 117 c 2
 578 117 l 1
 433 -164 l 2
 427 -175 418 -194 399 -194 c 0
 382 -194 371 -180 371 -165 c 0
 371 -154 379 -141 380 -138 c 2
 512 117 l 1
 357 117 l 1
 212 -164 l 2
 206 -175 197 -194 178 -194 c 0
 161 -194 150 -180 150 -165 c 0
 150 -154 158 -141 159 -138 c 2
 291 117 l 1
 155 117 l 2
 121 117 117 139 117 147 c 0
388 176 m 1
 543 176 l 1
 618 324 l 1
 463 324 l 1
 388 176 l 1
EndSplineSet
EndChar

StartChar: dollar
Encoding: 36 36 45
Width: 550
Flags: HW
TeX: 750 55
ItalicCorrection: 133
HStem: -3 58<211.462 243>
VStem: 120 61<83.4612 183.469> 203 67<436.453 562.601> 455 67<145.285 285.475> 543 60<523.75 609.33>
DStem2: 229.746 -56 289.996 -56 0.242599 0.970127<20.3615 54.632 130.064 399.036 476.159 716.269 791.702 824.957>
LayerCount: 2
Fore
SplineSet
120 135 m 0
 120 219 152 231 174 231 c 0
 192 231 206 218 206 200 c 0
 206 175 185 162 181 159 c 1
 181 147 l 2
 181 73 235 60 258 55 c 1
 327 332 l 1
 300 339 203 364 203 474 c 0
 203 535 247 676 419 699 c 1
 428 740 429 750 455 750 c 0
 457 750 459 750 461 750 c 0
 480 750 485 742 485 731 c 0
 485 721 481 709 478 698 c 1
 517 692 603 671 603 566 c 0
 603 491 573 477 550 477 c 0
 532 477 518 490 518 508 c 0
 518 524 527 538 543 549 c 1
 543 578 537 627 463 639 c 1
 401 390 l 1
 490 369 522 305 522 241 c 0
 522 146 450 13 303 -4 c 1
 292 -48 294 -56 265 -56 c 2
 261 -56 l 2
 242 -56 236 -48 236 -37 c 0
 236 -28 239 -16 243 -3 c 1
 163 7 120 59 120 135 c 0
270 494 m 0
 270 459 288 420 345 406 c 1
 403 639 l 1
 294 616 270 531 270 494 c 0
318 56 m 1
 419 80 455 166 455 222 c 0
 455 260 438 301 383 317 c 1
 318 56 l 1
EndSplineSet
EndChar

StartChar: percent
Encoding: 37 37 46
Width: 883
Flags: HW
TeX: 750 55
ItalicCorrection: 131
HStem: -55 58<621.848 714.464> 288 59<686.419 779.188> 347 59<279.028 371.567> 593 55<553.124 735.589> 691 59<340.825 434.485>
VStem: 206 62<415.825 580.922> 448 57<514.398 624.527> 550 61<13.1014 178.58> 792 57<109.393 276.182>
DStem2: 737 603 808 622 0.707107 0.707107<-152.348 0 83.1843 197.306>
LayerCount: 2
Fore
SplineSet
155 -35 m 0
 155 -25 163 -17 169 -11 c 2
 737 603 l 1
 710 597 684 593 652 593 c 0
 596 593 552 605 505 627 c 1
 502 506 427 347 309 347 c 0
 268 347 206 372 206 471 c 0
 206 583 280 750 405 750 c 0
 452 750 475 721 490 708 c 0
 540 665 603 648 657 648 c 0
 742 648 813 688 850 726 c 0
 869 746 872 749 881 749 c 0
 886 749 900 747 900 725 c 1
 903 723 907 718 907 713 c 0
 907 694 831 645 823 637 c 0
 818 632 813 627 808 622 c 2
 199 -38 l 2
 192 -45 184 -54 174 -54 c 0
 163 -54 155 -45 155 -35 c 0
268 472 m 0
 268 416 299 406 320 406 c 0
 397 406 448 536 448 616 c 0
 448 679 415 691 394 691 c 0
 293 691 268 500 268 472 c 0
550 68 m 0
 550 172 619 347 749 347 c 0
 789 347 849 324 849 224 c 0
 849 121 780 -55 653 -55 c 0
 612 -55 550 -31 550 68 c 0
611 70 m 0
 611 14 642 3 663 3 c 0
 740 3 792 132 792 213 c 0
 792 266 768 288 739 288 c 0
 713 288 683 271 663 243 c 0
 623 187 611 88 611 70 c 0
EndSplineSet
EndChar

StartChar: ampersand
Encoding: 38 38 47
Width: 828
Flags: HW
TeX: 694 0
ItalicCorrection: 90
HStem: -11 58<292.717 560.45> 256 72<608.376 658.289> 295 58<298.474 390.023> 433 59<313.476 400.752> 647 58<362.131 485.534> 674 20G<815.5 834.5>
VStem: 133 74<117.655 289.884> 401 59<359.891 432.873> 478 82<547.558 606.529> 528 60<320.395 387.792> 731 60<217.498 401.529> 782 74<632.236 686.811>
LayerCount: 2
Fore
SplineSet
133 187 m 0
 133 222 147 303 205 386 c 0
 211 394 212 400 212 406 c 0
 212 413 210 421 210 435 c 0
 210 542 288 705 439 705 c 0
 508 705 560 664 560 602 c 0
 560 551 530 538 510 538 c 0
 492 538 478 550 478 569 c 0
 478 584 487 597 499 607 c 1
 482 643 448 647 429 647 c 0
 308 647 282 488 278 456 c 1
 328 486 369 492 392 492 c 0
 439 492 460 462 460 424 c 0
 460 372 424 295 347 295 c 0
 287 295 253 326 246 333 c 1
 240 320 207 249 207 192 c 0
 207 105 268 47 424 47 c 0
 561 47 676 89 720 246 c 0
 726 269 731 293 731 316 c 0xbba0
 731 369 710 405 688 437 c 1
 647 417 588 386 588 347 c 0
 588 336 594 328 608 319 c 1
 616 324 626 328 635 328 c 0
 652 328 665 316 665 299 c 0
 665 287 655 256 617 256 c 0
 583 256 528 278 528 337 c 0
 528 419 627 459 687 500 c 0
 739 536 767 580 788 632 c 1
 785 637 782 644 782 652 c 0
 782 674 805 694 826 694 c 0
 843 694 856 682 856 665 c 0xd750
 856 650 832 550 741 473 c 1
 786 415 791 355 791 326 c 0xd720
 791 241 740 -11 416 -11 c 0
 180 -11 133 108 133 187 c 0
286 390 m 1
 305 361 333 353 353 353 c 0xb3
 378 353 392 361 400 406 c 0
 401 410 401 414 401 417 c 0
 401 428 395 433 381 433 c 0
 343 433 312 414 286 390 c 1
EndSplineSet
EndChar

StartChar: quoteright
Encoding: 8217 8217 48
Width: 328
Flags: HW
TeX: 694 0
ItalicCorrection: 115
HStem: 397 297
VStem: 269 113<594.25 675.852>
LayerCount: 2
Fore
SplineSet
223 431 m 0
 223 447 294 486 318 588 c 1
 276 589 269 613 269 630 c 0
 269 661 297 694 335 694 c 0
 354 694 382 683 382 632 c 0
 382 517 272 397 251 397 c 0
 241 397 223 423 223 431 c 0
EndSplineSet
EndChar

StartChar: parenleft
Encoding: 40 40 49
Width: 439
Flags: HW
TeX: 750 250
ItalicCorrection: 159
VStem: 141 64<-110.268 219.586>
LayerCount: 2
Fore
SplineSet
141 36 m 0
 141 277 252 573 471 736 c 0
 488 749 491 750 505 750 c 2
 519 750 l 2
 531 750 540 749 540 742 c 0
 540 734 529 727 522 722 c 0
 309 558 205 259 205 38 c 0
 205 -159 294 -225 294 -242 c 0
 294 -247 289 -250 276 -250 c 2
 257 -250 l 2
 246 -250 235 -251 201 -197 c 0
 153 -119 141 -28 141 36 c 0
EndSplineSet
EndChar

StartChar: parenright
Encoding: 41 41 50
Width: 439
Flags: HW
TeX: 750 250
ItalicCorrection: 34
VStem: 358 64<274.527 607.347>
LayerCount: 2
Fore
SplineSet
23 -241 m 0
 23 -234 35 -226 42 -221 c 0
 255 -56 358 242 358 462 c 0
 358 661 269 722 269 741 c 0
 269 747 275 750 286 750 c 2
 306 750 l 2
 316 750 326 750 355 706 c 0
 404 632 422 543 422 455 c 0
 422 253 327 -61 90 -238 c 0
 78 -247 72 -250 57 -250 c 0
 52 -250 47 -250 42 -250 c 0
 34 -250 23 -249 23 -241 c 0
EndSplineSet
EndChar

StartChar: asterisk
Encoding: 42 42 51
Width: 550
Flags: HW
TeX: 750 0
ItalicCorrection: 145
VStem: 324 55<293.581 390.925> 430 55<651.075 747.593>
DStem2: 275 479 367 474 0.882499 0.470314<-90.2139 78.8384 189.235 357.406>
LayerCount: 2
Fore
SplineSet
195 416 m 0
 195 441 216 449 275 479 c 0
 302 493 329 507 357 520 c 1
 286 574 243 588 243 612 c 0
 243 628 261 649 281 649 c 0
 295 649 302 642 391 568 c 1
 426 728 422 722 430 732 c 0
 437 742 449 749 461 749 c 0
 473 749 485 741 485 726 c 0
 485 719 486 725 442 568 c 1
 572 644 577 649 590 649 c 0
 597 649 614 644 614 625 c 0
 614 600 593 593 534 563 c 0
 507 549 480 534 452 521 c 1
 519 470 565 454 565 428 c 0
 565 409 543 393 527 393 c 0
 514 393 514 394 418 474 c 1
 383 314 387 320 379 310 c 0
 372 300 360 292 348 292 c 0
 335 292 324 302 324 316 c 0
 324 323 323 317 367 474 c 1
 237 398 231 393 218 393 c 0
 206 393 195 402 195 416 c 0
EndSplineSet
EndChar

StartChar: plus
Encoding: 43 43 52
Width: 828
Flags: HW
TeX: 583 83
ItalicCorrection: 34
HStem: 221 59<144.994 439 514 806.859>
VStem: 372 61<-80.5218 -15>
DStem2: 362.979 -83 422.997 -83 0.242599 0.970127<91.1752 313.361 388.794 670.544>
LayerCount: 2
Fore
SplineSet
144 250 m 0
 144 277 172 280 183 280 c 2
 453 280 l 1
 459 307 466 333 520 547 c 0
 521 552 526 583 552 583 c 0
 568 583 581 569 581 554 c 0
 581 547 579 540 577 533 c 2
 514 280 l 1
 768 280 l 2
 802 280 808 262 808 250 c 0
 808 223 782 221 770 221 c 2
 499 221 l 1
 433 -43 l 2
 431 -52 426 -83 400 -83 c 0
 386 -83 372 -72 372 -53 c 0
 372 -40 439 221 439 221 c 1
 182 221 l 2
 148 221 144 240 144 250 c 0
EndSplineSet
EndChar

StartChar: comma
Encoding: 44 44 53
Width: 328
Flags: HW
TeX: 105 194
HStem: -192 298
VStem: 122 111<8.41019 88.0713>
LayerCount: 2
Fore
SplineSet
76 -157 m 0
 76 -141 142 -103 168 0 c 1
 129 2 122 25 122 41 c 0
 122 74 152 106 187 106 c 0
 206 106 233 96 233 46 c 0
 233 -68 126 -192 104 -192 c 0
 94 -192 76 -165 76 -157 c 0
EndSplineSet
EndChar

StartChar: hyphen
Encoding: 45 45 54
Width: 383
Flags: HW
TeX: 458 0
ItalicCorrection: 29
HStem: 197 65<100.286 357.435>
VStem: 90 273<197.843 251.66>
LayerCount: 2
Fore
SplineSet
90 215 m 0
 90 221 96 245 100 252 c 0
 106 262 118 262 122 262 c 2
 337 262 l 2
 350 262 363 260 363 244 c 1
 363 244 359 207 345 199 c 0
 340 197 335 197 330 197 c 2
 115 197 l 2
 103 197 90 199 90 215 c 0
EndSplineSet
EndChar

StartChar: period
Encoding: 46 46 55
Width: 328
Flags: HW
TeX: 105 0
HStem: 0 106<140.798 212.725>
VStem: 123 108<18.045 88.3051>
LayerCount: 2
Fore
SplineSet
123 43 m 0
 123 74 152 106 187 106 c 0
 213 106 231 87 231 63 c 0
 231 33 201 0 166 0 c 0
 140 0 123 19 123 43 c 0
EndSplineSet
EndChar

StartChar: slash
Encoding: 47 47 56
Width: 550
Flags: HW
TeX: 750 250
ItalicCorrection: 159
DStem2: 67 -142 93 -214 0.514215 0.857661<-88.2609 1038.64>
LayerCount: 2
Fore
SplineSet
26 -221 m 0
 26 -207 44 -181 67 -142 c 2
 587 724 l 2
 593 733 602 749 619 749 c 0
 634 749 648 738 648 721 c 0
 648 714 648 712 632 685 c 2
 93 -214 l 2
 86 -225 76 -249 54 -249 c 0
 39 -249 26 -236 26 -221 c 0
EndSplineSet
EndChar

StartChar: zero
Encoding: 48 48 57
Width: 550
Flags: HW
TeX: 649 0
ItalicCorrection: 133
HStem: -11 59<225.481 354.86> 597 59<348.352 485.07>
VStem: 124 72<77.2565 296.551> 515 69<356.232 568.184>
LayerCount: 2
Fore
SplineSet
124 154 m 0
 124 218 145 297 149 313 c 0
 180 438 242 656 437 656 c 0
 510 656 584 623 584 491 c 0
 584 432 569 367 560 332 c 0
 543 261 487 -11 271 -11 c 0
 197 -11 124 22 124 154 c 0
196 156 m 0
 196 78 233 48 287 48 c 0
 297 48 346 50 390 96 c 0
 441 150 465 239 497 370 c 0
 500 382 515 444 515 493 c 0
 515 576 468 597 423 597 c 0
 281 597 247 413 218 297 c 0
 216 287 196 217 196 156 c 0
EndSplineSet
Substitution2: "LGC old numerals subtable" zerooldstyle
EndChar

StartChar: one
Encoding: 49 49 58
Width: 550
Flags: HW
TeX: 649 0
ItalicCorrection: 133
HStem: -0 59<136.888 267 335 450.507> 465 70<251.833 338.715>
DStem2: 252.246 -0 320.246 -0 0.242599 0.970127<77.3136 526.728>
LayerCount: 2
Fore
SplineSet
133 18 m 0
 133 23 137 50 150 56 c 0
 155 58 160 59 165 59 c 2
 267 59 l 1
 380 511 l 1
 367 502 318 465 265 465 c 0
 252 465 244 470 244 483 c 0
 244 486 244 489 245 493 c 0
 256 539 264 514 318 535 c 0
 412 573 432 652 460 652 c 0
 469 652 478 646 478 635 c 0
 478 627 474 616 472 607 c 2
 335 59 l 1
 431 59 l 2
 443 59 454 55 454 41 c 0
 454 35 450 7 437 2 c 0
 433 0 428 0 424 -0 c 2
 160 -0 l 2
 145 0 133 2 133 18 c 0
EndSplineSet
Substitution2: "LGC old numerals subtable" oneoldstyle
EndChar

StartChar: two
Encoding: 50 50 59
Width: 550
Flags: HW
TeX: 649 0
ItalicCorrection: 133
HStem: -11 71<299.387 450.681> 48 59<189 257.856> 357 60<221.693 279.564> 597 59<320.28 475.091>
VStem: 161 60<417.75 500.773> 313 61<452.921 550.841> 512 72<405.39 561.635> 512 55<128.554 183>
LayerCount: 2
Fore
SplineSet
79 0 m 0
 79 16 122 161 256 242 c 0
 348 297 512 331 512 495 c 0
 512 577 448 597 400 597 c 0
 293 597 221 492 221 441 c 0
 221 424 229 417 240 417 c 0
 276 417 313 476 313 505 c 0
 313 518 304 526 304 535 c 0
 304 547 338 572 346 572 c 0
 360 572 374 539 374 515 c 0
 374 460 310 357 228 357 c 0
 187 357 161 388 161 430 c 0
 161 520 267 656 409 656 c 0
 508 656 584 602 584 496 c 0
 584 377 510 323 474 298 c 0
 354 214 284 228 189 107 c 1x7e
 268 105 326 60 394 60 c 0
 454 60 491 119 506 162 c 0
 511 175 511 183 531 183 c 2xbe
 547 183 l 2
 558 183 567 182 567 171 c 0
 567 146 504 -11 383 -11 c 0xbd
 313 -11 237 48 186 48 c 0x7d
 181 48 176 48 172 47 c 0
 143 39 141 -2 130 -9 c 0
 126 -12 120 -11 115 -11 c 2
 102 -11 l 2xbd
 84 -11 79 -10 79 0 c 0
EndSplineSet
Substitution2: "LGC old numerals subtable" twooldstyle
EndChar

StartChar: three
Encoding: 51 51 60
Width: 550
Flags: HW
TeX: 649 0
ItalicCorrection: 133
HStem: -11 58<188.514 361.092> 306 58<295.536 420.842> 412 60<264.301 310.281> 597 59<334.503 503.502>
VStem: 100 84<121.841 180.262> 204 60<472.819 539.443> 314 60<474.449 551.249> 445 72<131.667 282.198> 527 67<441.452 572.727>
LayerCount: 2
Fore
SplineSet
100 118 m 0
 100 178 131 191 151 191 c 0
 171 191 184 178 184 161 c 0
 184 148 176 133 160 120 c 1
 172 50 241 47 261 47 c 0
 411 47 445 152 445 221 c 0
 445 301 382 306 343 306 c 2
 310 306 l 2
 296 306 291 308 291 318 c 0
 291 325 293 335 298 350 c 0
 301 361 306 364 320 364 c 2
 351 364 l 2
 399 364 442 371 477 403 c 0
 511 434 527 485 527 520 c 0
 527 577 484 597 426 597 c 0
 327 597 264 534 264 492 c 0
 264 479 272 472 282 472 c 0
 297 472 314 489 314 506 c 0
 314 518 305 528 305 536 c 0
 305 544 336 572 348 572 c 0
 359 572 374 542 374 514 c 0
 374 463 325 412 270 412 c 0
 231 412 204 441 204 481 c 0
 204 564 305 656 437 656 c 0
 529 656 594 611 594 524 c 0
 594 447 545 368 470 332 c 1
 486 316 517 288 517 221 c 0
 517 68 385 -11 250 -11 c 0
 152 -11 100 49 100 118 c 0
EndSplineSet
Substitution2: "LGC old numerals subtable" threeoldstyle
EndChar

StartChar: four
Encoding: 52 52 61
Width: 550
Flags: HW
TeX: 649 194
ItalicCorrection: 133
HStem: -29 59<399 502.85> 22 59<183 283.54> 635 20G<454.5 471>
VStem: 427 64<562.849 651.81>
LayerCount: 2
Fore
SplineSet
50 38 m 0
 50 61 79 49 175 150 c 0
 370 354 414 603 427 630 c 0
 433 642 446 655 463 655 c 0
 479 655 491 646 491 628 c 0
 491 616 427 308 183 81 c 1
 188 81 l 2x70
 247 81 279 66 335 46 c 1
 335 46 375 210 381 227 c 0
 387 242 402 255 419 255 c 0
 436 255 447 243 447 228 c 0
 447 219 402 43 399 30 c 1
 424 30 l 2
 456 30 468 35 476 35 c 0
 490 35 507 5 507 -1 c 0xb0
 507 -17 431 -29 408 -29 c 0xb0
 400 -29 392 -29 384 -28 c 1
 384 -29 354 -160 347 -172 c 0
 340 -184 325 -194 311 -194 c 0
 297 -194 284 -185 284 -167 c 0
 284 -160 283 -166 321 -13 c 1
 261 7 235 22 175 22 c 0
 83 22 98 3 79 3 c 0
 68 3 50 30 50 38 c 0
EndSplineSet
Substitution2: "LGC old numerals subtable" fouroldstyle
EndChar

StartChar: five
Encoding: 53 53 62
Width: 550
Flags: HW
TeX: 649 0
ItalicCorrection: 133
HStem: -11 56<197.304 353.658> 351 59<293.937 437.435> 558 66<309.731 529.58> 634 20G<277.5 287.5>
VStem: 107 85<118.4 177.318> 460 72<164.021 328.151>
DStem2: 107.726 -11 167.973 -11 0.242599 0.970127<410.441 611.291>
LayerCount: 2
Fore
SplineSet
107 116 m 0
 107 178 142 189 159 189 c 0
 177 189 192 176 192 157 c 0
 192 139 181 126 167 116 c 1
 177 64 224 45 269 45 c 0
 422 45 460 201 460 267 c 0
 460 334 417 351 377 351 c 0
 334 351 290 335 254 301 c 0
 236 284 237 283 216 283 c 2
 211 283 l 2
 193 283 187 290 187 301 c 0
 187 309 190 319 193 330 c 2
 268 630 l 2
 273 647 274 654 281 654 c 0
 294 654 340 624 427 624 c 0
 515 624 578 654 586 654 c 0
 592 654 595 651 595 643 c 0
 595 639 588 609 583 602 c 0
 575 592 482 558 388 558 c 0
 358 558 334 562 312 567 c 1
 264 373 l 1
 295 391 336 410 388 410 c 0
 475 410 532 358 532 266 c 0
 532 129 428 -11 259 -11 c 0
 171 -11 107 40 107 116 c 0
EndSplineSet
Substitution2: "LGC old numerals subtable" fiveoldstyle
EndChar

StartChar: six
Encoding: 54 54 63
Width: 550
Flags: HW
TeX: 649 0
ItalicCorrection: 133
HStem: -11 56<223.781 365.677> 376 59<317.501 444.022> 603 53<394.68 535.064>
VStem: 127 69<73.9579 260.457> 470 73<181.205 350.775> 517 82<523.798 581.39>
LayerCount: 2
Fore
SplineSet
127 163 m 0
 127 239 155 372 202 459 c 0
 288 620 418 656 491 656 c 0
 538 656 599 640 599 577 c 0
 599 528 569 514 549 514 c 0
 530 514 517 526 517 544 c 0xf4
 517 555 523 569 536 582 c 1
 526 593 514 603 481 603 c 0
 391 603 286 534 236 360 c 1
 276 395 337 435 420 435 c 0
 525 435 543 341 543 296 c 0
 543 253 525 175 500 128 c 0
 480 91 410 -11 275 -11 c 0
 223 -11 127 8 127 163 c 0
196 154 m 0
 196 98 213 45 286 45 c 0
 336 45 367 62 394 88 c 0
 437 130 445 165 462 234 c 0
 466 252 470 270 470 288 c 0
 470 329 452 376 380 376 c 0xf8
 290 376 196 296 196 154 c 0
EndSplineSet
Substitution2: "LGC old numerals subtable" sixoldstyle
EndChar

StartChar: seven
Encoding: 55 55 64
Width: 550
Flags: HW
TeX: 649 0
ItalicCorrection: 133
HStem: -11 21G<320 343.5> 522 59<469.044 528.594> 584 72<311.534 429.718>
VStem: 298 78<-2.4043 90.3242>
LayerCount: 2
Fore
SplineSet
139 460 m 0
 139 466 139 465 225 639 c 0
 232 653 236 656 251 656 c 2
 265 656 l 2
 281 656 287 654 287 647 c 0
 287 641 281 630 274 615 c 1
 297 628 347 656 403 656 c 0
 467 656 455 581 504 581 c 0
 525 581 565 593 606 640 c 0
 616 652 619 656 637 656 c 2
 648 656 l 2
 657 656 671 656 671 646 c 0
 671 625 480 425 376 37 c 0
 369 12 358 -11 329 -11 c 0
 311 -11 298 2 298 19 c 0
 298 49 358 248 485 457 c 1
 529 528 l 1
 518 525 505 522 493 522 c 0
 437 522 437 584 389 584 c 0
 326 584 247 540 205 473 c 0
 192 451 190 450 177 450 c 2
 157 450 l 2
 148 450 139 451 139 460 c 0
EndSplineSet
Substitution2: "LGC old numerals subtable" sevenoldstyle
EndChar

StartChar: eight
Encoding: 56 56 65
Width: 550
Flags: HW
TeX: 649 0
ItalicCorrection: 133
HStem: -11 56<201.044 379.136> 603 53<340.264 500.601>
VStem: 101 67<75.3772 203.58> 215 65<446.387 545.94> 459 70<120.967 234.877> 524 62<467.558 580.034>
LayerCount: 2
Fore
SplineSet
101 120 m 0
 101 212 169 301 291 351 c 1
 291 352 l 1
 269 368 215 399 215 469 c 0
 215 551 292 656 436 656 c 0
 517 656 586 622 586 542 c 0xf4
 586 465 529 390 428 347 c 1
 468 316 529 283 529 203 c 0
 529 114 446 -11 273 -11 c 0
 185 -11 101 24 101 120 c 0
168 130 m 0
 168 66 227 45 284 45 c 0
 397 45 459 118 459 182 c 0xf8
 459 231 428 246 341 313 c 1
 225 272 168 203 168 130 c 0
280 492 m 0
 280 454 304 442 381 383 c 1
 421 399 524 443 524 532 c 0
 524 586 473 603 427 603 c 0xf4
 341 603 280 553 280 492 c 0
EndSplineSet
Substitution2: "LGC old numerals subtable" eightoldstyle
EndChar

StartChar: nine
Encoding: 57 57 66
Width: 550
Flags: HW
TeX: 649 0
ItalicCorrection: 133
HStem: -11 56<175.42 322.185> 209 59<266.222 388.425> 602 54<347.091 487.77>
VStem: 111 64<52.9322 100.482> 167 73<293.676 462.836> 514 69<386.489 575.877>
LayerCount: 2
Fore
SplineSet
111 69 m 0
 111 116 141 131 161 131 c 0
 181 131 193 118 193 101 c 0
 193 90 187 76 175 64 c 1
 175 63 l 1xf4
 185 56 198 45 239 45 c 0
 333 45 427 118 474 285 c 1
 434 250 372 209 290 209 c 0
 185 209 167 304 167 349 c 0xec
 167 390 184 470 211 519 c 0
 231 555 302 656 439 656 c 0
 491 656 583 636 583 484 c 0
 583 429 564 297 512 193 c 0
 449 67 343 -11 230 -11 c 0
 169 -11 111 8 111 69 c 0
240 356 m 1
 240 319 255 268 331 268 c 0
 417 268 514 347 514 496 c 0xec
 514 546 501 602 429 602 c 0
 374 602 343 583 315 556 c 0
 245 488 240 356 240 356 c 1
EndSplineSet
Substitution2: "LGC old numerals subtable" nineoldstyle
EndChar

StartChar: less
Encoding: 60 60 69
Width: 828
Flags: HW
TeX: 556 56
ItalicCorrection: 83
DStem2: 263 246 198 216 0.858646 -0.512569<0 516.243> 210 287 263 247 0.908677 0.4175<31.4599 672.785>
LayerCount: 2
Fore
SplineSet
171 250 m 0
 171 272 195 280 210 287 c 2
 802 559 l 2
 809 562 816 565 823 565 c 0
 840 565 851 551 851 536 c 0
 851 513 826 506 810 498 c 2
 346 285 l 2
 318 272 291 259 263 247 c 1
 263 246 l 1
 679 -2 l 2
 691 -9 708 -18 708 -37 c 0
 708 -52 694 -65 679 -65 c 0
 670 -65 662 -61 657 -58 c 2
 198 216 l 2
 188 222 171 231 171 250 c 0
EndSplineSet
EndChar

StartChar: equal
Encoding: 61 61 70
Width: 828
Flags: HW
TeX: 373 -126
ItalicCorrection: 65
HStem: 117 59<118.107 780.042> 324 59<170.12 831.919>
LayerCount: 2
Fore
SplineSet
117 147 m 0
 117 161 128 172 142 175 c 0
 149 176 157 176 164 176 c 2
 743 176 l 2
 776 176 781 158 781 146 c 0
 781 134 776 117 743 117 c 2
 156 117 l 2
 123 117 117 135 117 147 c 0
169 353 m 0
 169 361 172 383 207 383 c 2
 794 383 l 2
 827 383 833 365 833 353 c 0
 833 341 827 324 794 324 c 2
 207 324 l 2
 174 324 169 341 169 353 c 0
EndSplineSet
EndChar

StartChar: greater
Encoding: 62 62 71
Width: 828
Flags: HW
TeX: 556 56
ItalicCorrection: 6
DStem2: 141 2 149 -60 0.908094 0.418766<-39.564 602.746> 312 547 272 502 0.858007 -0.513637<-43.2477 474.478>
LayerCount: 2
Fore
SplineSet
100 -36 m 0
 100 -13 125 -6 141 2 c 2
 654 238 l 2
 665 243 677 248 689 253 c 1
 666 268 642 281 619 295 c 2
 272 502 l 2
 268 505 243 516 243 537 c 0
 243 552 257 565 272 565 c 0
 280 565 282 565 312 547 c 2
 753 283 l 2
 763 277 780 268 780 250 c 0
 780 228 756 220 741 213 c 2
 149 -60 l 2
 142 -63 135 -65 128 -65 c 0
 111 -65 100 -51 100 -36 c 0
EndSplineSet
EndChar

StartChar: question
Encoding: 63 63 72
Width: 550
Flags: HW
TeX: 694 0
ItalicCorrection: 118
HStem: 0 106<250.962 324.404> 190 59<322.525 384.922> 647 59<362.469 500.622>
VStem: 204 79<467.49 527.626> 234 107<17.3144 88.5> 259 63<249.742 316.969> 399 60<263.727 302.881> 519 63<510.574 626.974>
LayerCount: 2
Fore
SplineSet
204 490 m 0xf3
 204 542 296 706 449 706 c 0
 529 706 582 663 582 587 c 0
 582 569 580 501 514 439 c 0
 501 427 485 415 363 332 c 0
 360 330 322 310 322 269 c 0xe7
 322 255 330 249 341 249 c 0xeb
 360 249 388 266 399 288 c 0
 407 302 408 303 429 303 c 2
 433 303 l 2
 442 303 459 303 459 292 c 0
 459 267 407 190 325 190 c 0
 283 190 259 217 259 258 c 0xe7
 259 287 271 325 296 354 c 0
 319 381 427 446 465 475 c 0
 496 499 519 536 519 577 c 0
 519 622 487 647 439 647 c 0
 373 647 309 600 274 528 c 1
 280 520 283 514 283 505 c 0
 283 482 261 459 236 459 c 0
 219 459 204 470 204 490 c 0xf3
234 44 m 0
 234 80 269 106 297 106 c 0xeb
 322 106 341 88 341 63 c 0
 341 34 315 0 278 0 c 0
 254 0 234 18 234 44 c 0
EndSplineSet
EndChar

StartChar: at
Encoding: 64 64 73
Width: 828
Flags: HW
TeX: 694 0
ItalicCorrection: 93
HStem: -6 59<317.852 584.373> 124 59<391.312 537.117 638.5 720.657> 512 58<466.717 611.708> 641 59<454.817 684.169>
VStem: 153 58<153.884 372.055> 291 65<218.649 386.256> 790 57<320.588 539.439>
LayerCount: 2
Fore
SplineSet
153 240 m 0
 153 349 202 493 303 588 c 0
 386 666 491 700 587 700 c 0
 749 700 847 608 847 455 c 0
 847 341 781 124 656 124 c 0
 621 124 605 146 600 182 c 1
 564 152 513 124 446 124 c 0
 376 124 291 160 291 277 c 0
 291 400 382 570 554 570 c 0
 609 570 674 551 699 472 c 1
 702 472 705 472 708 472 c 0
 721 472 727 471 727 460 c 0
 727 444 667 226 667 204 c 0
 667 189 674 183 684 183 c 0
 751 183 790 377 790 441 c 0
 790 566 709 641 576 641 c 0
 343 641 211 428 211 254 c 0
 211 162 254 53 431 53 c 0
 492 53 581 62 676 88 c 0
 703 95 699 97 732 97 c 2
 748 97 l 2
 760 97 766 93 766 88 c 0
 766 69 576 -6 419 -6 c 0
 251 -6 153 85 153 240 c 0
356 288 m 0
 356 204 414 183 457 183 c 0
 542 183 598 247 621 295 c 0
 626 306 648 385 648 408 c 0
 648 455 622 512 544 512 c 0
 422 512 356 380 356 288 c 0
EndSplineSet
EndChar

StartChar: A
Encoding: 65 65 74
Width: 789
Flags: HW
TeX: 688 0
HStem: -0 59<67.0161 170.1 220 284.851 505.917 584 656.091 734.326> 216 59<349 564> 676 20G<552.5 586.5>
DStem2: 158 59 220 59 0.509725 0.860337<31.603 214.08 283.19 647.285> 601 665 535 588 0.0936461 -0.995606<70.481 384.821 444.03 601.745>
AnchorPoint: "ogonek" 637 0 basechar 0
AnchorPoint: "below" 393 0 basechar 0
AnchorPoint: "above" 567 695 basechar 0
LayerCount: 2
Fore
SplineSet
63 18 m 0
 63 22 67 49 78 55 c 0
 85 59 94 59 104 59 c 2
 158 59 l 1
 170 81 183 102 196 123 c 2
 520 670 l 2
 533 693 543 696 562 696 c 2
 573 696 l 2
 600 696 599 682 601 665 c 2
 642 226 l 2
 647 170 653 115 658 59 c 1
 710 59 l 2
 724 59 738 58 738 41 c 0
 738 37 734 9 723 3 c 0
 718 0 713 0 707 -0 c 2
 526 -0 l 2
 507 0 502 7 502 17 c 0
 502 22 503 28 505 34 c 0
 511 58 519 59 536 59 c 0
 552 59 568 59 584 59 c 1
 569 216 l 1
 313 216 l 1
 220 59 l 1
 260 59 l 2
 275 59 288 58 288 39 c 0
 288 25 280 7 273 3 c 0
 268 0 263 0 257 -0 c 2
 89 -0 l 2
 79 0 63 0 63 18 c 0
349 275 m 1
 564 275 l 1
 535 588 l 1
 349 275 l 1
EndSplineSet
EndChar

StartChar: B
Encoding: 66 66 75
Width: 753
Flags: HW
TeX: 688 0
ItalicCorrection: 100
HStem: -0 59<84.7514 180 247 545.777> 326 59<329 589.25> 625 58<241.011 321 389 667.885>
VStem: 649 73<146.499 286.122> 704 71<468.892 591.355>
DStem2: 165.246 -0 232.246 -0 0.242599 0.970127<77.071 352.349 413.225 644.115>
AnchorPoint: "below" 350 0 basechar 0
AnchorPoint: "above" 523 695 basechar 0
LayerCount: 2
Fore
SplineSet
81 18 m 0
 81 22 85 50 96 56 c 0
 100 58 105 59 110 59 c 2
 180 59 l 1
 321 625 l 1
 266 625 l 2
 252 625 238 626 238 643 c 0
 238 651 242 676 253 681 c 0
 258 683 263 683 268 683 c 2
 542 683 l 2
 553 683 563 684 574 684 c 0
 651 684 719 672 754 621 c 0
 769 600 775 575 775 550 c 0xe8
 775 479 727 409 642 374 c 0
 626 367 609 362 592 357 c 1
 660 347 722 309 722 227 c 0
 722 154 657 0 442 -0 c 2
 103 -0 l 2
 92 0 81 4 81 18 c 0
247 59 m 1
 425 59 l 2
 603 59 649 160 649 221 c 0xf0
 649 324 543 326 505 326 c 2
 314 326 l 1
 247 59 l 1
329 385 m 1
 478 385 l 2xe8
 658 385 704 484 704 536 c 0
 704 572 683 622 587 625 c 1
 389 625 l 1
 329 385 l 1
EndSplineSet
EndChar

StartChar: C
Encoding: 67 67 76
Width: 772
Flags: HW
TeX: 688 0
ItalicCorrection: 143
HStem: -11 58<336.873 528.958> 636 59<476.544 677.826>
VStem: 151 76<146.372 364.893>
AnchorPoint: "below" 416 0 basechar 0
AnchorPoint: "above" 586 695 basechar 0
LayerCount: 2
Fore
SplineSet
151 236 m 0
 151 437 307 695 586 695 c 0
 699 695 747 631 768 602 c 1
 831 695 838 694 847 694 c 0
 852 694 860 692 860 683 c 0
 860 678 803 450 802 447 c 0
 797 430 791 429 779 429 c 2
 774 429 l 2
 746 429 742 430 742 442 c 0
 742 449 743 460 743 476 c 0
 743 538 715 636 601 636 c 0
 456 636 294 556 240 337 c 0
 232 306 227 274 227 243 c 0
 227 86 352 47 449 47 c 0
 555 47 650 123 684 217 c 0
 690 233 689 242 709 242 c 2
 724 242 l 2
 741 242 747 239 747 231 c 0
 747 227 745 222 743 215 c 0
 702 89 561 -11 413 -11 c 0
 305 -11 151 38 151 236 c 0
EndSplineSet
EndChar

StartChar: D
Encoding: 68 68 77
Width: 808
Flags: HW
TeX: 688 0
ItalicCorrection: 91
HStem: -0 59<82.4375 179 249 527.993> 625 58<247.234 320 391 660.947>
VStem: 753 73<315.996 539.478>
DStem2: 164.246 -0 234.246 -0 0.242599 0.970127<77.7988 644.115>
AnchorPoint: "below" 377 0 basechar 0
AnchorPoint: "above" 551 695 basechar 0
LayerCount: 2
Fore
SplineSet
80 18 m 0
 80 56 101 59 114 59 c 2
 179 59 l 1
 320 625 l 1
 262 625 l 2
 249 625 237 627 237 643 c 0
 237 652 242 670 247 676 c 0
 252 682 257 684 268 684 c 0
 270 684 273 683 275 683 c 2
 546 683 l 2
 557 683 568 684 579 684 c 0
 776 684 826 560 826 450 c 0
 826 293 721 0 408 -0 c 2
 110 -0 l 2
 94 0 80 1 80 18 c 0
249 59 m 1
 401 59 l 2
 463 59 667 61 737 331 c 0
 751 385 753 420 753 442 c 0
 753 588 654 625 548 625 c 2
 391 625 l 1
 249 59 l 1
EndSplineSet
EndChar

StartChar: E
Encoding: 69 69 78
Width: 725
Flags: HW
TeX: 688 0
ItalicCorrection: 115
HStem: -0 59<82.7514 178 251 593.331> 324 58<332 499.734> 622 59<238.358 318 392 709.927>
VStem: 553 51<429.56 499.814> 710 71<479.499 669>
DStem2: 163.246 -0 236.246 -0 0.242599 0.970127<78.5266 351.622 412.498 640.962>
AnchorPoint: "ogonek" 372 0 basechar 0
AnchorPoint: "below" 372 0 basechar 0
AnchorPoint: "above" 546 695 basechar 0
LayerCount: 2
Fore
SplineSet
79 18 m 0
 79 22 83 50 94 56 c 0
 98 58 103 59 108 59 c 2
 178 59 l 1
 318 622 l 1
 256 622 l 2
 244 622 235 627 235 640 c 0
 235 641 237 669 248 677 c 0
 253 680 259 681 265 681 c 2
 756 681 l 2
 770 681 781 678 781 660 c 0
 781 653 765 524 756 455 c 0
 753 428 744 428 723 428 c 2
 722 428 l 2
 703 428 697 433 697 450 c 0
 697 472 710 536 710 594 c 0
 710 618 712 622 564 622 c 2
 392 622 l 1
 332 383 l 1
 354 383 375 382 397 382 c 0
 512 382 514 383 521 399 c 0
 535 431 542 484 553 494 c 0
 556 496 567 500 578 500 c 0
 591 500 605 495 604 480 c 0
 604 474 605 479 542 229 c 0
 537 208 526 207 515 207 c 2
 509 207 l 2
 489 207 483 213 483 225 c 0
 483 242 494 272 501 320 c 1
 474 323 447 324 419 324 c 2
 317 324 l 1
 251 59 l 1
 410 59 l 2
 590 59 586 68 598 89 c 0
 620 128 661 226 676 263 c 0
 685 285 691 286 709 286 c 2
 711 286 l 2
 724 286 737 285 737 270 c 0
 737 260 739 266 637 20 c 0
 630 4 625 0 608 -0 c 2
 101 -0 l 2
 90 0 79 4 79 18 c 0
EndSplineSet
EndChar

StartChar: F
Encoding: 70 70 79
Width: 697
Flags: HW
TeX: 688 0
ItalicCorrection: 129
HStem: -0 59<82.6438 178 251 353.507> 311 59<329 491.734> 622 59<238.457 318 392 695.857>
VStem: 696 71<479.122 668>
DStem2: 163.246 -0 236.246 -0 0.242599 0.970127<78.5266 338.282 399.159 640.962>
CounterMasks: 1 e0
AnchorPoint: "below" 351 0 basechar 0
AnchorPoint: "above" 525 695 basechar 0
LayerCount: 2
Fore
SplineSet
79 18 m 0
 79 22 82 48 93 55 c 0
 97 58 103 59 108 59 c 2
 178 59 l 1
 318 622 l 1
 257 622 l 2
 240 622 235 630 235 640 c 0
 235 645 236 649 237 654 c 0
 241 671 244 681 265 681 c 2
 743 681 l 2
 759 681 767 676 767 660 c 0
 767 653 751 524 742 455 c 0
 739 428 730 428 709 428 c 2
 708 428 l 2
 687 428 682 436 682 448 c 0
 682 463 696 557 696 594 c 0
 696 620 695 622 551 622 c 2
 392 622 l 1
 329 370 l 1
 424 370 l 2
 513 370 510 371 520 405 c 0
 543 481 531 487 568 487 c 0
 589 487 596 480 596 470 c 0
 596 465 596 468 533 216 c 0
 528 195 518 195 507 195 c 2
 501 195 l 2
 481 195 474 200 474 212 c 0
 474 229 486 259 493 308 c 1
 466 311 439 311 412 311 c 2
 314 311 l 1
 251 59 l 1
 334 59 l 2
 345 59 357 55 357 41 c 1
 357 41 355 7 339 2 c 0
 335 1 330 0 326 -0 c 2
 106 -0 l 2
 93 0 79 2 79 18 c 0
EndSplineSet
EndChar

StartChar: G
Encoding: 71 71 80
Width: 832
Flags: HW
TeX: 688 0
ItalicCorrection: 83
HStem: -11 58<338.054 579.313> 233 58<559.798 675 744.182 823.44> 429 266<586 763> 636 59<477.495 679.68>
VStem: 151 76<146.798 372.571> 742 60<429.009 474.392>
AnchorPoint: "below" 424 0 basechar 0
AnchorPoint: "above" 585 695 basechar 0
LayerCount: 2
Fore
SplineSet
151 236 m 0
 151 436 305 695 586 695 c 0
 702 695 750 627 768 602 c 1
 831 695 838 694 847 694 c 0
 852 694 860 692 860 683 c 0
 860 678 803 452 802 447 c 0
 797 430 792 429 779 429 c 2xec
 763 429 l 2xec
 746 429 742 432 742 444 c 0
 742 451 743 462 743 475 c 0
 743 561 697 636 602 636 c 0xdc
 340 636 227 405 227 243 c 0
 227 93 339 47 456 47 c 0
 652 47 648 128 656 158 c 0
 662 183 669 208 675 233 c 1
 579 233 l 2
 567 233 556 236 556 250 c 0
 556 257 561 284 573 289 c 0
 577 291 580 291 584 291 c 2
 801 291 l 2
 815 291 827 289 827 273 c 0
 827 272 824 245 814 237 c 0
 808 232 799 233 792 233 c 2
 749 233 l 1
 696 21 695 3 684 3 c 0
 677 3 668 13 654 47 c 1
 618 21 552 -11 421 -11 c 0
 250 -11 151 80 151 236 c 0
EndSplineSet
EndChar

StartChar: H
Encoding: 72 72 81
Width: 789
Flags: HW
TeX: 688 0
ItalicCorrection: 148
HStem: -0 59<82.8365 178 251 330.96 471.625 566 639 718.96> 326 59<333 632> 625 58<238.937 319 392 486.375 626.84 707 781 875.234>
DStem2: 163.246 -0 236.246 -0 0.242599 0.970127<78.5266 353.805 414.681 644.115> 551.246 -0 624.246 -0 0.242599 0.970127<78.5266 335.852 396.729 644.115>
AnchorPoint: "below" 393 0 basechar 0
AnchorPoint: "above" 567 695 basechar 0
LayerCount: 2
Fore
SplineSet
79 18 m 0
 79 22 83 49 94 55 c 0
 101 59 111 59 121 59 c 2
 178 59 l 1
 319 625 l 1
 263 625 l 2
 248 625 236 626 236 644 c 0
 236 658 243 676 250 680 c 0
 255 683 261 684 267 684 c 0
 269 684 271 683 273 683 c 2
 466 683 l 2
 485 683 490 676 490 666 c 0
 490 661 489 655 487 649 c 0
 482 627 473 625 460 625 c 2
 392 625 l 1
 333 385 l 1
 647 385 l 1
 707 625 l 1
 652 625 l 2
 637 625 624 626 624 644 c 0
 624 658 631 676 638 680 c 0
 643 683 649 684 655 684 c 0
 657 684 659 683 661 683 c 2
 855 683 l 2
 867 683 879 681 879 666 c 0
 879 662 875 634 864 628 c 0
 857 624 847 625 837 625 c 2
 781 625 l 1
 639 59 l 1
 695 59 l 2
 711 59 722 58 722 40 c 0
 722 26 715 7 708 3 c 0
 703 0 697 0 691 -0 c 2
 492 -0 l 2
 473 0 468 7 468 17 c 0
 468 22 469 29 471 35 c 0
 476 57 486 59 499 59 c 2
 566 59 l 1
 632 326 l 1
 318 326 l 1
 251 59 l 1
 307 59 l 2
 323 59 334 58 334 40 c 0
 334 26 327 7 320 3 c 0
 315 0 309 0 303 -0 c 2
 104 -0 l 2
 91 0 79 3 79 18 c 0
EndSplineSet
EndChar

StartChar: I
Encoding: 73 73 82
Width: 400
Flags: HW
TeX: 688 0
ItalicCorrection: 156
HStem: -0 59<78.0795 177 250 334.623> 625 58<233.854 318 392 490.601>
DStem2: 162.246 -0 235.246 -0 0.242599 0.970127<78.5266 644.115>
AnchorPoint: "ogonek" 199 0 basechar 0
AnchorPoint: "below" 198 0 basechar 0
AnchorPoint: "above" 372 695 basechar 0
LayerCount: 2
Fore
SplineSet
74 18 m 0
 74 22 78 48 89 55 c 0
 93 58 98 59 103 59 c 2
 177 59 l 1
 318 625 l 1
 252 625 l 2
 239 625 231 632 231 643 c 0
 231 644 232 677 249 682 c 0
 253 683 257 683 261 683 c 2
 474 683 l 1
 487 682 494 677 494 666 c 0
 494 662 491 635 480 628 c 0
 476 625 471 625 466 625 c 2
 392 625 l 1
 250 59 l 1
 317 59 l 2
 330 59 338 52 338 41 c 0
 338 39 336 6 319 1 c 0
 315 0 311 0 307 -0 c 2
 101 -0 l 2
 88 0 74 2 74 18 c 0
EndSplineSet
EndChar

StartChar: J
Encoding: 74 74 83
Width: 558
Flags: HW
TeX: 688 0
ItalicCorrection: 126
HStem: -11 59<192.687 326.952> 625 58<392.493 499 564.554 643.553>
VStem: 119 87<80.8555 144.346>
DStem2: 340.236 -11 411.238 -11 0.242599 0.970127<90.3035 655.516>
AnchorPoint: "below" 287 0 basechar 0
AnchorPoint: "above" 552 695 basechar 0
LayerCount: 2
Fore
SplineSet
119 92 m 0
 119 140 150 155 170 155 c 0
 190 155 206 141 206 121 c 0
 206 102 195 89 183 80 c 1
 194 66 212 48 257 48 c 0
 369 48 385 169 389 184 c 2
 499 625 l 1
 412 625 l 2
 400 625 389 629 389 643 c 0
 389 650 394 676 405 681 c 0
 410 683 416 683 421 683 c 2
 614 683 l 2
 617 683 619 684 622 684 c 0
 634 684 646 681 646 666 c 0
 646 627 624 625 613 625 c 2
 570 625 l 1
 566 608 561 590 557 573 c 2
 455 164 l 2
 445 122 433 80 389 40 c 0
 348 3 297 -11 252 -11 c 0
 176 -11 119 30 119 92 c 0
EndSplineSet
EndChar

StartChar: K
Encoding: 75 75 84
Width: 817
Flags: HW
TeX: 688 0
ItalicCorrection: 143
HStem: -0 59<85.0397 180 250 329.407 548.58 609 683 755.387> 625 58<241.016 321 391 485.375 674.016 721 773.731 892.762>
DStem2: 165.246 -0 235.246 -0 0.242599 0.970127<77.7988 273.36 328.095 644.115> 310 302 312 240 0.785774 0.618514<0 163.453 233.1 522.115> 524 407 470 363 0.415574 -0.909559<17.5796 351.85>
AnchorPoint: "below" 413 0 basechar 0
AnchorPoint: "above" 587 695 basechar 0
LayerCount: 2
Fore
SplineSet
81 18 m 0
 81 22 85 49 96 55 c 0
 100 57 105 59 110 59 c 2
 180 59 l 1
 321 625 l 1
 268 625 l 2
 250 625 238 625 238 644 c 0
 238 658 245 676 252 680 c 0
 257 683 263 684 269 684 c 0
 271 684 273 683 275 683 c 2
 465 683 l 2
 484 683 489 676 489 666 c 0
 489 661 488 655 486 649 c 0
 481 627 471 625 458 625 c 2
 391 625 l 1
 310 302 l 1
 721 624 l 1
 721 625 l 1
 696 625 l 2
 686 625 670 625 670 643 c 0
 670 650 676 673 683 679 c 0
 689 684 696 683 703 683 c 2
 874 683 l 2
 875 683 876 684 877 684 c 0
 890 684 901 681 901 666 c 0
 901 660 896 639 893 634 c 0
 888 626 878 625 869 625 c 2
 823 625 l 2
 795 625 800 624 763 595 c 2
 524 407 l 1
 683 59 l 1
 733 59 l 2
 745 59 759 58 759 41 c 0
 759 35 755 7 742 2 c 0
 737 0 732 0 727 -0 c 2
 569 -0 l 2
 549 0 545 7 545 17 c 0
 545 22 546 29 548 35 c 0
 554 58 563 59 578 59 c 2
 609 59 l 1
 470 363 l 1
 312 240 l 2
 286 219 295 240 250 59 c 1
 305 59 l 2
 321 59 333 58 333 40 c 0
 333 26 325 7 318 3 c 0
 313 0 308 0 302 -0 c 2
 106 -0 l 2
 94 0 81 2 81 18 c 0
EndSplineSet
EndChar

StartChar: L
Encoding: 76 76 85
Width: 669
Flags: HW
TeX: 688 0
HStem: 0 59<82.7514 178 251 531.976> 625 58<238.854 319 392 509.125>
DStem2: 163.246 0 236.246 0 0.242599 0.970127<78.5266 644.115>
AnchorPoint: "below" 337 0 basechar 0
AnchorPoint: "above" 511 695 basechar 0
LayerCount: 2
Fore
SplineSet
79 18 m 0
 79 22 83 50 94 56 c 0
 98 58 103 59 108 59 c 2
 178 59 l 1
 319 625 l 1
 260 625 l 2
 249 625 236 627 236 643 c 0
 236 644 237 677 254 682 c 0
 258 683 263 683 267 683 c 2
 475 683 l 2
 479 683 482 684 486 684 c 0
 500 684 513 682 513 666 c 0
 513 659 508 634 497 628 c 0
 492 626 487 625 482 625 c 2
 392 625 l 1
 251 59 l 1
 380 59 l 2
 426 59 507 59 527 75 c 0
 539 85 561 135 607 263 c 0
 615 285 622 286 643 286 c 0
 654 286 668 285 668 269 c 0
 668 260 669 266 594 58 c 0
 575 6 577 0 551 0 c 2
 101 0 l 2
 90 0 79 4 79 18 c 0
EndSplineSet
EndChar

StartChar: M
Encoding: 77 77 86
Width: 956
Flags: HW
TeX: 688 0
ItalicCorrection: 148
HStem: -0 59<87.6521 183 242 321.743 642.356 738 800 879.649> 625 58<244.496 324 941 1035.87>
DStem2: 168.246 -2.39043e-13 227.246 -2.39043e-13 0.242599 0.970127<75.1302 634.66> 430 649 378 602 0.114624 -0.993409<40.7298 572.815> 496 80 518 28 0.524179 0.851608<0 648.313> 723.246 -2.39043e-13 785.246 -2.39043e-13 0.242599 0.970127<75.858 626.652>
AnchorPoint: "below" 476 0 basechar 0
AnchorPoint: "above" 650 695 basechar 0
LayerCount: 2
Fore
SplineSet
84 18 m 0
 84 22 87 48 98 55 c 0
 105 60 115 59 126 59 c 2
 183 59 l 1
 324 625 l 1
 267 625 l 2
 246 625 241 632 241 642 c 0
 241 647 242 653 244 660 c 0
 247 673 250 683 271 683 c 2
 390 683 l 2
 393 683 397 684 400 684 c 0
 428 684 428 669 430 649 c 2
 490 133 l 2
 492 115 493 98 496 80 c 1
 841 640 l 2
 864 676 867 684 895 684 c 0
 899 684 903 683 907 683 c 2
 1018 683 l 2
 1029 683 1040 680 1040 666 c 0
 1040 660 1035 634 1024 628 c 0
 1020 626 1015 625 1010 625 c 2
 941 625 l 1
 800 59 l 1
 859 59 l 2
 870 59 883 57 883 41 c 0
 883 35 880 7 865 2 c 0
 861 1 856 0 851 -0 c 2
 668 -0 l 2
 650 0 640 3 640 19 c 0
 640 56 661 59 674 59 c 2
 738 59 l 1
 875 608 l 1
 863 587 850 567 837 546 c 2
 518 28 l 2
 504 5 496 0 473 0 c 2
 472 0 l 2
 449 0 446 10 444 30 c 2
 385 538 l 2
 383 559 380 581 378 602 c 1
 377 602 l 1
 242 59 l 1
 300 59 l 2
 311 59 325 57 325 41 c 0
 325 35 322 7 307 2 c 0
 303 1 298 0 293 -0 c 2
 117 -0 l 2
 99 0 84 1 84 18 c 0
EndSplineSet
EndChar

StartChar: N
Encoding: 78 78 87
Width: 789
Flags: HW
TeX: 688 0
ItalicCorrection: 148
HStem: -0 59<84.6521 180 239 318.417> 625 58<241.496 321 640.134 720 779 873.646>
DStem2: 165.246 -0 224.246 -0 0.242599 0.970127<75.1302 601.918> 409 652 367 570 0.340233 -0.940341<62.8182 552.001> 563.741 -0 623.248 -0 0.242599 0.970127<137.096 644.237>
AnchorPoint: "below" 393 0 basechar 0
AnchorPoint: "above" 567 695 basechar 0
LayerCount: 2
Fore
SplineSet
81 18 m 0
 81 22 84 48 95 55 c 0
 102 60 112 59 123 59 c 2
 180 59 l 1
 321 625 l 1
 264 625 l 2
 243 625 238 632 238 642 c 0
 238 647 239 653 241 660 c 0
 244 672 246 683 267 683 c 2
 367 683 l 2
 370 683 374 684 377 684 c 0
 401 684 402 672 409 652 c 2
 579 182 l 1
 597 133 l 1
 720 625 l 1
 661 625 l 2
 650 625 637 627 637 643 c 0
 637 648 640 677 655 682 c 0
 659 683 664 684 669 684 c 0
 672 684 676 683 679 683 c 2
 857 683 l 2
 871 683 877 677 877 666 c 0
 877 662 874 635 863 628 c 0
 856 623 847 625 836 625 c 2
 779 625 l 1
 764 563 l 1
 629 23 l 2
 624 5 619 0 599 -0 c 2
 596 -0 l 2
 579 0 573 2 566 20 c 2
 387 513 l 2
 380 532 373 551 367 570 c 1
 239 59 l 1
 297 59 l 2
 308 59 322 57 322 41 c 0
 322 35 318 6 304 2 c 0
 300 1 295 0 290 -0 c 2
 114 -0 l 2
 96 0 81 1 81 18 c 0
EndSplineSet
EndChar

StartChar: O
Encoding: 79 79 88
Width: 828
Flags: HW
TeX: 688 0
ItalicCorrection: 91
HStem: -11 63<326.762 538.685> 633 62<458.303 678.281>
VStem: 150 79<148.187 362.417> 772 73<322.497 541.181>
AnchorPoint: "ogonek" 412 0 basechar 0
AnchorPoint: "below" 412 0 basechar 0
AnchorPoint: "above" 587 695 basechar 0
LayerCount: 2
Fore
SplineSet
150 231 m 0
 150 422 297 695 587 695 c 0
 696 695 845 646 845 450 c 0
 845 350 804 214 712 118 c 0
 627 29 516 -11 409 -11 c 0
 299 -11 150 37 150 231 c 0
229 247 m 0
 229 91 340 52 426 52 c 0
 666 52 772 301 772 448 c 0
 772 596 660 633 571 633 c 0
 319 633 229 392 229 247 c 0
EndSplineSet
EndChar

StartChar: P
Encoding: 80 80 89
Width: 725
Flags: HW
TeX: 688 0
ItalicCorrection: 100
HStem: -0 59<83.8442 179 252 331.96> 283 59<320 591.876> 625 58<239.695 320 391 651.569>
VStem: 694 76<440.202 586.825>
DStem2: 164.246 -0 237.246 -0 0.242599 0.970127<78.5266 309.42 369.569 644.115>
AnchorPoint: "below" 336 0 basechar 0
AnchorPoint: "above" 509 695 basechar 0
LayerCount: 2
Fore
SplineSet
80 18 m 0
 80 22 84 49 95 55 c 0
 102 59 112 59 122 59 c 2
 179 59 l 1
 320 625 l 1
 258 625 l 2
 246 625 237 630 237 643 c 0
 237 647 239 673 250 680 c 0
 255 683 261 683 266 683 c 2
 544 683 l 2
 552 683 560 684 568 684 c 2
 579 684 l 2
 661 684 770 653 770 533 c 0
 770 454 712 283 463 283 c 2
 308 283 l 1
 252 59 l 1
 308 59 l 2
 324 59 335 58 335 40 c 0
 335 26 328 7 321 3 c 0
 316 0 310 0 304 -0 c 2
 104 -0 l 2
 91 0 80 3 80 18 c 0
320 342 m 1
 465 342 l 2
 531 342 593 350 640 396 c 0
 686 441 694 498 694 524 c 0
 694 617 607 625 531 625 c 2
 391 625 l 1
 320 342 l 1
EndSplineSet
EndChar

StartChar: Q
Encoding: 81 81 90
Width: 828
Flags: HW
TeX: 688 194
ItalicCorrection: 91
HStem: -194 75<556.397 649.933> -11 61<395.441 495.923> 107 59<398.538 487.358> 633 62<457.919 673.719>
VStem: 150 74<143.171 362.529> 497 43<-105.022 -2> 716 34<-47.3659 12.8521> 772 73<313.806 539.502>
AnchorPoint: "below" 363 -194 basechar 0
AnchorPoint: "above" 587 695 basechar 0
LayerCount: 2
Fore
SplineSet
150 231 m 0
 150 437 309 695 587 695 c 0
 697 695 845 646 845 450 c 0
 845 267 727 66 540 10 c 1
 540 -4 l 2
 540 -60 542 -119 598 -119 c 0
 645 -119 693 -77 716 -13 c 0
 719 -3 722 10 732 13 c 0
 739 15 750 11 750 -1 c 0
 750 -22 699 -194 583 -194 c 0
 497 -194 497 -111 497 -72 c 0
 497 -49 498 -25 500 -2 c 1
 473 -7 446 -11 410 -11 c 0
 253 -11 150 75 150 231 c 0
224 241 m 0
 224 134 277 89 331 66 c 1
 340 134 404 166 451 166 c 0
 516 166 533 117 538 70 c 1
 733 141 772 365 772 441 c 0
 772 595 660 632 574 633 c 1
 573 633 l 2
 325 633 224 389 224 241 c 0
392 70 m 0
 392 50 414 50 425 50 c 2
 426 50 l 2
 452 50 474 54 497 58 c 1
 494 75 487 107 445 107 c 0
 412 107 392 86 392 70 c 0
EndSplineSet
EndChar

StartChar: R
Encoding: 82 82 91
Width: 781
Flags: HW
TeX: 688 0
ItalicCorrection: 30
HStem: -11 59<625.84 699.673> -0 59<83.8365 179 249 329.759> 313 58<328 537.673> 625 58<239.989 320 391 634.989>
VStem: 544 76<52.8316 193.912> 573 72<137.135 281.222> 682 77<457.427 584.095>
DStem2: 161.495 -11 231.495 -11 0.242599 0.970127<89.1375 351.076 410.982 655.454>
AnchorPoint: "below" 336 0 basechar 0
AnchorPoint: "above" 509 695 basechar 0
LayerCount: 2
Fore
SplineSet
80 18 m 0
 80 22 84 49 95 55 c 0
 102 59 112 59 122 59 c 2
 179 59 l 1
 320 625 l 1
 264 625 l 2
 251 625 237 626 237 643 c 1
 237 643 238 675 253 681 c 0
 258 683 263 683 268 683 c 2
 502 683 l 2
 509 683 515 684 522 684 c 0
 563 684 599 682 635 673 c 0
 754 642 759 559 759 536 c 0
 759 466 711 384 590 336 c 1
 621 315 645 283 645 237 c 0x76
 645 201 620 126 620 94 c 0
 620 57 645 48 662 48 c 0
 704 48 714 101 725 108 c 0
 728 110 738 113 748 113 c 0
 761 113 775 109 775 95 c 0
 775 74 735 -11 655 -11 c 0
 612 -11 544 9 544 89 c 0xba
 544 131 573 204 573 235 c 0
 573 266 547 313 437 313 c 2
 313 313 l 1
 249 59 l 1
 305 59 l 2x76
 321 59 332 58 332 40 c 0
 332 3 312 0 300 -0 c 2
 106 -0 l 2
 95 0 80 1 80 18 c 0
328 371 m 1
 459 371 l 2x32
 632 371 682 465 682 527 c 0
 682 585 637 611 584 620 c 0
 559 624 535 625 510 625 c 2
 391 625 l 1
 328 371 l 1
EndSplineSet
EndChar

StartChar: S
Encoding: 83 83 92
Width: 606
Flags: HW
TeX: 688 0
ItalicCorrection: 115
HStem: -11 59<242.408 420.269> 639 56<350.806 511.921>
VStem: 81 106<-3.5 191.288> 203 70<436.401 560.159> 507 69<139.095 273.304> 554 61<456.047 510.114> 557 109<490.712 688>
AnchorPoint: "below" 329 0 basechar 0
AnchorPoint: "above" 446 695 basechar 0
LayerCount: 2
Fore
SplineSet
81 1 m 0
 81 5 81 4 132 208 c 0
 137 227 143 227 156 227 c 2
 159 227 l 2
 163 227 166 228 170 228 c 0
 182 228 192 226 192 215 c 0
 192 206 187 194 187 168 c 0
 187 71 274 48 336 48 c 0
 455 48 507 150 507 211 c 0xf8
 507 261 475 286 459 295 c 0
 436 307 320 332 291 344 c 0
 258 357 203 396 203 474 c 0
 203 565 285 695 446 695 c 0
 534 695 573 654 593 621 c 1
 594 621 l 1
 629 674 637 688 644 692 c 0
 653 697 666 694 666 682 c 0xf2
 666 678 666 680 615 477 c 0
 610 457 605 456 589 456 c 2xf4
 574 456 l 2
 558 456 554 460 554 470 c 0xf4
 554 479 557 492 557 511 c 0xf2
 557 586 521 639 436 639 c 0
 327 639 273 552 273 494 c 0
 273 396 389 404 482 370 c 0
 536 350 576 301 576 230 c 0
 576 139 499 -11 326 -11 c 0
 254 -11 191 10 153 62 c 1
 152 62 l 1
 107 -11 104 -11 94 -11 c 0
 88 -11 81 -8 81 1 c 0
EndSplineSet
EndChar

StartChar: T
Encoding: 84 84 93
Width: 772
Flags: HW
TeX: 688 0
ItalicCorrection: 129
HStem: 0 59<231.983 363 437 552.908> 619 59<287.814 503 577 781.593>
VStem: 762 60<425.359 585.092>
DStem2: 348.246 0 422.246 0 0.242599 0.970127<78.7691 638.052>
AnchorPoint: "below" 384 0 basechar 0
AnchorPoint: "above" 558 695 basechar 0
LayerCount: 2
Fore
SplineSet
171 442 m 0
 171 451 171 445 241 653 c 0
 247 671 253 678 270 678 c 2
 833 678 l 2
 844 678 855 674 855 659 c 0
 855 649 855 658 822 453 c 0
 818 426 813 425 787 425 c 0
 768 425 762 431 762 444 c 0
 762 461 780 545 783 612 c 1
 753 619 722 619 687 619 c 2
 577 619 l 1
 437 59 l 1
 533 59 l 2
 545 59 557 55 557 41 c 0
 557 35 552 7 539 2 c 0
 535 0 531 0 526 0 c 2
 255 0 l 2
 239 0 228 4 228 18 c 0
 228 23 232 50 245 56 c 0
 250 58 255 59 260 59 c 2
 363 59 l 1
 503 619 l 1
 421 619 l 1
 300 618 296 616 284 590 c 0
 222 443 241 425 202 425 c 2
 197 425 l 2
 187 425 171 426 171 442 c 0
EndSplineSet
EndChar

StartChar: U
Encoding: 85 85 94
Width: 789
Flags: HW
TeX: 688 0
ItalicCorrection: 148
HStem: -11 58<324.307 498.757> 625 58<238.333 318 392 486.375 640.611 721 780 874.663>
VStem: 211 72<87.93 272.945>
DStem2: 159.231 -11 233.481 -11 0.242599 0.970127<196.631 655.518> 561.732 -11 620.982 -11 0.242599 0.970127<142.037 655.639>
AnchorPoint: "ogonek" 401 0 basechar 0
AnchorPoint: "below" 401 0 basechar 0
AnchorPoint: "above" 566 695 basechar 0
LayerCount: 2
Fore
SplineSet
211 160 m 0
 211 198 219 228 226 256 c 2
 318 625 l 1
 265 625 l 2
 247 625 235 625 235 644 c 0
 235 658 243 676 250 680 c 0
 255 683 260 684 266 684 c 0
 268 684 270 683 272 683 c 2
 466 683 l 2
 485 683 490 676 490 666 c 0
 490 661 489 655 487 649 c 0
 482 627 472 625 459 625 c 2
 392 625 l 1
 303 267 l 2
 294 231 283 196 283 159 c 0
 283 70 348 47 406 47 c 0
 475 47 568 80 613 201 c 0
 619 217 623 233 627 250 c 2
 721 625 l 1
 662 625 l 2
 651 625 637 627 637 643 c 0
 637 648 641 677 656 682 c 0
 660 683 664 684 669 684 c 0
 672 684 676 683 679 683 c 2
 810 683 l 2
 820 683 829 684 839 684 c 2
 843 684 l 2
 863 684 878 683 878 666 c 0
 878 662 875 635 864 628 c 0
 857 623 848 625 837 625 c 2
 780 625 l 1
 686 249 l 2
 680 227 675 205 667 183 c 0
 627 79 533 -11 398 -11 c 0
 291 -11 211 46 211 160 c 0
EndSplineSet
EndChar

StartChar: V
Encoding: 86 86 95
Width: 789
Flags: HW
TeX: 688 0
ItalicCorrection: 184
HStem: -8 21G<375 405.5> 625 58<209.602 285.376 358 435.083 690.911 754 803.148 897.717>
DStem2: 358 625 283 625 0.121607 -0.992578<0 536.827> 423 92 440 19 0.527763 0.849392<0 627.415>
AnchorPoint: "below" 393 0 basechar 0
AnchorPoint: "above" 567 695 basechar 0
LayerCount: 2
Fore
SplineSet
206 642 m 0
 206 647 210 674 221 680 c 0
 226 683 232 683 238 683 c 2
 412 683 l 2
 413 683 414 684 415 684 c 0
 434 684 439 676 439 666 c 0
 439 661 437 656 436 650 c 0
 430 626 423 625 407 625 c 2
 358 625 l 1
 422 92 l 1
 423 92 l 1
 754 625 l 1
 714 625 l 2
 700 625 688 625 688 644 c 0
 688 658 695 677 703 681 c 0
 708 683 714 683 719 683 c 2
 882 683 l 2
 893 683 908 683 908 666 c 0
 908 660 903 638 898 632 c 0
 892 625 883 625 874 625 c 2
 834 625 l 2
 817 625 817 625 801 600 c 2
 440 19 l 2
 425 -5 417 -8 394 -8 c 2
 387 -8 l 2
 363 -8 360 0 357 21 c 2
 291 563 l 2
 288 584 285 604 283 625 c 1
 231 625 l 2
 220 625 206 625 206 642 c 0
EndSplineSet
EndChar

StartChar: W
Encoding: 87 87 96
Width: 1067
Flags: HW
TeX: 688 0
ItalicCorrection: 184
HStem: -8 21G<322.5 357 704.5 737.5> 625 58<207.784 274 343 424.052 591.376 658 727 807.434 968.921 1044 1102 1184.42>
VStem: 274 69<563 625>
DStem2: 343 625 277 563 0.0555726 -0.998455<0 525.745> 371 100 430 106 0.484023 0.875056<1.90699 526.724> 727 625 662 543 0.0562216 -0.998418<78.2159 525.688> 755 100 766 20 0.48552 0.874225<0 599.284>
AnchorPoint: "below" 531 0 basechar 0
AnchorPoint: "above" 705 695 basechar 0
LayerCount: 2
Fore
SplineSet
204 643 m 0
 204 647 208 674 219 680 c 0
 224 683 229 683 235 683 c 2
 402 683 l 2
 403 683 403 684 404 684 c 0
 422 684 428 676 428 666 c 0
 428 661 426 656 425 650 c 0
 419 627 411 625 397 625 c 2
 343 625 l 1
 361 298 l 1
 371 100 l 1
 377 113 385 127 442 231 c 2
 645 598 l 2
 650 607 655 615 658 625 c 1
 616 625 l 2
 599 625 588 625 588 644 c 0
 588 658 596 676 603 680 c 0
 608 683 613 683 619 683 c 2
 785 683 l 2
 786 683 787 684 788 684 c 0
 806 684 811 676 811 666 c 0
 811 661 810 655 808 649 c 0
 802 626 795 625 780 625 c 2
 727 625 l 1
 750 190 l 1
 754 100 l 1
 755 100 l 1
 1044 625 l 1
 990 625 l 2
 979 625 965 626 965 642 c 0
 965 646 969 674 980 680 c 0
 985 683 991 683 997 683 c 2
 1162 683 l 2
 1172 683 1187 683 1187 666 c 0
 1187 626 1164 625 1150 625 c 2
 1102 625 l 1
 766 20 l 2
 755 1 750 -8 725 -8 c 2
 720 -8 l 2
 689 -8 692 6 691 28 c 2
 662 543 l 1
 647 508 631 473 577 374 c 2
 430 106 l 2
 370 -3 373 -8 341 -8 c 2
 336 -8 l 2
 309 -8 308 2 307 24 c 2
 277 563 l 1
 274 624 l 1
 274 625 l 1
 229 625 l 2
 219 625 204 626 204 643 c 0
EndSplineSet
EndChar

StartChar: X
Encoding: 88 88 97
Width: 789
Flags: HW
TeX: 688 0
ItalicCorrection: 156
HStem: -0 59<60.166 179.995 232 281.638 512.625 573 645.391 740.406> 625 58<230.384 316 398 458.655 634.375 684 735.059 848.668>
DStem2: 180 79 232 59 0.67828 0.734803<20.5745 357.397 460.722 743.056> 398 625 316 625 0.413439 -0.910532<0 227.343 316.506 587.713>
AnchorPoint: "below" 393 0 basechar 0
AnchorPoint: "above" 567 695 basechar 0
LayerCount: 2
Fore
SplineSet
56 18 m 0
 56 28 63 48 68 53 c 0
 75 60 86 59 95 59 c 2
 139 59 l 2
 160 59 162 59 180 79 c 2
 437 357 l 1
 316 625 l 1
 249 625 l 2
 239 625 227 629 227 643 c 0
 227 649 231 676 244 681 c 0
 249 683 254 683 259 683 c 2
 438 683 l 2
 457 683 462 676 462 666 c 0
 462 661 461 654 459 648 c 0
 453 625 443 625 428 625 c 2
 398 625 l 1
 492 418 l 1
 684 625 l 1
 655 625 l 2
 635 625 631 632 631 642 c 0
 631 648 632 653 634 660 c 0
 638 676 642 683 662 683 c 2
 829 683 l 2
 830 683 832 684 833 684 c 0
 849 684 859 680 859 666 c 0
 859 659 855 637 849 631 c 0
 842 624 830 625 821 625 c 2
 773 625 l 2
 754 625 754 624 731 599 c 2
 529 380 l 2
 522 372 519 368 519 363 c 0
 519 358 522 352 526 344 c 2
 640 93 l 2
 645 81 650 71 655 59 c 1
 723 59 l 2
 736 59 744 52 744 41 c 1
 744 41 742 9 727 2 c 0
 722 0 717 0 712 -0 c 2
 533 -0 l 2
 514 0 509 7 509 17 c 0
 509 23 510 29 512 35 c 0
 518 58 528 59 543 59 c 2
 573 59 l 1
 461 306 l 1
 232 59 l 1
 259 59 l 2
 280 59 285 52 285 42 c 0
 285 37 284 32 283 26 c 0
 277 4 274 0 252 -0 c 2
 80 -0 l 2
 67 0 56 3 56 18 c 0
EndSplineSet
EndChar

StartChar: Y
Encoding: 89 89 98
Width: 789
Flags: HW
TeX: 688 0
ItalicCorrection: 195
HStem: -0 59<278.625 377.519 443 523.936> 625 58<204.442 288 371 434.655 693.115 741 791.984 890 891 901.716>
VStem: 373 70<59 140.308>
DStem2: 371 625 288 625 0.368998 -0.92943<0 308.443> 484 338 511 289 0.666444 0.745555<0 385.25>
AnchorPoint: "below" 393 0 basechar 0
AnchorPoint: "above" 567 695 basechar 0
LayerCount: 2
Fore
SplineSet
201 643 m 1
 201 643 203 675 218 681 c 0
 222 683 227 683 232 683 c 2
 414 683 l 2
 433 683 438 676 438 666 c 0
 438 660 437 654 435 648 c 0
 429 625 420 625 406 625 c 2
 371 625 l 1
 484 338 l 1
 741 625 l 1
 715 625 l 2
 695 625 689 631 689 641 c 0
 689 646 690 652 692 658 c 0
 698 680 702 683 721 683 c 2
 890 683 l 1
 891 684 l 1
 902 684 913 680 913 666 c 0
 913 656 907 636 902 631 c 0
 896 624 886 625 878 625 c 2
 828 625 l 2
 812 625 811 625 789 600 c 2
 511 289 l 2
 484 259 498 263 443 59 c 1
 500 59 l 2
 516 59 527 58 527 40 c 0
 527 26 520 7 512 3 c 0
 507 0 502 0 496 -0 c 2
 299 -0 l 2
 280 0 275 7 275 17 c 0
 275 22 276 29 278 35 c 0
 283 57 293 59 306 59 c 2
 373 59 l 1
 387 122 425 259 425 271 c 0
 425 276 424 281 421 290 c 2
 288 625 l 1
 228 625 l 2
 214 625 201 626 201 643 c 1
EndSplineSet
EndChar

StartChar: Z
Encoding: 90 90 99
Width: 661
Flags: HW
TeX: 688 0
ItalicCorrection: 143
HStem: -0 61<193 521.107> 625 58<327.335 638>
DStem2: 106 62 193 61 0.686813 0.726834<59.0259 774.592>
AnchorPoint: "below" 332 0 basechar 0
AnchorPoint: "above" 505 695 basechar 0
LayerCount: 2
Fore
SplineSet
84 15 m 0
 84 43 106 62 106 62 c 1
 638 625 l 1
 501 625 l 2
 326 625 327 617 304 564 c 0
 253 443 278 430 232 430 c 0
 212 430 206 436 206 446 c 0
 206 447 266 669 279 679 c 0
 284 682 290 683 295 683 c 2
 728 683 l 2
 737 683 745 681 745 669 c 0
 745 641 718 618 717 617 c 2
 193 61 l 1
 337 61 l 2
 508 61 516 70 529 95 c 0
 556 148 582 242 594 276 c 0
 600 294 609 295 622 295 c 0
 637 295 653 294 653 278 c 0
 653 271 650 263 647 254 c 0
 570 8 575 0 551 -0 c 2
 105 -0 l 2
 95 0 84 1 84 15 c 0
EndSplineSet
EndChar

StartChar: bracketleft
Encoding: 91 91 100
Width: 328
Flags: HW
TeX: 750 250
ItalicCorrection: 187
HStem: -250 59<148 223.513> 691 59<368 458.59>
VStem: 73 154<-245.754 -191.211>
DStem2: 67.9955 -250 133.246 -250 0.242599 0.970127<76.6465 985.67>
LayerCount: 2
Fore
SplineSet
73 -232 m 0
 73 -225 80 -201 84 -186 c 2
 312 727 l 2
 316 741 320 750 338 750 c 2
 442 750 l 2
 452 750 462 746 462 732 c 0
 462 728 459 701 448 695 c 0
 443 692 438 691 433 691 c 2
 368 691 l 1
 148 -191 l 1
 202 -191 l 2
 215 -191 227 -194 227 -209 c 0
 227 -220 221 -241 214 -246 c 0
 209 -249 204 -250 198 -250 c 2
 98 -250 l 2
 83 -250 73 -246 73 -232 c 0
EndSplineSet
EndChar

StartChar: backslash
Encoding: 92 92 101
Width: 550
Flags: HW
TeX: 750 250
VStem: 353 60<-247.523 -137.28>
DStem2: 412 -206 262 705 0.100259 -0.994961<-934.296 11.8532>
LayerCount: 2
Fore
SplineSet
261 718 m 0
 261 743 280 749 289 749 c 0
 319 749 319 713 320 707 c 2
 412 -206 l 2
 412 -210 413 -214 413 -218 c 0
 413 -240 396 -249 384 -249 c 0
 354 -249 354 -215 353 -207 c 2
 262 705 l 2
 262 709 261 714 261 718 c 0
EndSplineSet
EndChar

StartChar: bracketright
Encoding: 93 93 102
Width: 328
Flags: HW
TeX: 750 250
ItalicCorrection: 96
HStem: -250 59<-5.99219 85> 691 59<229.844 305>
VStem: 226 153<691.469 745.611>
DStem2: 70.2459 -250 134.746 -250 0.242599 0.970127<60.8168 969.84>
LayerCount: 2
Fore
SplineSet
-10 -232 m 0
 -10 -228 -6 -201 5 -195 c 0
 9 -192 14 -191 19 -191 c 2
 85 -191 l 1
 305 691 l 1
 250 691 l 2
 237 691 226 694 226 709 c 0
 226 710 229 738 239 746 c 0
 244 749 249 750 254 750 c 2
 353 750 l 2
 365 750 379 749 379 732 c 0
 379 728 378 724 377 720 c 2
 149 -193 l 2
 138 -239 138 -249 115 -250 c 1
 11 -250 l 2
 1 -250 -10 -246 -10 -232 c 0
EndSplineSet
EndChar

StartChar: asciicircum
Encoding: 94 94 103
Width: 661
Flags: HW
TeX: 694 0
ItalicCorrection: 76
HStem: 564 70<438.156 475>
LayerCount: 2
Fore
SplineSet
254 505 m 0
 254 520 275 528 283 532 c 0
 467 629 475 634 484 634 c 0
 494 634 500 628 639 529 c 0
 650 521 657 515 657 506 c 0
 657 495 635 469 623 469 c 0
 606 469 492 560 476 563 c 1
 475 564 l 1
 455 564 295 468 277 468 c 0
 260 468 254 499 254 505 c 0
EndSplineSet
EndChar

StartChar: underscore
Encoding: 95 95 104
Width: 828
Flags: HW
TeX: 0 262
HStem: -263 40<48.0109 655.988>
LayerCount: 2
Fore
SplineSet
48 -243 m 0
 48 -227 63 -223 79 -223 c 2
 627 -223 l 2
 653 -223 656 -235 656 -243 c 0
 656 -261 640 -263 628 -263 c 2
 77 -263 l 2
 53 -263 48 -251 48 -243 c 0
EndSplineSet
EndChar

StartChar: quoteleft
Encoding: 8216 8216 105
Width: 328
Flags: HW
TeX: 694 0
ItalicCorrection: 115
HStem: 394 298
VStem: 216 113<412.148 494.181>
LayerCount: 2
Fore
SplineSet
216 457 m 0
 216 478 223 577 319 672 c 0
 336 688 341 692 347 692 c 0
 357 692 376 665 376 657 c 0
 376 641 306 605 280 500 c 1
 283 500 l 2
 317 500 329 479 329 458 c 0
 329 427 301 394 264 394 c 0
 245 394 216 405 216 457 c 0
EndSplineSet
EndChar

StartChar: a
Encoding: 97 97 106
Width: 550
Flags: HW
TeX: 458 0
ItalicCorrection: 95
HStem: -5 58<207.429 319.149 449.1 504.719> 405 59<285.812 399.142>
VStem: 116 71<72.9179 254.233> 534 55<91.6838 160.895>
AnchorPoint: "ogonek" 467 0 basechar 0
AnchorPoint: "affricate-below" 501 -194 basechar 0
AnchorPoint: "affricate-above" 724 694 basechar 0
AnchorPoint: "below" 243 0 basechar 0
AnchorPoint: "above" 359 464 basechar 0
LayerCount: 2
Fore
SplineSet
116 144 m 0
 116 273 205 464 359 464 c 0
 399 464 429 450 456 419 c 1
 465 440 478 448 494 448 c 0
 510 448 522 437 522 421 c 0
 522 411 518 396 515 384 c 2
 450 127 l 2
 447 117 445 105 445 94 c 0
 445 64 466 54 477 54 c 0
 515 54 526 144 534 155 c 0
 537 159 543 161 560 161 c 0
 583 161 589 159 589 149 c 0
 589 145 559 -5 466 -5 c 0
 430 -5 396 14 381 55 c 1
 351 27 307 -5 246 -5 c 0
 192 -5 116 25 116 144 c 0
187 140 m 0
 187 67 229 53 257 53 c 0
 311 53 368 106 393 172 c 1
 393 172 424 275 424 308 c 0
 424 353 404 405 349 405 c 0
 220 405 187 181 187 140 c 0
EndSplineSet
EndChar

StartChar: b
Encoding: 98 98 107
Width: 494
Flags: HW
TeX: 694 0
ItalicCorrection: 60
HStem: -6 59<205.52 318.935> 405 59<286.807 399.907> 622 72<160.933 228> 622 59<155.438 227.251>
VStem: 119 66<73.8416 262.302> 151 158<624.526 679.486> 420 70<202.811 386.012>
AnchorPoint: "affricate-below" 445 -194 basechar 0
AnchorPoint: "affricate-above" 668 694 basechar 0
AnchorPoint: "below" 247 0 basechar 0
AnchorPoint: "above" 421 694 basechar 0
LayerCount: 2
Fore
SplineSet
119 142 m 0
 119 179 127 215 136 250 c 2
 201 509 l 2
 210 546 219 583 228 620 c 1
 212 621 197 622 181 622 c 2
 177 622 l 2xea
 158 622 151 629 151 640 c 0
 151 644 153 649 154 655 c 0
 159 673 162 678 179 681 c 1xd6
 216 685 287 694 291 694 c 0
 305 694 309 688 309 677 c 0xe6
 309 668 310 676 247 422 c 1
 276 444 316 464 361 464 c 0
 418 464 490 429 490 315 c 0
 490 184 401 -6 247 -6 c 0
 191 -6 119 28 119 142 c 0
185 142 m 0
 185 67 228 53 257 53 c 0xca
 379 53 420 259 420 319 c 0
 420 392 377 405 349 405 c 0
 324 405 270 392 226 313 c 0
 203 273 185 176 185 142 c 0
EndSplineSet
EndChar

StartChar: c
Encoding: 99 99 108
Width: 494
Flags: HW
TeX: 458 0
ItalicCorrection: 59
HStem: -6 59<219.88 388.846> 405 59<299.924 437.588>
VStem: 118 72<83.9163 262.203> 439 65<349.516 397.879>
AnchorPoint: "affricate-below" 445 -194 basechar 0
AnchorPoint: "affricate-above" 668 694 basechar 0
AnchorPoint: "below" 280 0 basechar 0
AnchorPoint: "above" 387 464 basechar 0
LayerCount: 2
Fore
SplineSet
118 152 m 0
 118 295 222 464 387 464 c 0
 455 464 504 429 504 377 c 0
 504 335 476 318 455 318 c 0
 435 318 423 332 423 349 c 0
 423 360 428 372 439 384 c 1
 439 385 l 1
 430 393 414 405 377 405 c 0
 227 405 190 211 190 152 c 0
 190 92 220 53 288 53 c 0
 406 53 451 125 465 125 c 0
 479 125 497 99 497 94 c 0
 497 71 403 -6 278 -6 c 0
 172 -6 118 59 118 152 c 0
EndSplineSet
EndChar

StartChar: d
Encoding: 100 100 109
Width: 550
Flags: HW
TeX: 694 0
ItalicCorrection: 95
HStem: -5 58<207.429 318.118 448.895 504.459> 405 59<286.342 399.933> 620 55<430.777 504.864> 674 20G<440 575>
VStem: 116 71<72.9179 255.307> 534 55<90.8245 161>
DStem2: 349.97 -5 417.954 -5 0.242599 0.970127<119.644 321.023 437.056 644.182>
AnchorPoint: "affricate-below" 501 -194 basechar 0
AnchorPoint: "affricate-above" 724 694 basechar 0
AnchorPoint: "below" 311 0 basechar 0
AnchorPoint: "above" 417 694 basechar 0
LayerCount: 2
Fore
SplineSet
116 144 m 0
 116 278 208 464 359 464 c 0
 401 464 432 448 455 419 c 1
 456 419 l 1
 506 620 l 1
 453 625 429 614 429 640 c 0
 429 652 434 670 440 675 c 0xec
 450 684 568 694 568 694 c 1xdc
 582 694 586 686 586 676 c 0
 586 671 586 665 584 659 c 2
 450 126 l 2
 448 119 445 106 445 94 c 0
 445 63 466 54 477 54 c 0
 515 54 525 144 534 155 c 0
 538 160 546 161 554 161 c 2
 568 161 l 2
 584 161 589 158 589 149 c 0
 589 143 558 -5 466 -5 c 0
 430 -5 396 14 381 55 c 1
 352 28 307 -5 246 -5 c 0
 192 -5 116 25 116 144 c 0
187 140 m 0
 187 67 229 53 257 53 c 0
 311 53 368 107 393 171 c 1
 393 171 424 276 424 309 c 0
 424 354 404 405 349 405 c 0xcc
 220 405 187 181 187 140 c 0
EndSplineSet
EndChar

StartChar: e
Encoding: 101 101 110
Width: 494
Flags: HW
TeX: 458 0
ItalicCorrection: 89
HStem: -6 59<224.645 388.829> 226 59<217 399.6> 405 59<295.345 433.754>
VStem: 123 71<84.6133 224.042> 443 62<318.867 393.649>
AnchorPoint: "ogonek" 280 0 basechar 0
AnchorPoint: "affricate-below" 445 -194 basechar 0
AnchorPoint: "affricate-above" 668 694 basechar 0
AnchorPoint: "below" 280 0 basechar 0
AnchorPoint: "above" 386 464 basechar 0
LayerCount: 2
Fore
SplineSet
123 164 m 0
 123 325 228 464 386 464 c 0
 455 464 505 425 505 368 c 0
 505 342 495 261 362 236 c 0
 309 226 255 226 202 226 c 1
 198 204 194 182 194 160 c 0
 194 93 226 53 289 53 c 0
 407 53 452 125 467 125 c 0
 476 125 497 101 497 92 c 0
 497 75 411 -6 278 -6 c 0
 210 -6 123 28 123 164 c 0
217 285 m 1
 250 285 l 2
 317 285 443 291 443 359 c 0
 443 378 427 405 376 405 c 0
 320 405 252 380 217 285 c 1
EndSplineSet
EndChar

StartChar: f
Encoding: 102 102 111
Width: 328
Flags: HW
TeX: 694 194
ItalicCorrection: 215
HStem: -200 59<48.2422 104.884> 400 58<126.579 221 300 410.871> 641 59<334.507 399.528>
VStem: -27 80<-139.672 -95.75> 395 80<596.526 639.672>
DStem2: 174 149 203 -33 0.19381 0.981039<-226.995 255.35 327.561 516.396>
AnchorPoint: "affricate-below" 279 -194 basechar 0
AnchorPoint: "affricate-above" 502 694 basechar 0
AnchorPoint: "above" 361 694 basechar 0
AnchorPoint: "below" 89 -194 basechar 0
LayerCount: 2
Fore
SplineSet
-27 -139 m 0
 -27 -112 -6 -87 21 -87 c 0
 39 -87 53 -100 53 -118 c 0
 53 -126 51 -133 48 -140 c 1
 58 -141 65 -141 70 -141 c 0
 109 -141 124 -112 174 149 c 0
 212 349 216 375 221 400 c 1
 146 400 l 2
 129 400 123 406 123 417 c 0
 123 425 128 451 139 456 c 0
 143 458 148 458 153 458 c 2
 232 458 l 1
 253 567 260 606 277 637 c 1
 293 664 329 700 380 700 c 0
 414 700 475 687 475 638 c 0
 475 613 455 588 427 588 c 0
 409 588 395 600 395 618 c 0
 395 626 397 633 400 640 c 1
 391 641 383 641 374 641 c 0
 327 640 333 630 300 458 c 1
 393 458 l 2
 403 458 414 455 414 441 c 0
 414 436 411 407 398 402 c 0
 393 400 387 400 382 400 c 2
 289 400 l 1
 288 399 l 1
 288 399 230 68 203 -33 c 0
 170 -154 119 -200 64 -200 c 0
 34 -200 -27 -188 -27 -139 c 0
EndSplineSet
EndChar

StartChar: g
Encoding: 103 103 112
Width: 494
Flags: HW
TeX: 458 194
ItalicCorrection: 92
HStem: -200 59<140.074 288.25> 0 59<207.888 321.07> 405 59<288.417 400.553>
VStem: 60 80<-140.435 -106.456> 117 71<78.3415 258.823> 424 98<302.5 429.5>
AnchorPoint: "affricate-below" 445 -194 basechar 0
AnchorPoint: "affricate-above" 668 694 basechar 0
AnchorPoint: "below" 185 -194 basechar 0
AnchorPoint: "above" 360 464 basechar 0
LayerCount: 2
Fore
SplineSet
60 -148 m 0xf4
 60 -120 84 -97 108 -97 c 0
 129 -97 140 -110 140 -130 c 0xf4
 140 -133 139 -136 139 -139 c 1
 162 -141 180 -141 198 -141 c 0
 280 -141 314 -104 326 -84 c 0
 334 -70 338 -50 361 42 c 1
 338 25 298 0 248 0 c 0
 195 0 117 29 117 147 c 0
 117 289 214 464 359 464 c 0
 400 464 429 450 456 419 c 1
 464 439 479 448 494 448 c 0
 509 448 522 438 522 421 c 0
 522 416 521 410 520 405 c 2
 409 -38 l 2
 403 -61 397 -109 343 -151 c 0
 300 -184 248 -200 188 -200 c 2xec
 178 -200 l 2
 135 -200 60 -199 60 -148 c 0xf4
188 145 m 0
 188 73 231 59 259 59 c 0
 307 59 351 97 378 143 c 0
 408 193 424 298 424 307 c 0
 424 388 379 405 349 405 c 0xec
 225 405 188 197 188 145 c 0
EndSplineSet
EndChar

StartChar: h
Encoding: 104 104 113
Width: 550
Flags: HW
TeX: 694 0
ItalicCorrection: 95
HStem: -5 59<429.812 492.592> 405 59<307.441 423.773> 620 61<155.578 227.376> 674 20G<289 297.5>
VStem: 81 64<-2.47864 97.5469> 151 158<622.541 679.462> 360 68<55.1101 156.501> 434 68<249.342 394.877> 530 60<97.0312 160.996>
AnchorPoint: "affricate-below" 501 -194 basechar 0
AnchorPoint: "affricate-above" 724 694 basechar 0
AnchorPoint: "below" 244 0 basechar 0
AnchorPoint: "above" 418 694 basechar 0
LayerCount: 2
Fore
SplineSet
81 24 m 0
 81 30 83 35 84 41 c 2
 213 558 l 1
 228 620 l 1
 175 625 151 616 151 639 c 0
 151 643 152 648 154 655 c 0
 159 673 162 678 179 681 c 1xef80
 216 685 287 694 291 694 c 0
 304 694 309 687 309 676 c 0
 309 666 310 675 240 396 c 1
 273 430 318 464 388 464 c 0
 462 464 502 427 502 360 c 0
 502 275 428 117 428 85 c 0
 428 70 436 54 454 54 c 0
 469 54 504 64 530 146 c 0
 535 161 541 161 554 161 c 2xdf80
 570 161 l 2
 580 161 590 160 590 149 c 0
 590 130 540 -5 442 -5 c 0
 392 -5 360 30 360 77 c 0
 360 126 434 267 434 348 c 0
 434 394 403 405 376 405 c 0
 201 405 167 68 145 19 c 0
 142 12 131 -5 110 -5 c 0
 95 -5 81 6 81 24 c 0
EndSplineSet
EndChar

StartChar: i
Encoding: 105 105 114
Width: 328
Flags: HW
TeX: 688 0
ItalicCorrection: 101
HStem: -5 59<207.261 271.347> 405 59<170.293 233.821> 616 77<272.279 334.721>
VStem: 73 61<297.089 363.516> 138 68<54.3015 155.503> 235 69<302.871 404.234> 264 79<624.754 684.562> 307 61<95.6635 160.973>
AnchorPoint: "above" 332 673 basechar 0
AnchorPoint: "ogonek" 221 0 basechar 0
AnchorPoint: "affricate-below" 279 -194 basechar 0
AnchorPoint: "affricate-above" 502 694 basechar 0
AnchorPoint: "below" 163 0 basechar 0
LayerCount: 2
Fore
SplineSet
264 648 m 0
 264 670 286 693 311 693 c 0
 329 693 343 681 343 662 c 0
 343 640 321 616 296 616 c 0xfa
 278 616 264 629 264 648 c 0
EndSplineSet
Refer: 34 305 S 1 0 0 1 -0 -0 3
EndChar

StartChar: j
Encoding: 106 106 115
Width: 328
Flags: HW
TeX: 688 194
ItalicCorrection: 151
HStem: -200 59<40.1128 125.162> 405 59<187.492 269.578> 616 77<310.963 373.348>
VStem: -38 80<-140.766 -106.165> 74 63<297.561 352.527> 274 68<269.914 401.888> 303 79<624.754 685.203>
DStem2: 135.213 -200 203.239 -200 0.242599 0.970127<86.0239 579.35>
AnchorPoint: "affricate-below" 279 -194 basechar 0
AnchorPoint: "affricate-above" 502 694 basechar 0
AnchorPoint: "below" 87 -194 basechar 0
LayerCount: 2
Fore
SplineSet
-38 -146 m 0
 -38 -117 -12 -97 10 -97 c 0
 31 -97 42 -109 42 -128 c 0
 42 -132 41 -136 40 -141 c 1
 55 -141 l 2
 162 -141 177 -33 177 -33 c 1
 269 335 l 2
 271 341 274 352 274 363 c 0xfc
 274 388 260 405 238 405 c 0
 198 405 159 364 137 317 c 0
 130 302 127 297 105 297 c 0
 81 297 74 300 74 308 c 0
 74 329 143 464 249 464 c 0
 305 464 342 424 342 371 c 0
 342 351 336 330 333 318 c 2
 244 -37 l 2
 239 -59 229 -121 156 -168 c 0
 125 -188 87 -200 50 -200 c 0
 -4 -200 -38 -178 -38 -146 c 0
303 648 m 0
 303 670 324 693 349 693 c 0
 367 693 382 681 382 662 c 0
 382 640 360 616 335 616 c 0xfa
 317 616 303 629 303 648 c 0
EndSplineSet
EndChar

StartChar: k
Encoding: 107 107 116
Width: 494
Flags: HW
TeX: 694 0
ItalicCorrection: 114
HStem: -5 59<382.793 446.242> 405 59<401.142 472.974> 622 54<153.306 225.523> 674 20G<164 298>
VStem: 310 68<57.7602 152.112> 317 68<98.0035 192.751> 450 83<324.738 383.089> 478 56<92.511 160.831>
DStem2: 71.9969 -5 140.479 -5 0.242599 0.970127<29.5759 253.265 323.79 644.175>
AnchorPoint: "affricate-below" 445 -194 basechar 0
AnchorPoint: "affricate-above" 668 694 basechar 0
AnchorPoint: "below" 243 0 basechar 0
AnchorPoint: "above" 417 694 basechar 0
LayerCount: 2
Fore
SplineSet
81 23 m 0
 81 28 82 34 83 39 c 2
 214 563 l 2
 219 582 224 601 228 620 c 1
 215 621 203 622 190 622 c 0xe4
 186 622 182 622 178 622 c 0
 161 622 151 626 151 640 c 0
 151 649 156 670 164 676 c 0xe4
 174 684 291 694 291 694 c 1
 305 694 309 687 309 677 c 0
 309 672 308 666 307 661 c 2
 215 293 l 1
 304 330 370 464 470 464 c 0
 514 464 533 429 533 388 c 0
 533 327 502 314 482 314 c 0
 463 314 450 327 450 344 c 0
 450 362 460 375 474 385 c 1
 472 398 468 405 455 405 c 0
 398 405 344 340 272 273 c 1
 323 260 385 227 385 157 c 0xd6
 385 134 378 116 378 99 c 0
 378 71 394 54 413 54 c 0
 459 54 471 140 478 153 c 0
 482 160 490 161 502 161 c 0
 528 161 534 159 534 149 c 0
 534 139 497 -5 401 -5 c 0
 343 -5 310 40 310 95 c 0xd9
 310 121 317 134 317 149 c 0
 317 194 264 220 197 225 c 1
 197 224 150 29 146 20 c 0
 140 6 125 -5 110 -5 c 0
 95 -5 81 6 81 23 c 0
EndSplineSet
EndChar

StartChar: l
Encoding: 108 108 117
Width: 272
Flags: HW
TeX: 694 0
ItalicCorrection: 95
HStem: -5 59<170.837 228.581> 620 56<152.883 228> 674 20G<163 298>
VStem: 99 68<57.352 186.398> 253 59<82.3898 160.998>
DStem2: 71.9883 -5 140.491 -5 0.242599 0.970127<120.518 644.177>
AnchorPoint: "affricate-below" 223 -194 basechar 0
AnchorPoint: "affricate-above" 446 694 basechar 0
AnchorPoint: "below" 107 0 basechar 0
AnchorPoint: "above" 281 694 basechar 0
LayerCount: 2
Fore
SplineSet
99 87 m 0
 99 110 107 133 114 163 c 2
 228 620 l 1
 176 624 151 614 151 640 c 0
 151 653 157 671 163 676 c 0xd8
 174 685 291 694 291 694 c 1xb8
 305 694 309 686 309 676 c 0
 309 671 308 666 306 660 c 2
 172 121 l 2
 171 115 167 105 167 95 c 0
 167 64 189 54 200 54 c 0
 232 54 245 117 253 147 c 0
 257 160 264 161 273 161 c 0xd8
 277 161 281 161 285 161 c 0
 298 161 312 162 312 149 c 0
 312 148 283 -5 189 -5 c 0
 140 -5 99 32 99 87 c 0
EndSplineSet
EndChar

StartChar: m
Encoding: 109 109 118
Width: 883
Flags: HW
TeX: 458 0
ItalicCorrection: 95
HStem: -5 59<763.341 828.112> 405 59<158.976 213.9 363.02 479.177 638.555 757.899>
VStem: 73 55<297 368.635> 414 70<0.563526 112.702> 693 69<55.1238 159.468> 767 69<250.363 395.346> 863 60<93.8937 160.792>
AnchorPoint: "affricate-below" 834 -194 basechar 0
AnchorPoint: "affricate-above" 1057 694 basechar 0
AnchorPoint: "below" 439 0 basechar 0
AnchorPoint: "above" 556 464 basechar 0
LayerCount: 2
Fore
SplineSet
73 309 m 0
 73 310 102 464 196 464 c 0
 213 464 274 457 285 384 c 1
 319 422 366 464 444 464 c 0
 535 464 552 410 557 376 c 1
 558 376 l 1
 600 432 656 464 722 464 c 0
 775 464 836 443 836 360 c 0
 836 274 762 119 762 85 c 0
 762 66 772 54 788 54 c 0
 803 54 837 63 863 143 c 0
 867 157 870 161 892 161 c 0
 917 161 923 159 923 149 c 0
 923 127 872 -5 775 -5 c 0
 726 -5 693 30 693 77 c 0
 693 125 767 272 767 348 c 0
 767 377 756 405 709 405 c 0
 554 405 508 133 484 38 c 0
 480 22 472 -5 443 -5 c 0
 429 -5 414 5 414 21 c 0
 414 53 489 297 489 348 c 0
 489 382 472 405 432 405 c 0
 255 405 223 61 200 17 c 0
 190 -2 172 -5 165 -5 c 0
 151 -5 138 4 137 20 c 0
 136 29 139 38 141 47 c 2
 213 335 l 2
 215 345 218 354 218 364 c 0
 218 394 195 404 185 404 c 0
 147 404 137 314 128 303 c 0
 124 298 117 297 110 297 c 2
 93 297 l 2
 82 297 73 298 73 309 c 0
EndSplineSet
EndChar

StartChar: n
Encoding: 110 110 119
Width: 606
Flags: HW
TeX: 458 0
ItalicCorrection: 95
HStem: -5 59<485.162 548.346> 404 60<156.658 214.46 359.286 480.299>
VStem: 73 55<297 368.635> 137 63<-2.42432 97.875> 416 68<54.5226 159.441> 489 69<250.036 395.552> 586 60<95.1643 160.812>
AnchorPoint: "affricate-below" 557 -194 basechar 0
AnchorPoint: "affricate-above" 780 694 basechar 0
AnchorPoint: "below" 300 0 basechar 0
AnchorPoint: "above" 417 464 basechar 0
LayerCount: 2
Fore
SplineSet
73 309 m 0
 73 310 102 464 196 464 c 0
 213 464 274 457 285 384 c 1
 324 427 371 464 444 464 c 0
 497 464 558 443 558 360 c 0
 558 274 484 119 484 85 c 0
 484 60 500 54 510 54 c 0
 525 54 561 65 586 146 c 0
 591 160 593 161 621 161 c 0
 636 161 646 161 646 149 c 0
 646 129 595 -5 497 -5 c 0
 446 -5 416 32 416 77 c 0
 416 126 489 270 489 348 c 0
 489 387 469 405 432 405 c 0
 256 405 223 64 200 18 c 0
 195 8 183 -5 165 -5 c 0
 151 -5 138 4 137 20 c 0
 136 29 139 38 141 46 c 2
 213 334 l 2
 215 344 218 355 218 365 c 0
 218 394 197 404 185 404 c 0
 147 404 137 314 128 303 c 0
 124 298 117 297 110 297 c 2
 93 297 l 2
 82 297 73 298 73 309 c 0
EndSplineSet
EndChar

StartChar: o
Encoding: 111 111 120
Width: 550
Flags: HW
TeX: 458 0
ItalicCorrection: 60
HStem: -6 59<220.94 363.058> 405 59<299.479 443.36>
VStem: 118 72<83.2985 261.307> 473 71<197.062 374.701>
AnchorPoint: "ogonek" 277 0 basechar 0
AnchorPoint: "affricate-below" 501 -194 basechar 0
AnchorPoint: "affricate-above" 724 694 basechar 0
AnchorPoint: "below" 277 0 basechar 0
AnchorPoint: "above" 387 464 basechar 0
LayerCount: 2
Fore
SplineSet
118 152 m 0
 118 293 220 464 387 464 c 0
 480 464 544 408 544 306 c 0
 544 169 445 -6 275 -6 c 0
 182 -6 118 50 118 152 c 0
190 152 m 0
 190 73 242 53 285 53 c 0
 435 53 473 247 473 306 c 0
 473 385 421 405 377 405 c 0
 239 405 190 233 190 152 c 0
EndSplineSet
EndChar

StartChar: p
Encoding: 112 112 121
Width: 550
Flags: HW
TeX: 458 194
ItalicCorrection: 60
HStem: -194 58<26.8442 100.446 163 237.616> -6 59<263.318 371.961> 404 60<156.658 213.597 340.398 456.556>
VStem: 73 55<297.105 368.944> 475 71<203.654 385.668>
DStem2: 80.496 -194 148.496 -194 0.242599 0.970127<76.2828 256.729>
AnchorPoint: "affricate-below" 501 -194 basechar 0
AnchorPoint: "affricate-above" 724 694 basechar 0
AnchorPoint: "below" 254 -194 basechar 0
AnchorPoint: "above" 419 464 basechar 0
LayerCount: 2
Fore
SplineSet
23 -177 m 0
 23 -173 27 -145 38 -139 c 0
 44 -135 52 -136 59 -136 c 2
 95 -136 l 1
 99 -119 104 -101 108 -84 c 2
 214 341 l 2
 216 349 217 357 217 365 c 0
 217 395 195 404 185 404 c 0
 147 404 137 315 128 303 c 0
 125 299 119 297 102 297 c 0
 79 297 73 299 73 309 c 0
 73 311 102 464 196 464 c 0
 222 464 263 452 281 403 c 1
 309 430 355 464 416 464 c 0
 470 464 546 432 546 316 c 0
 546 187 458 -6 303 -6 c 0
 246 -6 217 26 207 39 c 1
 163 -136 l 1
 213 -136 l 2
 227 -136 241 -137 241 -154 c 0
 241 -160 237 -187 224 -192 c 0
 219 -194 214 -194 209 -194 c 2
 47 -194 l 2
 34 -194 23 -192 23 -177 c 0
239 146 m 0
 239 90 269 53 313 53 c 0
 435 53 475 259 475 319 c 0
 475 392 433 405 405 405 c 0
 381 405 329 393 286 320 c 0
 257 270 239 166 239 146 c 0
EndSplineSet
EndChar

StartChar: q
Encoding: 113 113 122
Width: 494
Flags: HW
TeX: 458 194
ItalicCorrection: 92
HStem: -194 58<227.487 317 385 459.063> -5 58<207.028 319.884> 405 59<288.405 399.125>
VStem: 116 71<71.6909 253.159> 424 105<292.5 450.5>
DStem2: 302.496 -194 370.496 -194 0.242599 0.970127<76.2828 238.05 304.843 515.894>
AnchorPoint: "affricate-below" 445 -194 basechar 0
AnchorPoint: "affricate-above" 668 694 basechar 0
AnchorPoint: "below" 195 -194 basechar 0
AnchorPoint: "above" 360 464 basechar 0
LayerCount: 2
Fore
SplineSet
116 144 m 0
 116 268 202 464 359 464 c 0
 403 464 435 446 458 415 c 1
 459 415 l 1
 475 440 503 462 515 462 c 0
 524 462 529 455 529 446 c 0
 529 439 526 429 522 413 c 2
 399 -79 l 2
 394 -98 390 -117 385 -136 c 1
 435 -136 l 2
 450 -136 462 -137 462 -155 c 0
 462 -169 455 -187 448 -191 c 0
 443 -194 437 -194 431 -194 c 2
 248 -194 l 2
 229 -194 225 -187 225 -177 c 0
 225 -172 225 -166 227 -160 c 0
 232 -137 242 -136 256 -136 c 2
 317 -136 l 1
 360 37 l 1
 331 15 293 -5 246 -5 c 0
 190 -5 116 28 116 144 c 0
187 140 m 0
 187 67 229 53 257 53 c 0
 311 53 368 105 393 171 c 1
 393 171 424 276 424 309 c 0
 424 354 404 405 349 405 c 0
 220 405 187 181 187 140 c 0
EndSplineSet
EndChar

StartChar: r
Encoding: 114 114 123
Width: 453
Flags: HW
TeX: 458 0
ItalicCorrection: 114
HStem: -5 21G<156 190> 404 60<157.375 214.286 347.252 449.013>
VStem: 73 55<297 366.472> 433 81<322.749 380.577>
AnchorPoint: "affricate-below" 404 -194 basechar 0
AnchorPoint: "affricate-above" 627 694 basechar 0
AnchorPoint: "below" 165 0 basechar 0
AnchorPoint: "above" 308 464 basechar 0
LayerCount: 2
Fore
SplineSet
73 310 m 0
 73 314 104 464 196 464 c 0
 226 464 268 449 283 398 c 1
 310 426 349 464 415 464 c 0
 473 464 514 428 514 375 c 0
 514 329 487 314 465 314 c 0
 446 314 433 326 433 344 c 0
 433 361 442 372 451 381 c 1
 444 390 433 405 405 405 c 0
 320 405 269 269 249 204 c 0
 208 69 216 -5 164 -5 c 0
 148 -5 137 5 137 22 c 0
 137 31 140 44 143 54 c 2
 213 336 l 2
 215 345 218 354 218 364 c 0
 218 393 198 404 186 404 c 0
 148 404 137 314 128 303 c 0
 124 298 117 297 110 297 c 2
 94 297 l 2
 83 297 73 298 73 310 c 0
EndSplineSet
EndChar

StartChar: s
Encoding: 115 115 124
Width: 439
Flags: HW
TeX: 458 0
ItalicCorrection: 86
HStem: -6 59<151.905 314.572> 405 59<255.34 384.392>
VStem: 78 82<86.6086 144.173> 162 66<291.297 378.549> 356 66<92.0825 187.483> 386 63<350.561 395.668>
AnchorPoint: "affricate-below" 390 -194 basechar 0
AnchorPoint: "affricate-above" 613 694 basechar 0
AnchorPoint: "below" 223 0 basechar 0
AnchorPoint: "above" 331 464 basechar 0
LayerCount: 2
Fore
SplineSet
78 93 m 0
 78 139 107 153 127 153 c 0
 146 153 160 140 160 122 c 0
 160 111 154 99 141 86 c 1
 145 80 161 53 229 53 c 0
 337 53 356 121 356 146 c 0xf8
 356 208 268 206 227 222 c 0
 196 234 162 264 162 313 c 0
 162 359 196 464 331 464 c 0
 400 464 449 429 449 377 c 0
 449 335 421 321 403 321 c 0
 386 321 372 333 372 350 c 0
 372 362 379 372 386 381 c 1
 386 382 l 1
 375 393 360 405 320 405 c 0xf4
 241 405 228 345 228 329 c 0
 228 271 306 285 359 258 c 0
 377 249 422 220 422 162 c 0
 422 124 394 -6 221 -6 c 0
 135 -6 78 34 78 93 c 0
EndSplineSet
EndChar

StartChar: t
Encoding: 116 116 125
Width: 356
Flags: HW
TeX: 649 0
ItalicCorrection: 100
HStem: -6 60<198.675 283.197> 400 58<90.7978 201 283 393.216>
VStem: 127 68<57.8058 190.951> 333 62<106.492 160.577>
DStem2: 99.4893 -6 167.472 -6 0.242599 0.970127<207.336 418.498 494.658 674.115>
AnchorPoint: "affricate-below" 307 -194 basechar 0
AnchorPoint: "affricate-above" 530 694 basechar 0
AnchorPoint: "below" 198 0 basechar 0
AnchorPoint: "above" 300 660 basechar 0
LayerCount: 2
Fore
SplineSet
87 417 m 0
 87 421 91 449 102 455 c 0
 107 458 113 458 118 458 c 2
 216 458 l 1
 257 622 258 635 268 646 c 0
 275 654 287 660 298 660 c 0
 315 660 326 649 326 633 c 0
 326 619 283 458 283 458 c 1
 372 458 l 2
 382 458 397 458 397 441 c 0
 397 437 393 409 382 403 c 0
 377 400 372 400 367 400 c 2
 269 400 l 1
 256 339 195 117 195 94 c 0
 195 70 210 54 232 54 c 0
 272 54 311 95 333 142 c 0
 341 159 341 161 369 161 c 0
 389 161 395 159 395 150 c 0
 395 132 327 -6 219 -6 c 0
 163 -6 127 34 127 87 c 0
 127 110 134 134 138 148 c 2
 201 400 l 1
 110 400 l 2
 98 400 87 403 87 417 c 0
EndSplineSet
EndChar

StartChar: u
Encoding: 117 117 126
Width: 578
Flags: HW
TeX: 458 0
ItalicCorrection: 95
HStem: -6 59<249.571 356.354 476.596 533.552> 405 59<170.306 233.639>
VStem: 73 66<297.797 366.832> 166 68<68.5007 226.662> 235 68<300.314 404.37> 489 64<352.58 454.557> 563 55<90.8245 160.95>
AnchorPoint: "ogonek" 289 0 basechar 0
AnchorPoint: "affricate-below" 529 -194 basechar 0
AnchorPoint: "affricate-above" 752 694 basechar 0
AnchorPoint: "below" 289 0 basechar 0
AnchorPoint: "above" 405 464 basechar 0
LayerCount: 2
Fore
SplineSet
73 309 m 0
 73 329 123 464 222 464 c 0
 271 464 303 428 303 381 c 0
 303 330 234 211 234 124 c 0
 234 68 270 53 300 53 c 0
 353 53 405 106 431 207 c 0
 488 433 484 423 489 433 c 0
 494 443 507 458 525 458 c 0
 539 458 552 449 553 433 c 0
 554 424 551 415 549 407 c 2
 480 131 l 2
 477 119 473 106 473 94 c 0
 473 63 495 54 506 54 c 0
 544 54 555 145 563 155 c 0
 569 163 580 161 592 161 c 0
 604 161 618 163 618 149 c 0
 618 143 587 -5 495 -5 c 0
 470 -5 428 6 410 54 c 1
 381 23 344 -6 287 -6 c 0
 232 -6 166 18 166 112 c 0
 166 209 235 337 235 374 c 0
 235 399 219 405 209 405 c 0
 181 405 154 372 139 330 c 0
 127 299 134 297 97 297 c 0
 81 297 73 299 73 309 c 0
EndSplineSet
EndChar

StartChar: v
Encoding: 118 118 127
Width: 494
Flags: HW
TeX: 458 0
ItalicCorrection: 114
HStem: -6 59<253.789 364.334> 405 59<170.811 233.53>
VStem: 74 60<297.24 363.516> 167 68<71.854 228.213> 235 68<300.693 404.374> 462 67<261.907 439.809>
AnchorPoint: "affricate-below" 445 -194 basechar 0
AnchorPoint: "affricate-above" 668 694 basechar 0
AnchorPoint: "below" 301 0 basechar 0
AnchorPoint: "above" 352 464 basechar 0
LayerCount: 2
Fore
SplineSet
74 309 m 0
 74 329 123 464 222 464 c 0
 271 464 303 428 303 381 c 0
 303 331 235 211 235 129 c 0
 235 69 277 53 311 53 c 0
 377 53 412 125 444 250 c 0
 450 274 462 316 462 353 c 0
 462 397 447 400 447 422 c 0
 447 444 470 464 491 464 c 0
 506 464 529 451 529 392 c 0
 529 327 468 -6 299 -6 c 0
 241 -6 167 18 167 116 c 0
 167 211 235 336 235 373 c 0
 235 390 226 405 209 405 c 0
 194 405 159 394 134 315 c 0
 129 299 128 297 100 297 c 2
 92 297 l 2
 82 297 74 298 74 309 c 0
EndSplineSet
EndChar

StartChar: w
Encoding: 119 119 128
Width: 717
Flags: HW
TeX: 458 0
ItalicCorrection: 114
HStem: -6 59<258.128 362.173 490.415 594.846> 405 59<170.682 233.122>
VStem: 73 61<297.208 363.516> 468 71<337.398 450.901> 685 66<263.953 439.922>
AnchorPoint: "affricate-below" 668 -194 basechar 0
AnchorPoint: "affricate-above" 891 694 basechar 0
AnchorPoint: "below" 423 0 basechar 0
AnchorPoint: "above" 513 464 basechar 0
LayerCount: 2
Fore
SplineSet
73 309 m 0
 73 329 124 464 221 464 c 0
 270 464 303 429 303 381 c 0
 303 330 236 214 236 132 c 0
 236 69 283 53 319 53 c 0
 371 53 399 134 406 157 c 0
 410 170 404 157 468 411 c 0
 470 418 477 458 512 458 c 0
 527 458 539 446 539 430 c 0
 539 400 472 189 472 129 c 0
 472 67 515 53 546 53 c 0
 605 53 633 118 666 247 c 0
 672 272 685 316 685 353 c 0
 685 395 669 405 669 422 c 0
 669 441 690 464 713 464 c 0
 728 464 751 451 751 392 c 0
 751 340 718 204 689 133 c 0
 647 29 596 -6 535 -6 c 0
 479 -6 437 14 416 54 c 1
 415 54 l 1
 376 0 334 -6 307 -6 c 0
 243 -6 167 19 167 119 c 0
 167 213 235 337 235 374 c 0
 235 393 224 405 209 405 c 0
 194 405 159 394 134 315 c 0
 130 301 127 297 105 297 c 0
 80 297 73 299 73 309 c 0
EndSplineSet
EndChar

StartChar: x
Encoding: 120 120 129
Width: 494
Flags: HW
TeX: 458 0
ItalicCorrection: 128
HStem: -5 58<127.574 216.313 320.609 424.501> 405 59<182.746 286.586 391.889 479.362>
VStem: 62 82<77.5156 134.963> 74 63<297.068 358.243> 464 81<323.285 380.484> 475 59<106.91 160.947>
AnchorPoint: "affricate-below" 445 -194 basechar 0
AnchorPoint: "affricate-above" 668 694 basechar 0
AnchorPoint: "below" 247 0 basechar 0
AnchorPoint: "above" 363 464 basechar 0
LayerCount: 2
Fore
SplineSet
62 83 m 0
 62 130 92 145 112 145 c 0
 131 145 144 132 144 114 c 0xe4
 144 99 136 88 125 77 c 1
 130 70 142 53 168 53 c 0
 194 53 218 71 231 93 c 0
 245 115 296 327 296 351 c 0
 296 394 265 405 240 405 c 0
 192 405 154 363 137 322 c 0
 128 299 125 297 112 297 c 0
 107 297 103 297 98 297 c 0
 88 297 74 297 74 309 c 0
 74 339 138 464 250 464 c 0
 308 464 335 435 347 416 c 1
 376 444 409 464 450 464 c 0
 503 464 545 429 545 376 c 0
 545 329 516 314 496 314 c 0
 477 314 464 326 464 344 c 0xd8
 464 359 471 370 482 381 c 1
 473 394 461 405 440 405 c 0
 414 405 389 386 376 364 c 0
 363 342 311 132 311 107 c 0
 311 64 343 53 368 53 c 0
 411 53 455 90 475 147 c 0
 480 161 484 161 505 161 c 2xc4
 515 161 l 2
 525 161 534 160 534 149 c 0
 534 121 471 -6 357 -6 c 0
 299 -6 273 24 261 42 c 1
 229 14 199 -5 157 -5 c 0
 104 -5 62 30 62 83 c 0
EndSplineSet
EndChar

StartChar: y
Encoding: 121 121 130
Width: 522
Flags: HW
TeX: 458 194
ItalicCorrection: 92
HStem: -200 59<177.627 292.168> -6 59<249.571 356.186> 405 59<170.051 233.722>
VStem: 74 59<297.298 360.681> 111 82<-123.485 -68.7019> 166 68<68.3132 226.925> 235 69<302.804 404.057> 490 63<356.875 455.434>
DStem2: 329.734 -200 396.985 -200 0.242599 0.970127<119.432 240.175 303.787 650.498>
AnchorPoint: "affricate-below" 473 -194 basechar 0
AnchorPoint: "affricate-above" 696 694 basechar 0
AnchorPoint: "below" 199 -194 basechar 0
AnchorPoint: "above" 404 464 basechar 0
LayerCount: 2
Fore
SplineSet
74 309 m 0
 74 330 123 464 222 464 c 0
 272 464 304 426 304 381 c 0
 304 330 234 211 234 124 c 0xf7
 234 67 270 53 300 53 c 0
 353 53 406 107 431 206 c 0
 489 435 485 427 490 436 c 0
 497 449 510 458 525 458 c 0
 539 458 553 448 553 431 c 0
 553 424 550 413 548 405 c 2
 452 20 l 2
 444 -12 428 -95 338 -158 c 0
 307 -180 264 -200 214 -200 c 0
 155 -200 111 -167 111 -117 c 0
 111 -74 141 -59 160 -59 c 0
 178 -59 193 -71 193 -89 c 0xeb
 193 -103 187 -113 177 -124 c 1
 188 -133 200 -141 224 -141 c 0
 283 -141 343 -92 371 -25 c 0
 379 -7 383 14 388 33 c 1
 355 8 327 -6 287 -6 c 0
 232 -6 166 18 166 112 c 0xe7
 166 209 235 339 235 374 c 0
 235 393 224 405 209 405 c 0
 162 405 138 327 133 313 c 0
 128 298 123 297 97 297 c 0
 81 297 74 299 74 309 c 0
EndSplineSet
EndChar

StartChar: z
Encoding: 122 122 131
Width: 439
Flags: HW
TeX: 458 0
ItalicCorrection: 143
HStem: -5 67<258.378 372.816> 397 67<214.662 320.379>
VStem: 416 62<104.181 158.458>
AnchorPoint: "affricate-below" 390 -194 basechar 0
AnchorPoint: "affricate-above" 613 694 basechar 0
AnchorPoint: "below" 246 0 basechar 0
AnchorPoint: "above" 362 464 basechar 0
LayerCount: 2
Fore
SplineSet
53 4 m 0
 53 9 57 16 66 30 c 0
 147 157 268 242 364 353 c 1
 319 370 301 397 264 397 c 0
 235 397 213 378 203 362 c 0
 191 342 199 341 164 341 c 0
 148 341 139 342 139 352 c 0
 139 383 197 464 276 464 c 0
 330 464 357 408 395 408 c 0
 427 408 424 464 460 464 c 2
 479 464 l 2
 491 464 497 462 497 454 c 0
 497 434 439 365 439 365 c 1
 366 275 267 196 190 110 c 1
 246 107 269 62 315 62 c 0
 355 62 398 94 416 139 c 0
 422 153 419 159 451 159 c 2
 461 159 l 2
 474 159 478 155 478 147 c 0
 478 116 410 -5 304 -5 c 0
 246 -5 226 50 179 50 c 0
 139 50 116 6 107 -1 c 0
 102 -6 95 -6 88 -6 c 2
 77 -6 l 2
 60 -6 53 -4 53 4 c 0
EndSplineSet
EndChar

StartChar: braceleft
Encoding: 123 123 132
Width: 550
Flags: HW
TeX: 750 250
ItalicCorrection: 161
HStem: -250 59<292.518 413.413> 220 56<141.237 231.857> 684 66<495.421 642.519>
VStem: 272 68<39.6384 184.25>
DStem2: 175.957 -250 243.957 -250 0.242599 0.970127<593.09 960.398>
LayerCount: 2
Fore
SplineSet
137 233 m 0
 137 237 143 270 151 276 c 0
 159 282 170 276 208 285 c 0
 259 296 311 327 332 374 c 0
 344 400 391 619 406 650 c 0
 437 714 519 750 608 750 c 2
 636 750 l 2
 646 750 654 749 654 738 c 0
 654 734 648 703 643 697 c 0
 633 686 607 695 550 684 c 0
 469 668 465 625 460 606 c 0
 404 380 404 379 397 362 c 0
 369 299 313 269 252 249 c 1
 314 229 340 183 340 140 c 0
 340 118 342 133 280 -115 c 0
 278 -123 276 -131 276 -139 c 0
 276 -186 354 -190 402 -191 c 0
 415 -191 419 -195 419 -203 c 0
 419 -209 416 -219 413 -230 c 0
 409 -247 407 -250 387 -250 c 2
 370 -250 l 2
 237 -250 207 -188 207 -147 c 0
 207 -111 272 102 272 135 c 0
 272 192 208 216 163 220 c 0
 150 221 137 219 137 233 c 0
EndSplineSet
EndChar

StartChar: bar
Encoding: 124 124 133
Width: 328
Flags: HW
TeX: 750 250
ItalicCorrection: 96
DStem2: 80.2473 -249 122.248 -249 0.242599 0.970127<22.2841 1016.58>
LayerCount: 2
Fore
SplineSet
87 -228 m 0
 87 -222 89 -216 90 -210 c 2
 323 720 l 2
 324 724 328 749 346 749 c 0
 355 749 365 740 365 728 c 0
 365 721 366 727 325 564 c 2
 130 -218 l 2
 127 -228 123 -249 106 -249 c 0
 94 -249 87 -239 87 -228 c 0
EndSplineSet
EndChar

StartChar: braceright
Encoding: 125 125 134
Width: 550
Flags: HW
TeX: 750 250
ItalicCorrection: 36
HStem: -250 65<31.4438 177.822> 224 56<440.849 531.918> 694 56<260.451 377.259>
VStem: 335 68<314.665 458.733>
DStem2: 177.99 -250 242.993 -250 0.242599 0.970127<84.3437 447.671>
LayerCount: 2
Fore
SplineSet
20 -238 m 0
 20 -234 26 -203 31 -197 c 0
 40 -186 76 -195 124 -185 c 0
 205 -169 209 -125 214 -106 c 0
 265 96 271 122 278 139 c 0
 307 203 364 232 422 251 c 1
 377 265 335 300 335 360 c 0
 335 378 340 395 342 404 c 0
 395 614 399 628 399 639 c 0
 399 700 272 685 259 694 c 0
 256 696 255 699 255 703 c 0
 255 708 257 716 261 730 c 0
 266 750 271 750 287 750 c 2
 304 750 l 2
 437 750 467 688 467 647 c 0
 467 610 403 399 403 365 c 0
 403 308 463 284 510 280 c 0
 523 279 536 281 536 267 c 0
 536 262 530 230 522 224 c 0
 514 218 505 224 467 215 c 0
 416 204 363 173 342 127 c 0
 327 95 283 -118 268 -150 c 0
 237 -214 154 -250 66 -250 c 2
 39 -250 l 2
 29 -250 20 -250 20 -238 c 0
EndSplineSet
EndChar

StartChar: asciitilde
Encoding: 126 126 135
Width: 661
Flags: HW
TeX: 694 0
ItalicCorrection: 118
HStem: 568 73<505.932 638.189> 621 73<336.559 470.377>
LayerCount: 2
Fore
SplineSet
260 600 m 0
 260 609 267 616 273 622 c 0
 314 663 352 694 405 694 c 0x40
 469 694 523 641 577 641 c 0
 634 641 666 693 684 693 c 0
 695 693 716 673 716 662 c 0
 716 651 702 639 693 631 c 0
 660 599 620 568 571 568 c 0x80
 502 568 456 621 398 621 c 0x40
 341 621 309 569 291 569 c 0
 280 569 260 589 260 600 c 0
EndSplineSet
EndChar

StartChar: Abreve
Encoding: 258 258 137
Width: 789
Flags: HW
TeX: 891 0
HStem: 0 59<67.0161 170.1 220 284.851 505.917 584 656.091 734.326> 216 59<349 564> 676 20<552.5 586.5> 753 62<514.82 685.557>
VStem: 442 60<830.511 891.654>
DStem2: 158 59 220 59 0.509725 0.860337<31.603 214.08 283.19 647.285> 601 665 535 588 0.0936461 -0.995606<70.481 384.821 444.03 601.745>
AnchorPoint: "below" 393 0 basechar 0
AnchorPoint: "above" 611 871 basechar 0
LayerCount: 2
Fore
SplineSet
442 855 m 0
 442 884 450 892 470 892 c 0
 472 892 474 892 476 892 c 0
 499 892 502 882 502 872 c 2
 502 863 l 2
 502 825 555 815 594 815 c 0
 637 815 693 828 715 864 c 0
 725 881 722 892 748 892 c 2
 757 892 l 2
 768 892 779 888 779 874 c 0
 779 835 709 753 586 753 c 0
 502 753 442 794 442 855 c 0
EndSplineSet
Refer: 74 65 S 1 0 0 1 0 0 3
AlternateSubs2: "Stilistic set 01 subtable" Abreve.vn
AlternateSubs2: "Latin alternatives subtable" Abreve.vn
Substitution2: "Latin Vietnamese substitutions subtable" Abreve.vn
EndChar

StartChar: Aogonek
Encoding: 260 260 138
Width: 789
Flags: HW
TeX: 688 194
HStem: -205 68<563.847 652.532> -0 59<67.0161 170.1 220 285.897 504.109 577 656.404 734.387> 216 59<349 564> 676 20G<554 586.5>
VStem: 506 81<-136.533 -52.5618>
DStem2: 158 59 220 59 0.509725 0.860337<31.603 214.08 283.19 647.285> 601 665 535 588 0.0936461 -0.995606<70.481 384.821 444.03 601.745>
AnchorPoint: "above" 569 695 basechar 0
LayerCount: 2
Fore
SplineSet
63 18 m 0
 63 22 67 49 78 55 c 0
 85 59 94 59 104 59 c 2
 158 59 l 1
 170 81 183 102 196 123 c 2
 520 670 l 2
 534 693 543 696 565 696 c 2
 573 696 l 2
 600 696 599 682 601 665 c 2
 642 226 l 2
 647 170 653 115 658 59 c 1
 712 59 l 2
 724 59 738 57 738 41 c 0
 738 37 735 11 724 4 c 0
 718 0 711 0 704 0 c 2
 682 0 l 2
 664 0 659 0 638 -16 c 0
 596 -49 587 -86 587 -103 c 0
 587 -118 595 -137 611 -137 c 0
 629 -137 639 -119 651 -119 c 0
 663 -119 685 -137 685 -149 c 0
 685 -167 636 -205 589 -205 c 0
 539 -205 506 -166 506 -119 c 0
 506 -68 541 -29 577 0 c 1
 529 0 l 2
 514 0 502 1 502 19 c 0
 502 58 523 59 537 59 c 2
 584 59 l 1
 569 216 l 1
 313 216 l 1
 220 59 l 1
 260 59 l 2
 275 59 288 58 288 39 c 0
 288 1 266 0 255 -0 c 2
 89 -0 l 2
 79 0 63 0 63 18 c 0
349 275 m 1
 564 275 l 1
 535 588 l 1
 349 275 l 1
EndSplineSet
Ligature2: "Latin ligatures subtable" A uni0328
EndChar

StartChar: Cacute
Encoding: 262 262 139
Width: 772
Flags: HW
TeX: 854 0
ItalicCorrection: 143
HStem: -11 58<336.873 528.958> 636 59<476.544 677.826> 742 61<520.797 590.646> 806 68<659.969 741.516>
VStem: 151 76<146.372 364.893>
AnchorPoint: "below" 416 0 basechar 0
AnchorPoint: "above" 626 854 basechar 0
LayerCount: 2
Fore
SplineSet
519 779 m 0
 519 794 529 797 544 803 c 0
 682 862 707 874 718 874 c 0
 736 874 747 860 747 845 c 0
 747 817 712 806 711 806 c 0
 558 747 546 742 539 742 c 0
 521 742 519 773 519 779 c 0
EndSplineSet
Refer: 76 67 S 1 0 0 1 0 0 3
EndChar

StartChar: Ccaron
Encoding: 268 268 140
Width: 772
Flags: HW
TeX: 891 0
ItalicCorrection: 143
HStem: -11 58<336.873 528.958> 636 59<476.544 677.826>
VStem: 151 76<146.372 364.893>
AnchorPoint: "below" 416 0 basechar 0
AnchorPoint: "above" 635 892 basechar 0
LayerCount: 2
Fore
SplineSet
528 883 m 0
 528 894 543 911 554 911 c 0
 566 911 640 863 654 854 c 1
 772 909 774 912 782 912 c 0
 795 912 802 895 802 885 c 0
 802 871 804 874 683 805 c 0
 658 791 653 787 645 787 c 0
 637 787 638 786 542 863 c 0
 535 869 528 875 528 883 c 0
EndSplineSet
Refer: 76 67 S 1 0 0 1 0 -0 3
EndChar

StartChar: Dcaron
Encoding: 270 270 141
Width: 808
Flags: HW
TeX: 891 0
ItalicCorrection: 91
HStem: -0 59<82.4375 179 249 527.993> 625 58<247.234 320 391 660.947>
VStem: 753 73<315.996 539.478>
DStem2: 164.246 -0 234.246 -0 0.242599 0.970127<77.7988 644.115>
AnchorPoint: "below" 377 0 basechar 0
AnchorPoint: "above" 603 903 basechar 0
LayerCount: 2
Fore
SplineSet
446 883 m 0
 446 894 461 911 472 911 c 0
 484 911 558 863 572 854 c 1
 690 909 691 912 699 912 c 0
 712 912 719 895 719 885 c 0
 719 871 721 874 600 805 c 0
 575 791 570 787 562 787 c 0
 554 787 555 786 459 863 c 0
 452 869 446 875 446 883 c 0
EndSplineSet
Refer: 77 68 S 1 0 0 1 0 -0 3
EndChar

StartChar: Ecaron
Encoding: 282 282 142
Width: 725
Flags: HW
TeX: 891 0
ItalicCorrection: 115
HStem: -0 59<82.7514 178 251 593.331> 324 58<332 499.734> 622 59<238.358 318 392 709.927>
VStem: 553 51<429.56 499.814> 710 71<479.499 669>
DStem2: 163.246 -0 236.246 -0 0.242599 0.970127<78.5266 351.622 412.498 640.962>
AnchorPoint: "below" 372 0 basechar 0
AnchorPoint: "above" 599 906 basechar 0
LayerCount: 2
Fore
SplineSet
421 883 m 0
 421 894 437 911 448 911 c 0
 460 911 534 863 548 854 c 1
 666 909 667 912 675 912 c 0
 688 912 695 895 695 885 c 0
 695 871 697 874 576 805 c 0
 551 791 546 787 538 787 c 0
 530 787 531 786 435 863 c 0
 428 869 421 875 421 883 c 0
EndSplineSet
Refer: 78 69 S 1 0 0 1 0 -0 3
EndChar

StartChar: Eogonek
Encoding: 280 280 143
Width: 725
Flags: HW
TeX: 688 194
ItalicCorrection: 115
HStem: -205 68<442.391 529.656> 0 59<83.0795 178 251 454 507.115 591.998> 324 58<332 499.734> 622 59<238.358 318 392 709.927>
VStem: 382 82<-135.84 -53.4187> 553 51<429.56 499.814> 710 71<479.499 669>
DStem2: 111.982 -205 184.982 -205 0.242599 0.970127<289.839 562.934 623.811 852.275>
AnchorPoint: "above" 515 695 basechar 0
LayerCount: 2
Fore
SplineSet
79 18 m 0
 79 22 83 48 94 55 c 0
 101 60 110 59 121 59 c 2
 178 59 l 1
 318 622 l 1
 256 622 l 2
 244 622 235 627 235 640 c 0
 235 641 237 669 248 677 c 0
 253 680 259 681 265 681 c 2
 756 681 l 2
 770 681 781 678 781 660 c 0
 781 653 765 524 756 455 c 0
 753 428 744 428 723 428 c 2
 722 428 l 2
 703 428 697 433 697 450 c 0
 697 472 710 536 710 594 c 0
 710 618 712 622 564 622 c 2
 392 622 l 1
 332 383 l 1
 354 383 375 382 397 382 c 0
 512 382 514 383 521 399 c 0
 535 431 542 484 553 494 c 0
 556 496 567 500 578 500 c 0
 591 500 605 495 604 480 c 0
 604 474 605 479 542 229 c 0
 537 208 526 207 515 207 c 2
 509 207 l 2
 489 207 483 213 483 225 c 0
 483 242 494 272 501 320 c 1
 474 323 447 324 419 324 c 2
 317 324 l 1
 251 59 l 1
 424 59 l 2
 461 59 565 59 583 71 c 0
 596 79 615 119 677 266 c 0
 685 285 694 286 706 286 c 2
 713 286 l 2
 731 286 737 280 737 270 c 0
 737 261 738 265 638 22 c 0
 629 1 622 0 607 -0 c 0
 590 0 573 0 556 -0 c 0
 511 0 464 -60 464 -102 c 0
 464 -120 474 -137 488 -137 c 0
 504 -137 517 -119 529 -119 c 0
 538 -119 562 -135 562 -149 c 0
 562 -167 511 -205 466 -205 c 0
 419 -205 382 -169 382 -119 c 0
 382 -68 417 -30 454 0 c 1
 103 0 l 2
 89 0 79 4 79 18 c 0
EndSplineSet
EndChar

StartChar: Gbreve
Encoding: 286 286 144
Width: 832
Flags: HW
TeX: 891 0
ItalicCorrection: 83
HStem: -11 58<336.927 579.491> 233 58<559.798 675 744.182 823.44> 636 59<477.362 722.692> 753 62<537.426 708.336>
VStem: 151 76<148.286 364.028> 465 60<830.511 891.654> 767 61<535.155 596.96>
LayerCount: 2
Fore
SplineSet
151 236 m 0
 151 437 303 695 591 695 c 0
 698 695 752 666 781 644 c 1
 782 644 l 1
 830 688 835 692 843 694 c 0
 852 696 860 692 860 682 c 0
 860 676 828 552 828 551 c 0
 824 536 817 535 805 535 c 2
 801 535 l 2
 774 535 769 536 767 551 c 0
 762 622 675 636 607 636 c 0
 324 636 227 386 227 244 c 0
 227 87 348 47 451 47 c 0
 648 47 646 119 657 161 c 0
 663 185 669 209 675 233 c 1
 579 233 l 2
 567 233 556 236 556 250 c 0
 556 257 561 284 573 289 c 0
 577 291 580 291 584 291 c 2
 801 291 l 2
 815 291 827 289 827 273 c 0
 827 272 824 245 814 237 c 0
 808 232 799 233 792 233 c 2
 749 233 l 1
 696 21 695 3 684 3 c 0
 677 3 668 13 654 47 c 1
 617 21 552 -11 421 -11 c 0
 249 -11 151 81 151 236 c 0
465 855 m 0
 465 884 473 892 493 892 c 0
 495 892 497 892 499 892 c 0
 522 892 525 882 525 872 c 0
 525 869 524 866 524 863 c 0
 524 825 578 815 617 815 c 0
 660 815 716 828 738 864 c 0
 748 881 745 892 771 892 c 2
 780 892 l 2
 791 892 802 889 802 875 c 0
 802 835 731 753 609 753 c 0
 525 753 465 794 465 855 c 0
EndSplineSet
EndChar

StartChar: Lacute
Encoding: 313 313 145
Width: 669
Flags: HW
TeX: 854 0
HStem: 0 59<82.7514 178 251 531.976> 625 58<238.854 319 392 509.125>
DStem2: 163.246 0 236.246 0 0.242599 0.970127<78.5266 644.115>
LayerCount: 2
Fore
SplineSet
297 779 m 0
 297 794 308 796 323 803 c 0
 484 872 485 874 496 874 c 0
 514 874 526 860 526 845 c 0
 526 822 503 812 489 806 c 0
 336 747 325 742 318 742 c 0
 300 742 297 773 297 779 c 0
EndSplineSet
Refer: 85 76 S 1 0 0 1 0 0 3
EndChar

StartChar: Lcaron
Encoding: 317 317 146
Width: 669
Flags: HW
TeX: 891 0
HStem: 0 59<82.7514 178 251 531.976> 625 58<238.854 319 392 509.125>
VStem: 592 116<676.323 756.228>
DStem2: 163.246 0 236.246 0 0.242599 0.970127<78.5266 644.115>
LayerCount: 2
Fore
SplineSet
562 576 m 0
 562 591 613 602 640 668 c 1
 599 669 592 694 592 710 c 0
 592 739 618 774 657 774 c 0
 687 774 708 750 708 712 c 0
 708 627 614 541 591 541 c 0
 581 541 562 568 562 576 c 0
EndSplineSet
Refer: 85 76 S 1 0 0 1 0 -0 3
EndChar

StartChar: Lslash
Encoding: 321 321 147
Width: 669
Flags: HW
TeX: 688 0
HStem: -0 59<82.7514 178 251 531.976> 625 58<238.854 319 392 509.125>
DStem2: 163.246 -0 236.246 -0 0.242599 0.970127<78.5266 290.498 352.314 398.926 460.035 644.115> 188 318 233 282 0.814791 0.579755<-41.9114 15.7944 191.46 376.894>
LayerCount: 2
Fore
SplineSet
79 18 m 0
 79 22 83 50 94 56 c 0
 98 58 103 59 108 59 c 2
 178 59 l 1
 233 282 l 1
 207 264 194 252 183 252 c 0
 169 252 157 279 157 287 c 0
 157 299 169 305 188 318 c 0
 210 334 231 350 254 365 c 1
 319 625 l 1
 260 625 l 2
 249 625 236 627 236 643 c 0
 236 644 237 677 254 682 c 0
 258 683 263 683 267 683 c 2
 475 683 l 2
 479 683 482 684 486 684 c 0
 500 684 513 682 513 666 c 0
 513 659 508 634 497 628 c 0
 492 626 487 625 482 625 c 2
 392 625 l 1
 344 429 l 1
 490 532 489 533 498 533 c 0
 511 533 525 508 525 498 c 0
 525 486 517 483 378 385 c 0
 360 372 342 358 323 346 c 1
 251 59 l 1
 380 59 l 2
 426 59 507 59 527 75 c 0
 539 85 561 135 607 263 c 0
 615 285 622 286 643 286 c 0
 654 286 668 285 668 269 c 0
 668 260 669 266 594 58 c 0
 575 6 577 0 551 -0 c 2
 101 -0 l 2
 90 0 79 4 79 18 c 0
EndSplineSet
EndChar

StartChar: Nacute
Encoding: 323 323 148
Width: 789
Flags: HW
TeX: 854 0
ItalicCorrection: 148
HStem: 0 59<84.6521 180 239 318.417> 625 58<241.496 321 640.134 720 779 873.646> 742 61<488.197 558.604> 806 68<627.554 708.516>
DStem2: 165.246 0 224.246 0 0.242599 0.970127<75.1302 601.918> 409 652 367 570 0.340233 -0.940341<62.8182 552.001> 563.741 0 623.248 0 0.242599 0.970127<137.096 644.237>
LayerCount: 2
Fore
SplineSet
486 779 m 0
 486 794 497 797 512 803 c 0
 650 862 674 874 685 874 c 0
 703 874 714 860 714 845 c 0
 714 817 679 806 678 806 c 0
 525 747 514 742 507 742 c 0
 489 742 486 773 486 779 c 0
EndSplineSet
Refer: 87 78 S 1 0 0 1 0 0 3
EndChar

StartChar: Ncaron
Encoding: 327 327 149
Width: 789
Flags: HW
TeX: 891 0
ItalicCorrection: 148
HStem: -0 59<84.6521 180 239 318.417> 625 58<241.496 321 640.134 720 779 873.646>
DStem2: 165.246 -0 224.246 -0 0.242599 0.970127<75.1302 601.918> 409 652 367 570 0.340233 -0.940341<62.8182 552.001> 563.741 -0 623.248 -0 0.242599 0.970127<137.096 644.237>
LayerCount: 2
Fore
SplineSet
478 883 m 0
 478 894 493 911 504 911 c 0
 516 911 590 863 604 854 c 1
 722 909 724 912 732 912 c 0
 745 912 752 895 752 885 c 0
 752 871 754 874 633 805 c 0
 608 791 602 787 594 787 c 0
 586 787 588 786 492 863 c 0
 485 869 478 875 478 883 c 0
EndSplineSet
Refer: 87 78 S 1 0 0 1 0 -0 3
EndChar

StartChar: Eng
Encoding: 330 330 150
Width: 836
Flags: HW
TeX: 688 0
ItalicCorrection: 170
HStem: -11 59<535.594 666.578> -0 59<82.8365 178 251 331.759> 625 58<239.731 319> 650 59<513.403 719.84>
VStem: 236 166<625.252 682.525> 461 87<81.04 144.743> 802 73<396.805 575.217>
DStem2: 160.495 -11 233.495 -11 0.242599 0.970127<89.8653 599.629> 678.238 -11 751.988 -11 0.242599 0.970127<87.8899 525.642>
LayerCount: 2
Fore
SplineSet
79 18 m 0
 79 22 83 49 94 55 c 0
 101 59 111 59 121 59 c 2
 178 59 l 1
 319 625 l 1
 258 625 l 2
 241 625 236 632 236 642 c 0
 236 647 237 653 239 659 c 0
 243 675 246 683 265 683 c 2
 377 683 l 2x6e
 386 683 402 683 402 668 c 0
 402 662 398 649 391 620 c 1
 444 661 528 709 636 709 c 0
 772 709 875 628 875 507 c 0
 875 478 868 456 863 434 c 2
 794 157 l 2
 783 114 772 81 739 48 c 0
 701 9 646 -11 593 -11 c 0
 516 -11 461 30 461 92 c 0
 461 140 492 155 512 155 c 0
 532 155 548 142 548 121 c 0
 548 105 539 91 525 80 c 1
 536 66 555 48 599 48 c 0x9e
 648 48 696 78 715 136 c 0
 718 145 720 154 722 164 c 2
 792 442 l 2
 796 460 802 477 802 501 c 0
 802 590 724 650 621 650 c 0
 486 650 374 551 357 483 c 2
 251 59 l 1
 307 59 l 2
 323 59 334 58 334 40 c 0x5e
 334 3 314 0 302 -0 c 2
 104 -0 l 2
 94 0 79 1 79 18 c 0
EndSplineSet
EndChar

StartChar: Ohungarumlaut
Encoding: 336 336 151
Width: 828
Flags: HW
TeX: 854 0
ItalicCorrection: 91
HStem: -11 63<326.762 538.685> 633 62<458.303 678.281> 742 61<465.197 535.646> 806 68<604.969 686.516>
VStem: 150 79<148.187 362.417> 772 73<322.497 541.181>
AnchorPoint: "below" 412 0 basechar 0
AnchorPoint: "above" 627 854 basechar 0
LayerCount: 2
Fore
SplineSet
463 779 m 0
 463 794 474 797 489 803 c 0
 627 862 652 874 663 874 c 0
 681 874 692 860 692 845 c 0
 692 817 657 806 656 806 c 0
 503 747 491 742 484 742 c 0
 466 742 463 773 463 779 c 0
630 778 m 1
 630 796 631 792 800 865 c 0
 803 866 817 874 829 874 c 0
 847 874 858 860 858 845 c 0
 858 822 838 812 822 806 c 0
 670 747 657 742 650 742 c 0
 630 742 630 778 630 778 c 1
EndSplineSet
Refer: 88 79 S 1 0 0 1 0 0 3
EndChar

StartChar: Racute
Encoding: 340 340 152
Width: 781
Flags: HW
TeX: 854 0
ItalicCorrection: 30
HStem: -11 59<625.84 699.673> 0 59<83.8365 179 249 329.759> 313 58<328 537.673> 625 58<239.989 320 391 634.989> 742 61<487.197 557.646> 806 68<626.969 709.203>
VStem: 544 76<52.8316 193.912> 573 72<137.135 281.222> 682 77<457.427 584.095>
DStem2: 161.495 -11 231.495 -11 0.242599 0.970127<89.1375 351.076 410.982 655.454>
AnchorPoint: "below" 336 0 basechar 0
AnchorPoint: "above" 552 865 basechar 0
LayerCount: 2
Fore
SplineSet
485 779 m 0
 485 794 496 797 511 803 c 0
 649 862 674 874 685 874 c 0
 703 874 714 860 714 845 c 0
 714 821 692 811 678 806 c 0
 525 747 513 742 506 742 c 0x3c80
 488 742 485 773 485 779 c 0
EndSplineSet
Refer: 91 82 S 1 0 0 1 -0 0 3
EndChar

StartChar: Rcaron
Encoding: 344 344 153
Width: 781
Flags: HW
TeX: 891 0
ItalicCorrection: 30
HStem: -11 59<625.84 699.673> -0 59<83.8365 179 249 329.759> 313 58<328 537.673> 625 58<239.989 320 391 634.989>
VStem: 544 76<52.8316 193.912> 573 72<137.135 281.222> 682 77<457.427 584.095>
DStem2: 161.495 -11 231.495 -11 0.242599 0.970127<89.1375 351.076 410.982 655.454>
AnchorPoint: "below" 336 0 basechar 0
AnchorPoint: "above" 561 903 basechar 0
LayerCount: 2
Fore
SplineSet
424 883 m 0
 424 894 440 911 451 911 c 0x32
 463 911 536 863 550 854 c 1
 668 909 670 912 678 912 c 0
 691 912 698 895 698 885 c 0
 698 871 700 874 579 805 c 0
 554 791 549 787 541 787 c 0
 533 787 534 786 438 863 c 0
 431 869 424 875 424 883 c 0
EndSplineSet
Refer: 91 82 S 1 0 0 1 0 -0 3
EndChar

StartChar: Sacute
Encoding: 346 346 154
Width: 606
Flags: HW
TeX: 854 0
ItalicCorrection: 115
HStem: -11 59<242.408 420.269> 639 56<350.806 511.921> 742 61<382.197 452.646> 806 68<521.892 602.516>
VStem: 81 106<-3.5 191.288> 203 70<436.401 560.159> 507 69<139.095 273.304> 554 61<456.047 510.114> 557 109<490.712 688>
AnchorPoint: "below" 329 0 basechar 0
AnchorPoint: "above" 486 854 basechar 0
LayerCount: 2
Fore
SplineSet
380 779 m 0
 380 794 391 797 406 803 c 0
 544 862 569 874 580 874 c 0
 598 874 608 860 608 845 c 0
 608 817 573 806 572 806 c 0
 419 747 408 742 401 742 c 0xfc
 383 742 380 773 380 779 c 0
EndSplineSet
Refer: 92 83 S 1 0 0 1 0 0 3
EndChar

StartChar: Scaron
Encoding: 352 352 155
Width: 606
Flags: HW
TeX: 891 0
ItalicCorrection: 115
HStem: -11 59<242.408 420.269> 639 56<350.806 511.921>
VStem: 81 106<-3.5 191.288> 203 70<436.401 560.159> 507 69<139.095 273.304> 554 61<456.047 510.114> 557 109<490.712 688>
AnchorPoint: "below" 329 0 basechar 0
AnchorPoint: "above" 495 892 basechar 0
LayerCount: 2
Fore
SplineSet
386 883 m 0
 386 894 401 911 412 911 c 0xf0
 424 911 498 863 512 854 c 1
 630 909 632 912 640 912 c 0
 653 912 660 895 660 885 c 0
 660 871 662 874 541 805 c 0
 516 791 511 787 503 787 c 0
 495 787 496 786 400 863 c 0
 393 869 386 875 386 883 c 0
EndSplineSet
Refer: 92 83 S 1 0 0 1 0 0 3
EndChar

StartChar: Scedilla
Encoding: 350 350 156
Width: 606
Flags: HW
TeX: 688 170
ItalicCorrection: 115
HStem: -195 58<172.948 339.743> -10 57<244.266 293 362 420.841> 639 56<351.206 512.056>
VStem: 81 106<-5 191.288> 132 60<169.209 226.9> 203 70<436.663 560.458> 355 69<-118.592 -66.1306> 507 69<139.005 272.001> 555 60<456.02 510.022> 557 109<490.689 688>
LayerCount: 2
Fore
SplineSet
81 1 m 0xf7
 81 5 81 4 132 208 c 0
 137 227 143 227 156 227 c 2
 159 227 l 2
 163 227 166 228 170 228 c 0
 182 228 192 226 192 215 c 0xee
 192 206 187 194 187 168 c 0
 187 71 275 47 336 47 c 0
 455 47 507 150 507 211 c 0xf7
 507 261 475 286 459 295 c 0
 436 307 320 332 291 344 c 0
 258 357 203 396 203 474 c 0
 203 567 287 695 446 695 c 0
 534 695 573 654 593 621 c 1
 594 621 l 1
 629 674 637 688 644 692 c 0
 653 697 666 694 666 682 c 0xe640
 666 678 666 679 615 475 c 0
 610 457 605 456 591 456 c 2xe680
 575 456 l 2
 560 456 555 459 555 470 c 0xe680
 555 478 557 490 557 511 c 0xe640
 557 596 511 639 436 639 c 0
 327 639 273 552 273 493 c 0
 273 393 400 403 486 368 c 0
 533 349 576 302 576 230 c 0
 576 150 516 13 362 -9 c 1
 362 -10 l 1
 407 -24 424 -54 424 -83 c 0
 424 -123 396 -165 337 -182 c 0
 292 -195 247 -195 193 -195 c 0
 175 -195 169 -189 169 -178 c 0
 169 -175 170 -171 171 -167 c 0
 177 -140 180 -137 205 -137 c 2
 207 -137 l 2
 252 -137 355 -136 355 -89 c 0
 355 -77 344 -66 319 -62 c 0
 308 -60 286 -62 286 -42 c 0
 286 -33 290 -21 293 -10 c 1
 225 -2 182 22 153 62 c 1
 152 62 l 1
 152 62 112 -4 103 -9 c 0
 94 -14 81 -11 81 1 c 0xf7
EndSplineSet
EndChar

StartChar: Tcaron
Encoding: 356 356 157
Width: 772
Flags: HW
TeX: 891 0
ItalicCorrection: 129
HStem: 0 59<231.983 363 437 552.908> 619 59<287.814 503 577 781.593>
VStem: 762 60<425.359 585.092>
DStem2: 348.246 0 422.246 0 0.242599 0.970127<78.7691 638.052>
AnchorPoint: "below" 384 0 basechar 0
AnchorPoint: "above" 612 909 basechar 0
LayerCount: 2
Fore
SplineSet
469 883 m 0
 469 894 484 911 495 911 c 0
 507 911 581 863 595 854 c 1
 713 909 715 912 723 912 c 0
 736 912 743 895 743 885 c 0
 743 871 745 874 624 805 c 0
 599 791 594 787 586 787 c 0
 578 787 579 786 483 863 c 0
 476 869 469 875 469 883 c 0
EndSplineSet
Refer: 93 84 S 1 0 0 1 0 -0 3
EndChar

StartChar: Tcommaaccent
Encoding: 354 354 158
Width: 772
Flags: HW
TeX: 688 170
ItalicCorrection: 129
HStem: -195 58<227.958 393.789> 0 59<231.49 351 437 553.109> 619 59<287.426 503 577 781.593>
VStem: 410 69<-118.2 -65.7229>
DStem2: 302.236 -195 370.737 -195 0.242599 0.970127<279.106 838.388>
LayerCount: 2
Fore
SplineSet
171 442 m 0
 171 451 171 445 241 653 c 0
 247 671 253 678 270 678 c 2
 833 678 l 2
 844 678 855 674 855 659 c 0
 855 649 855 658 822 453 c 0
 819 433 816 425 793 425 c 2
 787 425 l 2
 767 425 762 431 762 443 c 0
 762 460 780 544 783 612 c 1
 753 619 722 619 687 619 c 2
 577 619 l 1
 437 59 l 1
 532 59 l 2
 546 59 557 55 557 41 c 0
 557 37 553 10 542 3 c 0
 537 0 531 0 526 0 c 2
 419 0 l 1
 417 -10 l 1
 445 -19 479 -41 479 -82 c 0
 479 -122 451 -165 391 -182 c 0
 347 -195 301 -195 248 -195 c 0
 230 -195 224 -189 224 -178 c 0
 224 -175 225 -171 226 -167 c 0
 232 -139 237 -137 260 -137 c 2
 263 -137 l 2
 307 -137 410 -136 410 -89 c 0
 410 -73 390 -64 374 -62 c 1
 362 -59 342 -62 342 -42 c 0
 342 -34 347 -17 351 0 c 1
 253 0 l 2
 240 0 228 3 228 18 c 0
 228 21 231 52 245 57 c 0
 250 59 256 59 261 59 c 2
 363 59 l 1
 503 619 l 1
 420 619 l 2
 369 619 306 620 293 606 c 0
 280 592 251 501 232 447 c 0
 225 427 219 425 202 425 c 2
 197 425 l 2
 187 425 171 426 171 442 c 0
EndSplineSet
EndChar

StartChar: Uhungarumlaut
Encoding: 368 368 159
Width: 789
Flags: HW
TeX: 854 0
ItalicCorrection: 148
HStem: -11 58<324.307 498.757> 625 58<238.333 318 392 486.375 640.611 721 780 874.663> 742 61<446.082 516.604 612.405 682.646> 806 68<585.554 667.203 751.969 833.516>
VStem: 211 72<87.93 272.945>
DStem2: 159.231 -11 233.481 -11 0.242599 0.970127<196.631 655.518> 561.732 -11 620.982 -11 0.242599 0.970127<142.037 655.639>
AnchorPoint: "below" 401 0 basechar 0
AnchorPoint: "above" 609 865 basechar 0
LayerCount: 2
Fore
SplineSet
444 778 m 1
 444 794 457 797 470 803 c 0
 608 862 632 874 643 874 c 0
 661 874 672 860 672 845 c 0
 672 822 652 812 636 806 c 0
 484 747 472 742 465 742 c 0
 445 742 444 778 444 778 c 1
610 779 m 0
 610 792 618 795 636 803 c 0
 774 862 799 874 810 874 c 0
 828 874 839 860 839 845 c 0
 839 817 804 807 803 806 c 0
 650 747 638 742 631 742 c 0
 612 742 610 777 610 779 c 0
EndSplineSet
Refer: 94 85 S 1 0 0 1 0 0 3
EndChar

StartChar: Uring
Encoding: 366 366 160
Width: 789
Flags: HW
TeX: 891 0
ItalicCorrection: 148
HStem: -11 58<324.307 498.757> 625 58<238.333 318 392 486.375 640.611 721 780 874.663> 695 58<542.736 643.254> 841 59<553.51 656.468>
VStem: 211 72<87.93 272.945> 485 57<756.193 828.599> 657 57<764.632 838.589>
DStem2: 159.231 -11 233.481 -11 0.242599 0.970127<196.631 655.518> 561.732 -11 620.982 -11 0.242599 0.970127<142.037 655.639>
LayerCount: 2
Fore
SplineSet
485 770 m 0
 485 832 537 900 625 900 c 0
 662 900 714 885 714 825 c 0
 714 763 662 695 573 695 c 0
 519 695 485 722 485 770 c 0
542 782 m 0
 542 759 559 753 587 753 c 0
 620 753 646 759 655 800 c 0
 656 804 657 809 657 813 c 0
 657 836 639 841 611 841 c 0
 577 841 553 835 544 795 c 0
 543 791 542 786 542 782 c 0
EndSplineSet
Refer: 94 85 S 1 0 0 1 -0 0 3
EndChar

StartChar: Ydieresis
Encoding: 376 376 161
Width: 789
Flags: HW
TeX: 891 0
ItalicCorrection: 195
HStem: 0 59<278.625 377.519 443 523.936> 625 58<204.442 288 371 434.655 693.115 741 791.984 890 891 901.716> 786 105<468.994 543.268 663.541 737.691>
VStem: 373 70<59 140.308> 452 108<803.139 874.038> 647 107<802.514 874.863>
DStem2: 371 625 288 625 0.368998 -0.92943<0 308.443> 484 338 511 289 0.666444 0.745555<0 385.25>
AnchorPoint: "below" 393 0 basechar 0
AnchorPoint: "above" 614 882 basechar 0
LayerCount: 2
Fore
SplineSet
452 830 m 0
 452 861 482 891 515 891 c 0
 541 891 560 871 560 847 c 0
 560 817 531 786 497 786 c 0
 471 786 452 806 452 830 c 0
647 830 m 0
 647 861 676 891 709 891 c 0
 736 891 754 871 754 847 c 0
 754 815 723 786 691 786 c 0
 666 786 647 803 647 830 c 0
EndSplineSet
Refer: 98 89 S 1 0 0 1 0 0 3
EndChar

StartChar: Zacute
Encoding: 377 377 162
Width: 661
Flags: HW
TeX: 854 0
ItalicCorrection: 143
HStem: 0 61<193 521.107> 625 58<327.335 638>
DStem2: 106 62 193 61 0.686813 0.726834<59.0259 774.592>
AnchorPoint: "below" 332 0 basechar 0
AnchorPoint: "above" 548 866 basechar 0
LayerCount: 2
Fore
SplineSet
435 779 m 0
 435 794 447 796 462 803 c 0
 623 872 624 874 635 874 c 0
 653 874 664 860 664 845 c 0
 664 822 642 812 628 806 c 0
 475 747 463 742 456 742 c 0
 438 742 435 773 435 779 c 0
EndSplineSet
Refer: 99 90 S 1 0 0 1 0 0 3
EndChar

StartChar: Zcaron
Encoding: 381 381 163
Width: 661
Flags: HW
TeX: 891 0
ItalicCorrection: 143
HStem: -0 61<193 521.107> 625 58<327.335 638>
DStem2: 106 62 193 61 0.686813 0.726834<59.0259 774.592>
AnchorPoint: "below" 332 0 basechar 0
AnchorPoint: "above" 557 904 basechar 0
LayerCount: 2
Fore
SplineSet
415 883 m 0
 415 894 430 911 441 911 c 0
 453 911 527 863 541 854 c 1
 659 909 661 912 669 912 c 0
 682 912 689 895 689 885 c 0
 689 871 691 874 570 805 c 0
 545 791 539 787 531 787 c 0
 523 787 525 786 429 863 c 0
 422 869 415 875 415 883 c 0
EndSplineSet
Refer: 99 90 S 1 0 0 1 0 -0 3
EndChar

StartChar: Zdotaccent
Encoding: 379 379 164
Width: 661
Flags: HW
TeX: 854 0
ItalicCorrection: 143
HStem: 0 61<193 521.107> 625 58<327.335 638> 767 105<524.732 599.356>
VStem: 508 108<784.139 855.038>
DStem2: 106 62 193 61 0.686813 0.726834<59.0259 774.592>
AnchorPoint: "below" 332 0 basechar 0
AnchorPoint: "above" 547 864 basechar 0
LayerCount: 2
Fore
SplineSet
508 811 m 0
 508 846 542 872 571 872 c 0
 598 872 616 852 616 828 c 0
 616 798 587 767 553 767 c 0
 527 767 508 787 508 811 c 0
EndSplineSet
Refer: 99 90 S 1 0 0 1 0 0 3
EndChar

StartChar: IJ
Encoding: 306 306 165
Width: 900
Flags: HW
TeX: 688 0
ItalicCorrection: 126
HStem: -11 59<533.687 667.952> -0 59<77.5094 177 250 334.623> 625 58<233.457 318 392 490.689 733.493 840 905.554 984.553>
VStem: 460 87<80.8555 144.346>
DStem2: 159.495 -11 232.495 -11 0.242599 0.970127<89.8653 655.454> 681.236 -11 752.238 -11 0.242599 0.970127<90.3035 655.516>
LayerCount: 2
Fore
SplineSet
74 18 m 0
 74 22 77 48 88 55 c 0
 92 58 98 59 103 59 c 2
 177 59 l 1
 318 625 l 1
 251 625 l 2
 240 625 230 629 230 642 c 0
 230 643 232 677 249 682 c 0
 253 683 257 683 261 683 c 2
 474 683 l 2
 482 683 494 680 494 666 c 0
 494 662 491 635 480 628 c 0
 476 625 471 625 466 625 c 2
 392 625 l 1
 250 59 l 1
 317 59 l 2
 325 59 338 55 338 41 c 0
 338 39 336 6 319 1 c 0
 315 0 311 0 307 -0 c 2
 101 -0 l 2x70
 85 0 74 4 74 18 c 0
EndSplineSet
Refer: 83 74 S 1 0 0 1 341 0 2
Ligature2: "Latin Dutch ligatures subtable" I J
EndChar

StartChar: Idotaccent
Encoding: 304 304 166
Width: 400
Flags: HW
TeX: 854 0
ItalicCorrection: 156
HStem: 0 59<78.0795 177 250 334.623> 625 58<233.854 318 392 490.601> 767 105<366.258 440.356>
VStem: 350 107<784.139 855.038>
DStem2: 162.246 0 235.246 0 0.242599 0.970127<78.5266 644.115>
LayerCount: 2
Fore
SplineSet
350 811 m 0
 350 846 384 872 413 872 c 0
 440 872 457 852 457 828 c 0
 457 798 428 767 394 767 c 0
 368 767 350 787 350 811 c 0
EndSplineSet
Refer: 82 73 S 1 0 0 1 0 0 3
EndChar

StartChar: dcroat
Encoding: 273 273 167
Width: 550
Flags: HW
TeX: 694 0
ItalicCorrection: 95
HStem: -5 58<207.429 318.118 449.1 503.179> 405 59<286.342 399.933> 513 59<367.798 479 562 617.356> 622 53<434.337 504.478> 674 20G<440 575>
VStem: 116 71<72.9179 255.307> 534 55<89.3649 160.97>
DStem2: 349.97 -5 417.467 -5 0.242599 0.970127<120.704 321.023 437.056 533.828 611.201 643.896>
LayerCount: 2
Fore
SplineSet
116 144 m 0
 116 278 208 464 359 464 c 0
 401 464 432 448 455 419 c 1
 456 419 l 1
 479 513 l 1
 387 513 l 2
 375 513 364 517 364 531 c 0
 364 535 368 563 379 569 c 0
 384 572 390 572 395 572 c 2
 494 572 l 1
 506 620 l 1
 491 621 475 622 460 622 c 1
 460 622 441 621 434 627 c 0
 430 630 429 635 429 641 c 0
 429 654 436 671 440 675 c 0xf6
 449 683 568 694 568 694 c 1xee
 582 694 586 686 586 677 c 0
 586 667 568 593 562 572 c 1
 594 572 l 2
 607 572 621 571 621 554 c 0
 621 550 617 522 606 516 c 0
 600 512 592 513 585 513 c 2
 547 513 l 1
 544 498 540 484 536 469 c 2
 452 132 l 2
 450 123 445 109 445 95 c 0
 445 64 466 54 477 54 c 0
 515 54 525 144 534 155 c 0
 540 162 551 161 563 161 c 0
 582 161 589 160 589 150 c 0
 589 147 561 -5 466 -5 c 0
 430 -5 396 14 381 55 c 1
 352 28 307 -5 246 -5 c 0
 192 -5 116 25 116 144 c 0
187 140 m 0
 187 67 229 53 257 53 c 0
 311 53 368 107 393 171 c 1
 393 171 424 276 424 309 c 0
 424 354 404 405 349 405 c 0xe6
 220 405 187 181 187 140 c 0
EndSplineSet
AlternateSubs2: "Stilistic set 01 subtable" dcroat.vn
AlternateSubs2: "Latin alternatives subtable" dcroat.vn
Substitution2: "Latin Vietnamese substitutions subtable" dcroat.vn
EndChar

StartChar: section
Encoding: 167 167 168
Width: 494
Flags: HW
TeX: 694 194
HStem: -200 59<159.221 276.218> 641 59<341.614 457.938>
VStem: 87 61<-128.712 -49.5692> 153 51<184.663 294.963> 223 51<463.772 573.75> 342 52<-74.1732 36.8105> 413 51<205.161 315.551> 468 62<549.648 628.851>
LayerCount: 2
Fore
SplineSet
87 -95 m 0
 87 -43 114 -33 131 -33 c 0
 147 -33 158 -44 158 -59 c 0
 158 -73 148 -83 148 -93 c 0
 148 -103 160 -141 209 -141 c 0
 281 -141 342 -69 342 -14 c 0
 342 45 274 68 246 82 c 0
 204 104 153 148 153 219 c 0
 153 290 204 363 267 397 c 1
 243 424 223 454 223 500 c 0
 223 598 319 700 419 700 c 0
 482 700 530 658 530 595 c 0
 530 548 506 533 487 533 c 0
 470 533 459 543 459 559 c 0
 459 574 468 579 468 594 c 0
 468 613 448 641 407 641 c 0
 341 641 274 573 274 514 c 0
 274 453 352 427 370 418 c 0
 410 397 464 353 464 281 c 0
 464 210 413 138 350 103 c 1
 375 74 394 46 394 0 c 0
 394 -98 298 -200 198 -200 c 0
 135 -200 87 -158 87 -95 c 0
204 234 m 0
 204 175 284 142 298 142 c 0
 334 142 413 198 413 266 c 0
 413 325 333 358 319 358 c 0
 283 358 204 302 204 234 c 0
EndSplineSet
EndChar

StartChar: abreve
Encoding: 259 259 169
Width: 550
Flags: HW
TeX: 666 0
ItalicCorrection: 95
HStem: -5 58<207.429 319.149 449.1 504.719> 405 59<285.812 399.142> 508 62<344.536 490.508>
VStem: 116 71<72.9179 254.233> 265 60<592.362 665.723> 534 55<91.6838 160.895> 543 60<614.145 665.84>
AnchorPoint: "below" 243 0 basechar 0
AnchorPoint: "above" 405 647 basechar 0
LayerCount: 2
Fore
SplineSet
265 624 m 0
 265 666 281 666 294 666 c 2
 297 666 l 2
 298 666 300 667 301 667 c 0
 322 667 326 659 326 647 c 0
 326 642 325 638 325 632 c 0xfa
 325 588 375 570 413 570 c 0
 467 570 525 600 543 647 c 0
 550 663 554 666 570 666 c 2
 582 666 l 2
 595 666 603 660 603 649 c 0
 603 612 532 508 405 508 c 0
 329 508 265 552 265 624 c 0
EndSplineSet
Refer: 106 97 S 1 0 0 1 -0 -0 3
AlternateSubs2: "Stilistic set 01 subtable" abreve.vn
AlternateSubs2: "Latin alternatives subtable" abreve.vn
Substitution2: "Latin Vietnamese substitutions subtable" abreve.vn
EndChar

StartChar: aogonek
Encoding: 261 261 170
Width: 550
Flags: HW
TeX: 458 194
ItalicCorrection: 95
HStem: -205 59<406.188 477.456> -5 58<207.429 319.149> 405 59<285.988 399.142>
VStem: 116 71<72.9179 254.448> 327 77<-145.34 -66.8901> 534 55<89.5911 160.895>
AnchorPoint: "above" 359 464 basechar 0
LayerCount: 2
Fore
SplineSet
116 144 m 0
 116 274 206 464 359 464 c 0
 399 464 429 450 456 419 c 1
 465 440 478 448 494 448 c 0
 512 448 522 436 522 421 c 0
 522 411 518 397 515 385 c 2
 450 127 l 2
 447 116 445 105 445 94 c 0
 445 64 466 54 477 54 c 0
 515 54 527 143 534 154 c 0
 537 158 540 161 560 161 c 0
 583 161 589 159 589 149 c 0
 589 141 567 51 520 13 c 0
 494 -8 404 -49 404 -113 c 0
 404 -131 415 -146 431 -146 c 0
 450 -146 459 -130 471 -130 c 0
 480 -130 505 -149 505 -159 c 0
 505 -173 464 -205 418 -205 c 0
 370 -205 327 -174 327 -126 c 0
 327 -59 408 -12 429 2 c 1
 406 12 389 30 381 55 c 1
 351 27 307 -5 246 -5 c 0
 192 -5 116 25 116 144 c 0
187 140 m 0
 187 67 229 53 257 53 c 0
 311 53 368 106 393 172 c 1
 393 172 424 275 424 308 c 0
 424 353 404 405 349 405 c 0
 220 405 187 181 187 140 c 0
EndSplineSet
EndChar

StartChar: dcaron
Encoding: 271 271 173
Width: 550
Flags: HW
TeX: 694 0
ItalicCorrection: 95
HStem: -5 58<207.429 318.118 448.895 504.459> 405 59<286.342 399.933> 620 55<430.777 504.864> 674 20<440 575>
VStem: 116 71<72.9179 255.307> 534 55<90.8245 161> 627 116<634.323 713.749>
DStem2: 349.97 -5 417.954 -5 0.242599 0.970127<119.644 321.023 437.056 644.182>
LayerCount: 2
Fore
SplineSet
597 534 m 0
 597 548 647 560 675 626 c 1
 634 627 627 651 627 667 c 0
 627 699 656 732 692 732 c 0
 727 732 743 702 743 670 c 0xce
 743 585 649 499 626 499 c 0
 616 499 597 527 597 534 c 0
EndSplineSet
Refer: 109 100 S 1 0 0 1 -0 0 3
EndChar

StartChar: eogonek
Encoding: 281 281 175
Width: 494
Flags: HW
TeX: 458 194
ItalicCorrection: 89
HStem: -205 61<273.737 343.975> -6 59<227.263 280> 226 59<217 398.524> 405 59<295.345 433.754>
VStem: 123 71<85.2716 224.042> 195 77<-143.496 -66.5064> 443 62<318.408 393.649>
AnchorPoint: "above" 386 464 basechar 0
LayerCount: 2
Fore
SplineSet
123 164 m 0
 123 325 228 464 386 464 c 0
 455 464 505 425 505 368 c 0
 505 326 479 265 381 241 c 0
 326 227 267 226 202 226 c 1
 198 204 194 182 194 160 c 0
 194 93 226 53 289 53 c 0
 407 53 452 125 467 125 c 0
 476 125 497 101 497 93 c 0
 497 81 465 52 429 32 c 0
 405 19 272 -31 272 -113 c 0
 272 -128 279 -144 297 -144 c 0
 316 -144 329 -126 340 -126 c 0
 349 -126 373 -147 373 -156 c 0
 373 -169 330 -205 281 -205 c 0
 235 -205 195 -174 195 -126 c 0
 195 -78 237 -33 280 -6 c 1
 177 -5 123 59 123 164 c 0
217 285 m 1
 250 285 l 2
 317 285 443 291 443 359 c 0
 443 378 427 405 376 405 c 0
 320 405 252 380 217 285 c 1
EndSplineSet
EndChar

StartChar: gbreve
Encoding: 287 287 176
Width: 494
Flags: HW
TeX: 666 194
ItalicCorrection: 92
HStem: -200 59<140.074 288.25> 0 59<207.888 321.07> 405 59<288.417 400.553> 508 62<316.867 462.508>
VStem: 60 80<-140.435 -106.456> 117 71<78.3415 258.823> 237 61<589.594 665.723> 424 98<302.5 429.5> 515 60<614.145 665.84>
LayerCount: 2
Fore
SplineSet
237 624 m 0
 237 666 253 666 266 666 c 2
 269 666 l 2
 270 666 272 667 273 667 c 0
 294 667 298 659 298 647 c 2
 298 632 l 2xf280
 298 588 347 570 385 570 c 0
 439 570 497 600 515 647 c 0
 522 663 526 666 542 666 c 2
 554 666 l 2
 567 666 575 660 575 649 c 0
 575 612 504 508 377 508 c 0
 301 508 237 552 237 624 c 0
EndSplineSet
Refer: 112 103 S 1 0 0 1 -0 -0 3
EndChar

StartChar: lcaron
Encoding: 318 318 178
Width: 272
Flags: HW
TeX: 694 0
ItalicCorrection: 95
HStem: -5 59<170.837 228.581> 620 56<152.883 228> 674 20<163 298>
VStem: 99 68<57.352 186.398> 253 59<82.3898 160.998> 350 115<634.323 713.749>
DStem2: 71.9883 -5 140.491 -5 0.242599 0.970127<120.518 644.177>
LayerCount: 2
Fore
SplineSet
320 534 m 0
 320 548 369 560 397 626 c 1
 356 627 350 651 350 667 c 0
 350 699 379 732 415 732 c 0
 450 732 465 702 465 670 c 0x9c
 465 585 372 499 349 499 c 0
 339 499 320 527 320 534 c 0
EndSplineSet
Refer: 117 108 S 1 0 0 1 0 0 3
EndChar

StartChar: lslash
Encoding: 322 322 179
Width: 328
Flags: HW
TeX: 694 0
ItalicCorrection: 95
HStem: -6 60<184.227 241.98> 622 72<173.785 242> 622 59<168.146 240.376>
VStem: 113 68<57.3288 189.407> 165 157<624.654 679.866> 271 54<91.9343 160.935>
DStem2: 85.2297 -6 152.977 -6 0.242599 0.970127<122.156 299.961 360.296 401.443 462.949 642.373>
AnchorPoint: "above" 294 694 basechar 0
LayerCount: 2
Fore
SplineSet
78 287 m 0
 78 298 89 304 103 314 c 0
 192 377 177 361 186 398 c 2
 242 620 l 1
 227 621 211 622 195 622 c 2
 190 622 l 2xd4
 170 622 165 629 165 640 c 0
 165 644 166 650 167 655 c 0
 171 671 174 678 192 681 c 1xa8
 229 685 300 694 304 694 c 0
 317 694 322 688 322 677 c 0xc8
 322 659 286 530 262 427 c 1
 319 467 328 474 336 474 c 0
 349 474 363 449 363 439 c 0
 363 426 345 417 330 407 c 0
 234 339 242 348 235 322 c 0
 184 117 181 104 181 94 c 0
 181 65 201 54 213 54 c 0
 252 54 262 145 271 156 c 0
 275 160 287 161 297 161 c 0
 320 161 325 159 325 149 c 0xd4
 325 146 296 -6 203 -6 c 0
 158 -6 113 27 113 87 c 0
 113 120 136 188 158 285 c 1
 129 264 115 252 104 252 c 0
 92 252 78 278 78 287 c 0
EndSplineSet
EndChar

StartChar: eng
Encoding: 331 331 182
Width: 606
Flags: HW
TeX: 458 194
ItalicCorrection: 95
HStem: -200 59<299 332.853> -5 21G<158 185.5> 404 60<156.658 214.334 363.447 479.922>
VStem: 73 55<297 368.635> 221 79<-141 -100.487> 489 69<248.735 394.646>
AnchorPoint: "affricate-below" 557 -194 basechar 0
AnchorPoint: "affricate-above" 780 694 basechar 0
AnchorPoint: "below" 252 -194 basechar 0
AnchorPoint: "above" 417 464 basechar 0
LayerCount: 2
Fore
SplineSet
73 309 m 0
 73 310 102 464 196 464 c 0
 213 464 274 457 285 384 c 1
 318 421 366 464 444 464 c 0
 497 464 558 442 558 359 c 0
 558 276 495 145 495 120 c 0
 495 117 496 116 496 114 c 0
 496 111 495 106 492 93 c 0
 458 -42 414 -200 297 -200 c 0
 254 -200 221 -177 221 -142 c 0
 221 -114 242 -93 267 -93 c 0
 290 -93 300 -108 300 -127 c 0
 300 -131 300 -136 299 -141 c 1
 301 -141 l 2
 345 -141 370 -56 411 99 c 0
 415 114 416 122 428 130 c 1
 447 187 489 296 489 348 c 0
 489 391 463 405 432 405 c 0
 354 405 279 327 237 161 c 0
 205 36 206 -5 165 -5 c 0
 151 -5 138 4 137 20 c 0
 136 29 139 38 141 46 c 2
 213 334 l 2
 215 344 218 355 218 365 c 0
 218 395 195 404 185 404 c 0
 147 404 137 314 128 303 c 0
 124 298 117 297 110 297 c 2
 93 297 l 2
 82 297 73 298 73 309 c 0
EndSplineSet
EndChar

StartChar: racute
Encoding: 341 341 184
Width: 453
Flags: HW
TeX: 666 0
ItalicCorrection: 114
HStem: -5 21<156 190> 404 60<157.375 214.286 347.252 449.013> 662 20G<471 485.5>
VStem: 73 55<297 366.472> 433 81<322.749 380.577>
AnchorPoint: "below" 165 0 basechar 0
AnchorPoint: "above" 358 662 basechar 0
LayerCount: 2
Fore
SplineSet
287 554 m 0
 287 567 290 566 447 669 c 0
 455 674 465 682 477 682 c 0
 494 682 507 668 507 652 c 0
 507 629 481 616 476 613 c 0
 318 518 321 518 312 518 c 0
 297 518 287 547 287 554 c 0
EndSplineSet
Refer: 123 114 S 1 0 0 1 0 -0 3
EndChar

StartChar: sacute
Encoding: 347 347 186
Width: 439
Flags: HW
TeX: 666 0
ItalicCorrection: 86
HStem: -6 59<152.073 316.057> 405 59<255.058 383.65> 662 20G<464 478.5>
VStem: 78 82<86.6086 144.173> 162 66<291.295 378.682> 356 66<90.0864 186.684> 386 63<350.561 396.457>
AnchorPoint: "below" 223 0 basechar 0
AnchorPoint: "above" 381 662 basechar 0
LayerCount: 2
Fore
SplineSet
78 93 m 0
 78 139 107 153 127 153 c 0
 146 153 160 140 160 122 c 0
 160 111 154 99 141 86 c 1
 145 80 161 53 231 53 c 0
 346 53 356 127 356 146 c 0xfc
 356 208 266 207 227 222 c 0
 196 234 162 264 162 313 c 0
 162 337 176 464 329 464 c 0
 411 464 449 420 449 376 c 0
 449 334 421 321 403 321 c 0
 386 321 372 333 372 350 c 0
 372 362 379 372 386 381 c 1
 386 382 l 1xfa
 375 393 360 405 321 405 c 0
 234 405 228 341 228 329 c 0
 228 271 306 285 359 258 c 0
 377 249 422 219 422 162 c 0xfc
 422 135 408 -6 223 -6 c 0
 134 -6 78 34 78 93 c 0
280 554 m 0
 280 567 283 566 440 669 c 0
 448 674 458 682 470 682 c 0
 487 682 499 668 499 652 c 0
 499 629 474 616 469 613 c 0
 311 518 314 518 305 518 c 0xf8
 290 518 280 547 280 554 c 0
EndSplineSet
EndChar

StartChar: scaron
Encoding: 353 353 187
Width: 439
Flags: HW
TeX: 666 0
ItalicCorrection: 138
HStem: -6 59<152.21 316.037> 405 59<251.507 384.273> 512 159
VStem: 78 82<86.6086 144.173> 162 66<296.558 380.782> 242 276<636 654> 355 66<88.0071 184.09> 386 63<350.561 395.668>
AnchorPoint: "below" 223 0 basechar 0
AnchorPoint: "above" 378 651 basechar 0
LayerCount: 2
Fore
SplineSet
78 93 m 0
 78 139 107 153 127 153 c 0
 146 153 160 140 160 122 c 0
 160 111 154 99 141 86 c 1
 145 80 162 53 232 53 c 0
 347 53 355 127 355 143 c 0xfa
 355 234 162 183 162 315 c 0
 162 335 174 464 329 464 c 0
 402 464 449 429 449 377 c 0
 449 335 421 321 403 321 c 0
 386 321 372 333 372 350 c 0
 372 362 379 372 386 381 c 1
 386 382 l 1xf9
 371 396 355 405 320 405 c 0
 235 405 228 345 228 331 c 0
 228 256 389 296 418 185 c 0
 420 176 421 168 421 159 c 0xfa
 421 132 407 -6 223 -6 c 0
 134 -6 78 34 78 93 c 0
EndSplineSet
Refer: 17 711 S 1 0 0 1 -31 0 2
EndChar

StartChar: scedilla
Encoding: 351 351 188
Width: 439
Flags: HW
TeX: 458 170
ItalicCorrection: 86
HStem: -195 56<61.0487 223.89> 405 59<255.497 384.457>
VStem: 78 82<86.6094 143.865> 162 66<291.139 378.799> 244 68<-118.375 -65.7031> 356 66<91.4219 187.009> 386 63<350.561 397.211>
LayerCount: 2
Fore
SplineSet
58 -178 m 0
 58 -173 62 -145 74 -139 c 0
 80 -136 88 -137 96 -137 c 0
 140 -137 244 -135 244 -89 c 0
 244 -73 224 -64 208 -62 c 0
 198 -60 175 -62 175 -42 c 0
 175 -34 181 -15 184 -3 c 1
 84 15 78 74 78 93 c 0
 78 139 107 153 127 153 c 0
 147 153 160 140 160 123 c 0
 160 112 154 99 141 86 c 1
 145 80 161 53 231 53 c 0
 346 53 356 127 356 146 c 0
 356 208 266 207 227 222 c 0
 196 234 162 264 162 313 c 0xfc
 162 337 176 464 329 464 c 0
 402 464 449 428 449 377 c 0
 449 335 421 321 403 321 c 0
 386 321 372 333 372 350 c 0
 372 362 379 372 386 381 c 1
 386 382 l 1xfa
 375 393 360 405 321 405 c 0
 236 405 228 342 228 328 c 0
 228 253 349 301 404 219 c 0
 416 202 422 181 422 161 c 0
 422 126 398 5 252 -4 c 1
 250 -10 l 1
 274 -18 312 -39 312 -83 c 0
 312 -123 285 -165 226 -182 c 0
 181 -195 136 -195 82 -195 c 0
 68 -195 58 -192 58 -178 c 0
EndSplineSet
EndChar

StartChar: tcaron
Encoding: 357 357 189
Width: 356
Flags: HW
TeX: 694 0
ItalicCorrection: 100
HStem: -6 60<198.675 283.655> 400 58<90.7978 201 283 393.216>
VStem: 127 68<57.8058 188.405> 260 66<547.986 656.292> 333 62<106.473 160.896> 388 116<635.012 714.179>
DStem2: 99.9894 -6 167.472 -6 0.242599 0.970127<204.168 418.376 494.537 673.068>
LayerCount: 2
Fore
SplineSet
87 417 m 0
 87 421 91 449 102 455 c 0
 107 458 113 458 118 458 c 2
 216 458 l 1
 221 480 259 628 260 631 c 0
 268 654 286 660 298 660 c 0
 314 660 326 648 326 632 c 0
 326 619 283 458 283 458 c 1
 372 458 l 2
 382 458 397 458 397 441 c 0
 397 437 393 409 382 403 c 0
 377 400 372 400 367 400 c 2
 269 400 l 1
 252 322 195 120 195 94 c 0
 195 70 210 54 232 54 c 0
 272 54 311 95 333 142 c 0
 341 160 344 161 361 161 c 2
 372 161 l 2
 387 161 395 159 395 151 c 0xf8
 395 130 325 -6 219 -6 c 0
 163 -6 127 34 127 87 c 0
 127 110 135 132 138 146 c 2
 201 400 l 1
 110 400 l 2
 98 400 87 403 87 417 c 0
358 535 m 0
 358 552 401 552 436 627 c 1
 395 628 388 652 388 668 c 0
 388 702 420 733 453 733 c 0
 483 733 504 709 504 671 c 0xf4
 504 585 410 500 387 500 c 0
 377 500 358 527 358 535 c 0
EndSplineSet
EndChar

StartChar: tcommaaccent
Encoding: 355 355 190
Width: 356
Flags: HW
TeX: 649 170
ItalicCorrection: 100
HStem: -195 56<59.7513 224.234> 400 58<90.7978 201 283 393.136>
VStem: 127 68<56.9664 189.521> 243 69<-118.576 -65.5346> 333 61<108.244 160.938>
DStem2: 51.9766 -195 119.209 -195 0.242599 0.970127<401.699 613.378 689.539 867.783>
LayerCount: 2
Fore
SplineSet
57 -178 m 0
 57 -174 60 -145 73 -139 c 0
 79 -136 88 -137 96 -137 c 0
 140 -137 243 -136 243 -89 c 0
 243 -73 223 -64 207 -62 c 1
 195 -59 175 -62 175 -42 c 0
 175 -33 180 -17 184 0 c 1
 137 18 127 61 127 87 c 0
 127 108 133 129 136 141 c 2
 201 400 l 1
 110 400 l 2
 98 400 87 403 87 417 c 0
 87 421 91 449 102 455 c 0
 107 458 113 458 118 458 c 2
 216 458 l 1
 257 622 258 635 268 646 c 0
 275 654 286 660 297 660 c 0
 314 660 325 648 325 632 c 0
 325 618 283 458 283 458 c 1
 374 458 l 2
 391 458 397 451 397 441 c 0
 397 437 393 409 382 403 c 0
 377 400 371 400 366 400 c 2
 268 400 l 1
 249 311 195 120 195 94 c 0
 195 70 209 54 231 54 c 0
 272 54 311 96 333 144 c 0
 339 158 343 161 358 161 c 2
 373 161 l 2
 385 161 394 160 394 150 c 0
 394 135 349 36 266 3 c 0
 255 -2 253 -2 249 -9 c 1
 294 -25 312 -54 312 -83 c 0
 312 -123 284 -165 225 -182 c 0
 181 -195 134 -195 81 -195 c 0
 70 -195 57 -194 57 -178 c 0
EndSplineSet
EndChar

StartChar: uhungarumlaut
Encoding: 369 369 191
Width: 578
Flags: HW
TeX: 666 0
ItalicCorrection: 223
HStem: -6 59<257.624 351.488 476.652 531.997> 404 60<170.424 233.693> 662 20G<478 493 645 659.5>
VStem: 73 60<297.165 362.625> 175 68<66.4236 270.804> 235 68<312.601 403.222> 563 54<91.2542 160.95>
AnchorPoint: "below" 289 0 basechar 0
AnchorPoint: "above" 455 662 basechar 0
LayerCount: 2
Fore
SplineSet
73 309 m 0
 73 328 123 464 222 464 c 0
 271 464 303 428 303 382 c 0xf6
 303 343 279 309 269 284 c 0
 263 269 243 190 243 136 c 0xfa
 243 65 277 53 300 53 c 0
 381 53 427 197 435 223 c 0
 481 373 473 458 525 458 c 0
 539 458 552 449 553 433 c 0
 554 424 551 415 549 407 c 2
 480 131 l 2
 477 119 473 106 473 94 c 0
 473 63 495 54 506 54 c 0
 544 54 554 144 563 155 c 0
 569 163 580 161 592 161 c 0
 595 161 598 161 601 161 c 0
 611 161 617 160 617 149 c 0
 617 144 589 -5 495 -5 c 0
 470 -5 429 5 410 53 c 1
 383 24 347 -6 290 -6 c 0
 244 -6 175 12 175 130 c 0xfa
 175 181 190 245 198 275 c 0
 211 321 235 337 235 374 c 0
 235 393 224 404 209 404 c 0
 161 404 137 324 133 313 c 0
 129 300 126 297 107 297 c 0
 81 297 73 298 73 309 c 0
294 554 m 0
 294 567 292 563 454 669 c 0
 462 674 472 682 484 682 c 0
 502 682 514 668 514 652 c 0
 514 629 488 616 483 613 c 0
 325 518 328 518 319 518 c 0
 305 518 294 544 294 554 c 0
460 554 m 0
 460 567 468 570 620 669 c 0
 628 674 639 682 651 682 c 0
 668 682 680 668 680 652 c 0
 680 629 655 616 650 613 c 0
 492 518 495 518 486 518 c 0xf2
 471 518 460 547 460 554 c 0
EndSplineSet
EndChar

StartChar: uring
Encoding: 367 367 192
Width: 578
Flags: HW
TeX: 666 0
ItalicCorrection: 95
HStem: -6 59<247.175 356.908 476.596 533.552> 405 59<170.306 233.439> 501 35<378.24 475.2> 640 35<395.994 492.917>
VStem: 73 66<297.797 366.393> 165 68<66.529 221.201> 235 68<303.296 404.52> 321 55<538.823 625.142> 495 55<376.812 456.903 551.061 637.304> 563 55<90.8245 160.95>
LayerCount: 2
Fore
SplineSet
73 309 m 0
 73 328 123 464 222 464 c 0
 270 464 303 429 303 381 c 0
 303 333 233 205 233 121 c 0
 233 67 267 53 299 53 c 0
 352 53 405 104 431 207 c 0
 488 433 484 423 489 433 c 0
 494 443 507 458 525 458 c 0
 539 458 552 449 553 433 c 0
 554 424 551 415 549 407 c 2
 480 131 l 2
 477 119 473 106 473 94 c 0
 473 63 495 54 506 54 c 0
 544 54 555 145 563 155 c 0
 569 163 580 161 592 161 c 0
 604 161 618 163 618 149 c 0
 618 143 587 -5 495 -5 c 0
 470 -5 428 6 410 54 c 1
 380 23 344 -6 286 -6 c 0
 228 -6 165 17 165 107 c 0
 165 205 235 336 235 373 c 0
 235 398 219 405 209 405 c 0
 181 405 154 372 139 330 c 0
 127 299 134 297 97 297 c 0
 81 297 73 299 73 309 c 0
321 561 m 0
 321 596 336 675 459 675 c 0
 510 675 550 663 550 615 c 0
 550 581 536 501 412 501 c 0
 361 501 321 513 321 561 c 0
376 565 m 0
 376 542 394 536 421 536 c 0
 470 536 482 550 492 592 c 0
 493 598 495 605 495 612 c 0
 495 635 477 640 450 640 c 0
 401 640 389 626 379 584 c 0
 378 578 376 572 376 565 c 0
EndSplineSet
EndChar

StartChar: ydieresis
Encoding: 255 255 193
Width: 522
Flags: HW
TeX: 666 194
ItalicCorrection: 92
HStem: -200 59<177.627 292.168> -6 59<246.205 355.955> 405 59<170.722 233.758> 578 105<283.994 358.691 478.514 552.356>
VStem: 74 59<297.298 361.969> 111 82<-123.391 -68.7019> 165 68<66.1738 221.633> 235 69<303.556 404.057> 267 108<594.962 666.212> 462 107<595.139 666.863> 490 63<358.979 455.516>
DStem2: 329.734 -200 396.985 -200 0.242599 0.970127<119.432 240.175 306.388 650.498>
AnchorPoint: "below" 199 -194 basechar 0
AnchorPoint: "above" 454 663 basechar 0
LayerCount: 2
Fore
SplineSet
74 309 m 0
 74 330 123 464 222 464 c 0
 272 464 304 426 304 381 c 0
 304 332 233 206 233 120 c 0xfb
 233 76 257 53 299 53 c 0
 352 53 406 106 431 206 c 0
 488 435 485 427 490 436 c 0
 497 449 510 458 525 458 c 0
 539 458 553 449 553 430 c 0
 553 425 552 423 548 405 c 2
 452 20 l 2
 444 -12 428 -95 338 -158 c 0
 307 -180 264 -200 214 -200 c 0
 155 -200 111 -167 111 -117 c 0
 111 -74 141 -59 160 -59 c 0
 179 -59 193 -71 193 -89 c 0xf420
 193 -99 188 -111 177 -124 c 1
 188 -133 200 -141 224 -141 c 0
 283 -141 343 -92 371 -25 c 0
 379 -7 383 14 388 33 c 1
 360 11 331 -6 287 -6 c 0
 229 -6 165 17 165 107 c 0
 165 207 235 336 235 374 c 0xf3
 235 393 225 405 209 405 c 0
 194 405 159 395 133 313 c 0
 128 298 123 297 97 297 c 0
 81 297 74 299 74 309 c 0
267 622 m 0
 267 653 297 683 330 683 c 0
 357 683 375 664 375 639 c 0xf080
 375 604 341 578 312 578 c 0
 286 578 267 598 267 622 c 0
462 622 m 0
 462 652 490 683 524 683 c 0
 551 683 569 663 569 639 c 0
 569 609 540 578 506 578 c 0xf040
 479 578 462 598 462 622 c 0
EndSplineSet
EndChar

StartChar: zacute
Encoding: 378 378 194
Width: 439
Flags: HW
TeX: 666 0
ItalicCorrection: 143
HStem: -5 67<258.378 372.816> 397 67<214.662 320.379> 662 20G<464 479>
VStem: 416 62<104.181 158.458>
AnchorPoint: "below" 246 0 basechar 0
AnchorPoint: "above" 412 662 basechar 0
LayerCount: 2
Fore
SplineSet
280 554 m 0
 280 567 283 566 440 669 c 0
 448 674 458 682 470 682 c 0
 488 682 499 668 499 652 c 0
 499 629 474 616 469 613 c 0
 311 518 314 518 305 518 c 0
 290 518 280 547 280 554 c 0
EndSplineSet
Refer: 131 122 S 1 0 0 1 0 -0 3
EndChar

StartChar: zdotaccent
Encoding: 380 380 196
Width: 439
Flags: HW
TeX: 688 0
ItalicCorrection: 143
HStem: -5 67<258.378 372.816> 397 67<214.662 320.379> 616 77<364.963 427.037>
VStem: 357 78<624.092 685.203> 416 62<104.181 158.458>
AnchorPoint: "below" 246 0 basechar 0
AnchorPoint: "above" 414 673 basechar 0
LayerCount: 2
Fore
SplineSet
357 648 m 0
 357 670 378 693 403 693 c 0
 422 693 435 679 435 662 c 0
 435 640 414 616 389 616 c 0xf0
 371 616 357 629 357 648 c 0
EndSplineSet
Refer: 131 122 S 1 0 0 1 -0 -0 3
EndChar

StartChar: ij
Encoding: 307 307 197
Width: 606
Flags: HW
TeX: 688 194
ItalicCorrection: 101
HStem: -200 59<318.518 402.575> -5 59<208.522 273.343> 405 59<170.293 233.423 464.207 546.462> 616 77<272.279 334.721 587.202 650.348>
VStem: 73 61<297.089 363.074> 138 69<54.5502 155.573> 235 69<303.866 403.91> 240 79<-141 -105.221> 264 79<624.754 684.562> 308 60<94.1566 160.988> 351 63<297.136 352.527> 551 68<269.914 401.707> 580 79<624.754 685.297>
DStem2: 412.238 -200 480.239 -200 0.242599 0.970127<85.6483 579.344>
LayerCount: 2
Fore
SplineSet
73 309 m 0
 73 328 124 464 222 464 c 0
 269 464 304 431 304 381 c 0
 304 332 207 127 207 84 c 0
 207 63 218 54 232 54 c 0
 247 54 284 64 308 143 c 0xfe40
 312 157 315 161 331 161 c 0
 336 161 341 161 346 161 c 0
 360 161 368 160 368 150 c 0
 368 127 317 -5 220 -5 c 0
 174 -5 138 27 138 77 c 0
 138 126 235 335 235 375 c 0
 235 393 224 405 209 405 c 0
 194 405 159 394 134 316 c 0
 129 299 124 297 107 297 c 2
 93 297 l 2
 82 297 73 298 73 309 c 0
240 -146 m 0
 240 -116 264 -97 287 -97 c 0
 308 -97 319 -109 319 -128 c 0
 319 -132 319 -136 318 -141 c 1
 333 -141 l 2
 434 -141 451 -45 454 -33 c 2
 546 335 l 2
 548 341 551 352 551 363 c 0
 551 388 536 405 514 405 c 0
 474 405 436 364 414 317 c 0
 407 302 404 297 389 297 c 2
 383 297 l 2
 361 297 351 298 351 307 c 0xfd30
 351 328 420 464 526 464 c 0
 582 464 619 424 619 371 c 0
 619 351 613 330 610 318 c 2
 521 -37 l 2
 516 -59 506 -121 433 -168 c 0
 402 -188 364 -200 327 -200 c 0
 292 -200 240 -189 240 -146 c 0
264 648 m 0
 264 670 286 693 311 693 c 0
 329 693 343 681 343 662 c 0xfc80
 343 640 321 616 296 616 c 0
 278 616 264 629 264 648 c 0
580 648 m 0xfc08
 580 675 605 693 626 693 c 0
 644 693 659 681 659 662 c 0
 659 640 637 616 612 616 c 0
 594 616 580 630 580 648 c 0xfc08
EndSplineSet
Ligature2: "Latin Dutch ligatures subtable" i j
EndChar

StartChar: exclamdown
Encoding: 161 161 198
Width: 328
Flags: HW
TeX: 500 194
ItalicCorrection: 66
HStem: 394 105<237.191 311.006>
VStem: 70 113<-184.143 -94.5732> 202 65<254.906 309.934> 221 107<410.944 482.882>
LayerCount: 2
Fore
SplineSet
70 -164 m 0
 70 -159 71 -154 75 -141 c 2
 202 278 l 2
 211 307 212 310 227 310 c 2xe0
 248 310 l 2
 260 310 267 308 267 298 c 0
 267 294 266 289 265 285 c 2
 183 -130 l 2
 182 -136 176 -205 114 -205 c 0
 91 -205 70 -190 70 -164 c 0
EndSplineSet
Refer: 20 729 S 1 0 0 1 -63 -195 2
EndChar

StartChar: questiondown
Encoding: 191 191 199
Width: 550
Flags: HW
TeX: 500 194
HStem: -206 59<172.425 310.252> 251 59<289.945 350.975> 394 105<349.191 423.006>
VStem: 91 63<-126.974 -10.8417> 215 60<197.062 235.657> 333 107<410.944 482.882> 351 63<182.87 250.176> 390 80<-27.6726 32.5098>
LayerCount: 2
Fore
SplineSet
91 -87 m 0
 91 -73 92 -7 152 54 c 0
 170 72 193 88 310 168 c 0
 313 170 351 189 351 231 c 0xfa
 351 245 344 251 333 251 c 0xfc
 314 251 286 233 275 211 c 0
 268 197 265 197 245 197 c 2
 238 197 l 2
 224 197 215 198 215 208 c 0
 215 236 269 310 349 310 c 0
 391 310 414 282 414 242 c 0xfa
 414 214 403 177 379 148 c 0
 365 132 358 129 250 54 c 0
 221 34 154 -3 154 -77 c 0
 154 -122 186 -147 235 -147 c 0
 306 -147 372 -90 399 -28 c 1
 394 -21 390 -15 390 -5 c 0
 390 18 412 41 437 41 c 0
 454 41 470 30 470 10 c 0xf9
 470 -41 377 -206 224 -206 c 0
 144 -206 91 -163 91 -87 c 0
EndSplineSet
Refer: 20 729 S 1 0 0 1 49 -195 2
EndChar

StartChar: sterling
Encoding: 163 163 200
Width: 819
Flags: HW
TeX: 694 0
HStem: -6 59<155.558 249.259 421.861 568.818> 82 57<157.644 250.498> 318 59<270.875 347 430 534.425> 662 59<540.096 661.073>
VStem: 606 61<88.8332 146.792> 685 60<532.64 635.781>
DStem2: 265.977 -6 333.977 -6 0.242599 0.970127<170.993 333.977 411.35 657.63>
LayerCount: 2
Fore
SplineSet
93 47 m 0
 93 94 149 139 234 139 c 0
 259 139 278 135 296 130 c 1
 307 160 l 1
 347 318 l 1
 284 318 l 2
 273 318 266 319 266 330 c 0
 266 334 267 339 269 347 c 0
 273 365 273 376 293 377 c 1
 362 377 l 1
 362 377 397 527 411 563 c 0
 458 685 554 721 617 721 c 0
 695 721 745 663 745 577 c 0
 745 540 739 482 691 482 c 0
 669 482 659 496 659 513 c 0
 659 538 680 551 684 554 c 1
 684 558 685 562 685 566 c 0
 685 624 658 662 607 662 c 0
 554 662 502 627 475 550 c 0
 469 533 465 516 430 377 c 1
 507 377 l 2
 532 377 539 376 539 366 c 0
 539 362 538 355 536 346 c 0
 530 322 529 318 510 318 c 2
 415 318 l 1
 372 131 362 123 353 107 c 1
 399 86 458 51 514 51 c 0
 569 51 597 102 606 125 c 0
 614 145 615 147 636 147 c 2
 650 147 l 2
 658 147 671 146 667 130 c 0
 655 76 583 -6 484 -6 c 0
 401 -6 333 49 314 49 c 0
 300 49 256 -6 166 -6 c 0
 109 -6 93 26 93 47 c 0
155 55 m 1
 162 54 170 53 177 53 c 0
 205 53 226 60 251 75 c 1
 237 79 222 82 205 82 c 0
 165 82 158 61 155 55 c 1
EndSplineSet
EndChar

StartChar: Agrave
Encoding: 192 192 201
Width: 789
Flags: HW
TeX: 854 0
HStem: 0 59<67.0161 170.1 220 284.851 505.917 584 656.091 734.326> 216 59<349 564> 676 20<552.5 586.5>
DStem2: 158 59 220 59 0.509725 0.860337<31.603 214.08 283.19 647.285> 601 665 535 588 0.0936461 -0.995606<70.481 384.821 444.03 601.745>
AnchorPoint: "below" 393 0 basechar 0
AnchorPoint: "above" 607 854 basechar 0
LayerCount: 2
Fore
SplineSet
466 837 m 0
 466 855 483 875 503 875 c 0
 515 875 521 871 644 803 c 0
 659 795 664 790 664 781 c 0
 664 772 645 742 631 742 c 0
 623 742 615 747 492 806 c 0
 482 810 466 818 466 837 c 0
EndSplineSet
Refer: 74 65 S 1 0 0 1 0 0 3
AlternateSubs2: "Stilistic set 01 subtable" Agrave.vn
AlternateSubs2: "Latin alternatives subtable" Agrave.vn
Substitution2: "Latin Vietnamese substitutions subtable" Agrave.vn
EndChar

StartChar: Aacute
Encoding: 193 193 202
Width: 789
Flags: HW
TeX: 854 0
HStem: 0 59<67.0161 170.1 220 284.851 505.917 584 656.091 734.326> 216 59<349 564> 676 20<552.5 586.5> 742 61<487.197 557.646> 806 68<626.969 709.203>
DStem2: 158 59 220 59 0.509725 0.860337<31.603 214.08 283.19 647.285> 601 665 535 588 0.0936461 -0.995606<70.481 384.821 444.03 601.745>
AnchorPoint: "below" 393 0 basechar 0
AnchorPoint: "above" 607 853 basechar 0
LayerCount: 2
Fore
SplineSet
485 779 m 0
 485 794 496 797 511 803 c 0
 649 862 674 874 685 874 c 0
 703 874 714 860 714 845 c 0
 714 821 692 811 678 806 c 0
 525 747 513 742 506 742 c 0
 488 742 485 773 485 779 c 0
EndSplineSet
Refer: 74 65 S 1 0 0 1 -0 0 3
AlternateSubs2: "Stilistic set 01 subtable" Aacute.vn
AlternateSubs2: "Latin alternatives subtable" Aacute.vn
Substitution2: "Latin Vietnamese substitutions subtable" Aacute.vn
EndChar

StartChar: Acircumflex
Encoding: 194 194 203
Width: 789
Flags: HW
TeX: 891 0
HStem: 0 59<67.0161 170.1 220 284.851 505.917 584 656.091 734.326> 216 59<349 564> 676 20<552.5 586.5>
DStem2: 158 59 220 59 0.509725 0.860337<31.603 214.08 283.19 647.285> 601 665 535 588 0.0936461 -0.995606<70.481 384.821 444.03 601.745>
AnchorPoint: "below" 393 0 basechar 0
AnchorPoint: "above" 612 875 basechar 0
LayerCount: 2
Fore
SplineSet
436 764 m 0
 436 776 446 781 597 889 c 0
 602 892 608 896 614 896 c 0
 626 896 625 893 721 785 c 0
 726 779 732 772 732 764 c 0
 732 752 706 729 695 729 c 0
 687 729 684 732 656 764 c 2
 603 827 l 1
 474 732 472 729 465 729 c 2
 464 729 l 2
 450 729 436 754 436 764 c 0
EndSplineSet
Refer: 74 65 S 1 0 0 1 0 0 3
AlternateSubs2: "Stilistic set 01 subtable" Acircumflex.vn
AlternateSubs2: "Latin alternatives subtable" Acircumflex.vn
Substitution2: "Latin Vietnamese substitutions subtable" Acircumflex.vn
EndChar

StartChar: Atilde
Encoding: 195 195 204
Width: 789
Flags: HW
TeX: 891 0
HStem: -0 59<67.0161 170.1 220 284.851 505.917 584 656.091 734.326> 216 59<349 564> 676 20<552.5 586.5> 772 73<613.408 732.541> 819 73<469.401 589.592>
DStem2: 158 59 220 59 0.509725 0.860337<31.603 214.08 283.19 647.285> 601 665 535 588 0.0936461 -0.995606<70.481 384.821 444.03 601.745>
AnchorPoint: "below" 393 0 basechar 0
AnchorPoint: "above" 611 871 basechar 0
LayerCount: 2
Fore
SplineSet
402 804 m 0
 402 814 413 822 419 829 c 0
 451 860 488 892 534 892 c 0xe8
 591 892 630 845 677 845 c 0
 724 845 752 890 769 890 c 0xf0
 780 890 801 869 801 859 c 0
 801 849 791 841 785 835 c 0
 753 804 715 772 669 772 c 0xf0
 612 772 573 819 526 819 c 0
 479 819 449 773 433 773 c 0
 420 773 402 795 402 804 c 0
EndSplineSet
Refer: 74 65 S 1 0 0 1 -0 -0 3
AlternateSubs2: "Stilistic set 01 subtable" Atilde.vn
AlternateSubs2: "Latin alternatives subtable" Atilde.vn
Substitution2: "Latin Vietnamese substitutions subtable" Atilde.vn
EndChar

StartChar: Adieresis
Encoding: 196 196 205
Width: 789
Flags: HW
TeX: 891 0
HStem: 0 59<67.0161 170.1 220 284.851 505.917 584 656.091 734.326> 216 59<349 564> 676 20<552.5 586.5> 786 105<468.994 542.809 662.995 737.691>
VStem: 452 107<802.137 874.038> 646 108<802.514 874.038>
DStem2: 158 59 220 59 0.509725 0.860337<31.603 214.08 283.19 647.285> 601 665 535 588 0.0936461 -0.995606<70.481 384.821 444.03 601.745>
AnchorPoint: "below" 393 0 basechar 0
AnchorPoint: "above" 611 870 basechar 0
LayerCount: 2
Fore
SplineSet
452 830 m 0
 452 861 482 891 515 891 c 0
 541 891 559 871 559 847 c 0
 559 817 531 786 497 786 c 0
 471 786 452 806 452 830 c 0
646 830 m 0
 646 861 676 891 709 891 c 0
 736 891 754 871 754 847 c 0
 754 815 723 786 691 786 c 0
 666 786 646 803 646 830 c 0
EndSplineSet
Refer: 74 65 S 1 0 0 1 0 0 3
EndChar

StartChar: Aring
Encoding: 197 197 206
Width: 789
Flags: HW
TeX: 854 0
HStem: -0 59<67.0161 158 220 284.851 505.917 584 658 734.326> 216 59<349 564> 841 59<552.485 643.64>
VStem: 468 56<700.365 810.128> 647 56<727.904 837.447>
DStem2: 158 59 220 59 0.510842 0.859675<31.6722 214.149 283.261 647.355> 603 648 535 588 0.0929741 -0.995669<53.4179 367.758 426.968 584.682>
LayerCount: 2
Fore
SplineSet
63 18 m 0
 63 22 67 49 78 55 c 0
 85 59 94 59 104 59 c 2
 158 59 l 1
 508 648 l 1
 489 660 468 678 468 724 c 0
 468 802 525 900 619 900 c 0
 668 900 703 869 703 813 c 0
 703 783 690 688 603 648 c 1
 658 59 l 1
 710 59 l 2
 724 59 738 58 738 41 c 0
 738 37 734 9 723 3 c 0
 718 0 713 0 707 -0 c 2
 526 -0 l 2
 507 0 502 7 502 17 c 0
 502 22 503 28 505 34 c 0
 511 58 519 59 536 59 c 0
 552 59 568 59 584 59 c 1
 569 216 l 1
 313 216 l 1
 220 59 l 1
 260 59 l 2
 275 59 288 58 288 39 c 0
 288 25 280 7 273 3 c 0
 268 0 263 0 257 -0 c 2
 89 -0 l 2
 79 0 63 0 63 18 c 0
349 275 m 1
 564 275 l 1
 535 588 l 1
 349 275 l 1
524 735 m 0
 524 704 547 696 568 696 c 0
 629 696 638 756 644 783 c 0
 645 789 647 796 647 803 c 0
 647 834 624 841 603 841 c 0
 553 841 538 804 528 761 c 0
 526 753 524 744 524 735 c 0
EndSplineSet
EndChar

StartChar: AE
Encoding: 198 198 207
Width: 947
Flags: HW
TeX: 688 0
ItalicCorrection: 115
HStem: -0 59<67.0795 159 221 285.153 375.554 449 522 814.816> 299 59<401 509 596 757.781> 625 58<455.27 499 561 591 663 931.92>
VStem: 933 71<483.262 620.722>
DStem2: 159 59 221 59 0.514941 0.857226<31.9264 311.812 380.926 660.27> 434.246 -0 507.246 -0 0.242599 0.970127<78.5266 308.203 386.547 644.358>
AnchorPoint: "below" 475 0 basechar 0
AnchorPoint: "above" 644 695 basechar 0
LayerCount: 2
Fore
SplineSet
63 18 m 0
 63 22 67 48 78 55 c 0
 85 59 94 59 104 59 c 2
 159 59 l 1
 499 625 l 1
 475 625 l 1
 457 626 452 632 452 642 c 0
 452 647 453 653 455 660 c 0
 460 682 470 683 484 683 c 2
 974 683 l 2
 975 683 977 684 978 684 c 0
 995 684 1004 679 1004 663 c 0
 1004 656 988 527 979 459 c 0
 976 438 972 430 950 430 c 2
 945 430 l 2
 925 430 919 435 919 453 c 0
 919 472 933 558 933 605 c 2
 933 617 l 1
 910 622 885 625 812 625 c 2
 663 625 l 1
 596 358 l 1
 693 358 l 2
 779 358 775 359 785 393 c 0
 807 464 797 475 835 475 c 0
 848 475 862 471 861 456 c 0
 861 450 862 455 799 204 c 0
 794 183 783 183 772 183 c 2
 766 183 l 2
 746 183 740 188 740 200 c 0
 740 217 752 248 759 296 c 1
 733 299 707 299 681 299 c 2
 582 299 l 1
 522 59 l 1
 653 59 l 1
 740 60 792 60 808 72 c 0
 826 85 871 198 898 263 c 0
 907 285 913 286 932 286 c 0
 945 286 959 286 959 270 c 0
 959 262 956 254 953 247 c 0
 855 11 856 0 836 -0 c 2
 395 -0 l 2
 382 0 373 5 373 18 c 0
 373 57 396 59 407 59 c 0
 421 59 435 59 449 59 c 1
 509 299 l 1
 365 299 l 1
 221 59 l 1
 261 59 l 2
 275 59 288 58 288 39 c 0
 288 25 281 7 273 3 c 0
 268 1 262 0 257 -0 c 2
 89 -0 l 2
 79 0 63 1 63 18 c 0
401 358 m 1
 524 358 l 1
 591 625 l 1
 561 625 l 1
 401 358 l 1
EndSplineSet
EndChar

StartChar: Ccedilla
Encoding: 199 199 208
Width: 772
Flags: HW
TeX: 688 170
ItalicCorrection: 143
HStem: -195 58<259.318 425.484> 429 266<585 764> 636 59<476.475 678.242>
VStem: 151 76<147.015 364.64> 442 68<-118.461 -66.5161> 684 63<173.608 241.858> 742 60<429.006 475.118>
AnchorPoint: "above" 585 695 basechar 0
LayerCount: 2
Fore
SplineSet
151 235 m 0
 151 437 306 695 585 695 c 0
 695 695 743 637 768 602 c 1
 831 695 839 694 847 694 c 0
 852 694 860 692 860 683 c 0
 860 678 803 450 802 447 c 0
 797 430 792 429 779 429 c 0xda
 774 429 769 429 764 429 c 0
 751 429 742 431 742 444 c 0xda
 742 450 743 457 743 476 c 0
 743 538 715 636 602 636 c 0
 457 636 294 556 240 337 c 0
 233 308 227 278 227 243 c 0
 227 87 351 48 451 48 c 0
 554 48 650 122 684 216 c 0
 693 240 691 242 713 242 c 2
 730 242 l 2
 743 242 747 238 747 231 c 0xbc
 747 201 672 19 450 -10 c 1
 474 -18 510 -39 510 -82 c 0
 510 -121 483 -163 426 -181 c 0
 381 -195 334 -195 279 -195 c 0
 261 -195 256 -189 256 -178 c 0
 256 -175 256 -171 257 -167 c 0
 264 -137 271 -137 294 -137 c 0
 341 -137 442 -135 442 -89 c 0
 442 -74 424 -64 397 -61 c 0
 379 -59 373 -54 373 -43 c 0
 373 -35 376 -25 380 -10 c 1
 242 1 151 88 151 235 c 0
EndSplineSet
EndChar

StartChar: Egrave
Encoding: 200 200 209
Width: 725
Flags: HW
TeX: 854 0
ItalicCorrection: 115
HStem: 0 59<82.7514 178 251 593.331> 324 58<332 499.734> 622 59<238.358 318 392 709.927>
VStem: 553 51<429.56 499.814> 710 71<479.499 669>
DStem2: 163.246 0 236.246 0 0.242599 0.970127<78.5266 351.622 412.498 640.962>
AnchorPoint: "below" 372 0 basechar 0
AnchorPoint: "above" 590 869 basechar 0
LayerCount: 2
Fore
SplineSet
466 837 m 0
 466 855 483 875 504 875 c 0
 516 875 521 871 644 803 c 0
 659 795 664 790 664 781 c 0
 664 772 647 742 632 742 c 0
 624 742 615 747 492 806 c 0
 483 810 466 818 466 837 c 0
EndSplineSet
Refer: 78 69 S 1 0 0 1 0 0 3
AlternateSubs2: "Stilistic set 01 subtable" Egrave.vn
AlternateSubs2: "Latin alternatives subtable" Egrave.vn
Substitution2: "Latin Vietnamese substitutions subtable" Egrave.vn
EndChar

StartChar: Ecircumflex
Encoding: 202 202 211
Width: 725
Flags: HW
TeX: 891 0
ItalicCorrection: 115
HStem: -0 59<82.7514 178 251 593.331> 324 58<332 499.734> 622 59<238.358 318 392 709.927>
VStem: 553 51<429.56 499.814> 710 71<479.499 669>
DStem2: 163.246 -0 236.246 -0 0.242599 0.970127<78.5266 351.622 412.498 640.962>
AnchorPoint: "below" 372 0 basechar 0
AnchorPoint: "above" 595 890 basechar 0
LayerCount: 2
Fore
SplineSet
409 764 m 0
 409 776 419 781 570 889 c 0
 575 892 580 896 586 896 c 0
 598 896 598 893 694 785 c 0
 699 779 705 772 705 764 c 0
 705 752 679 729 668 729 c 0
 660 729 657 732 629 764 c 2
 576 827 l 1
 458 740 447 729 437 729 c 0
 423 729 409 754 409 764 c 0
EndSplineSet
Refer: 78 69 S 1 0 0 1 0 -0 3
AlternateSubs2: "Stilistic set 01 subtable" Ecircumflex.vn
AlternateSubs2: "Latin alternatives subtable" Ecircumflex.vn
Substitution2: "Latin Vietnamese substitutions subtable" Ecircumflex.vn
EndChar

StartChar: Edieresis
Encoding: 203 203 212
Width: 725
Flags: HW
TeX: 891 0
ItalicCorrection: 115
HStem: -0 59<82.7514 178 251 593.331> 324 58<332 499.734> 622 59<238.358 318 392 709.927> 786 105<441.644 515.038 635.644 710.005>
VStem: 425 107<802.962 873.861> 553 51<429.56 499.814> 619 108<802.962 873.861> 710 71<479.499 669>
DStem2: 163.246 -0 236.246 -0 0.242599 0.970127<78.5266 351.622 412.498 640.962>
AnchorPoint: "below" 372 0 basechar 0
AnchorPoint: "above" 594 885 basechar 0
LayerCount: 2
Fore
SplineSet
425 830 m 0
 425 860 454 891 488 891 c 0
 512 891 532 875 532 848 c 0
 532 817 503 786 470 786 c 0
 443 786 425 806 425 830 c 0
619 830 m 0
 619 860 648 891 682 891 c 0
 707 891 727 874 727 847 c 0
 727 816 697 786 664 786 c 0xfe
 637 786 619 806 619 830 c 0
EndSplineSet
Refer: 78 69 S 1 0 0 1 -0 -0 3
EndChar

StartChar: Iacute
Encoding: 205 205 214
Width: 400
Flags: HW
TeX: 854 0
ItalicCorrection: 156
HStem: 0 59<78.0795 177 250 334.623> 625 58<233.854 318 392 490.601> 742 61<290.197 360.604>
DStem2: 162.246 0 235.246 0 0.242599 0.970127<78.5266 644.115>
AnchorPoint: "below" 198 0 basechar 0
AnchorPoint: "above" 415 866 basechar 0
LayerCount: 2
Fore
SplineSet
288 779 m 0
 288 794 299 797 314 803 c 0
 452 862 476 874 487 874 c 0
 505 874 516 860 516 845 c 0
 516 822 496 812 480 806 c 0
 314 743 316 742 309 742 c 0
 290 742 288 776 288 779 c 0
EndSplineSet
Refer: 82 73 S 1 0 0 1 0 0 3
AlternateSubs2: "Stilistic set 01 subtable" Iacute.vn
AlternateSubs2: "Latin alternatives subtable" Iacute.vn
Substitution2: "Latin Vietnamese substitutions subtable" Iacute.vn
EndChar

StartChar: Icircumflex
Encoding: 206 206 215
Width: 400
Flags: HW
TeX: 891 0
ItalicCorrection: 156
HStem: 0 59<78.0795 177 250 334.623> 625 58<233.854 318 392 490.601>
DStem2: 162.246 0 235.246 0 0.242599 0.970127<78.5266 644.115>
AnchorPoint: "below" 198 0 basechar 0
AnchorPoint: "above" 420 888 basechar 0
LayerCount: 2
Fore
SplineSet
242 764 m 0
 242 776 245 775 376 870 c 0
 404 890 410 896 419 896 c 0
 431 896 430 893 526 785 c 0
 531 779 538 772 538 764 c 0
 538 752 511 729 500 729 c 0
 491 729 492 728 409 827 c 1
 280 732 278 729 271 729 c 2
 270 729 l 2
 256 729 242 754 242 764 c 0
EndSplineSet
Refer: 82 73 S 1 0 0 1 0 0 3
EndChar

StartChar: Eth
Encoding: 208 208 217
Width: 808
Flags: HW
TeX: 688 0
ItalicCorrection: 91
HStem: -0 59<82.4375 179 249 527.993> 306 59<159.826 240 326 518.665> 625 58<247.234 320 391 660.947>
VStem: 753 73<315.996 539.478>
DStem2: 164.246 -0 234.246 -0 0.242599 0.970127<77.7988 315.237 393.338 644.115>
LayerCount: 2
Fore
SplineSet
80 18 m 0
 80 56 101 59 114 59 c 2
 179 59 l 1
 240 306 l 1
 184 306 l 2
 170 306 157 307 157 326 c 0
 157 335 160 364 186 365 c 1
 255 365 l 1
 320 625 l 1
 262 625 l 2
 249 625 237 627 237 643 c 0
 237 652 242 670 247 676 c 0
 252 682 257 684 268 684 c 0
 270 684 273 683 275 683 c 2
 546 683 l 2
 557 683 568 684 579 684 c 0
 776 684 826 560 826 450 c 0
 826 293 721 0 408 -0 c 2
 110 -0 l 2
 94 0 80 1 80 18 c 0
249 59 m 1
 401 59 l 2
 463 59 667 61 737 331 c 0
 751 385 753 420 753 442 c 0
 753 588 654 625 548 625 c 2
 391 625 l 1
 326 365 l 1
 494 365 l 2
 508 365 522 364 522 347 c 0
 522 344 522 340 521 336 c 0
 515 309 507 306 489 306 c 2
 311 306 l 1
 249 59 l 1
EndSplineSet
EndChar

StartChar: Ograve
Encoding: 210 210 219
Width: 828
Flags: HW
TeX: 854 0
ItalicCorrection: 91
HStem: -11 63<326.762 538.685> 633 62<458.303 678.281>
VStem: 150 79<148.187 362.417> 772 73<322.497 541.181>
AnchorPoint: "below" 412 0 basechar 0
AnchorPoint: "above" 627 855 basechar 0
LayerCount: 2
Fore
SplineSet
513 837 m 0
 513 855 530 875 550 875 c 0
 562 875 568 871 691 803 c 0
 706 795 711 790 711 781 c 0
 711 772 692 742 678 742 c 0
 670 742 663 747 540 806 c 0
 530 810 513 818 513 837 c 0
EndSplineSet
Refer: 88 79 S 1 0 0 1 -0 0 3
AlternateSubs2: "Stilistic set 01 subtable" Ograve.vn
AlternateSubs2: "Latin alternatives subtable" Ograve.vn
Substitution2: "Latin Vietnamese substitutions subtable" Ograve.vn
EndChar

StartChar: Oacute
Encoding: 211 211 220
Width: 828
Flags: HW
TeX: 854 0
ItalicCorrection: 91
HStem: -11 63<326.762 538.685> 633 62<458.303 678.281> 742 61<506.797 576.646> 806 68<645.969 727.516>
VStem: 150 79<148.187 362.417> 772 73<322.497 541.181>
AnchorPoint: "below" 412 0 basechar 0
AnchorPoint: "above" 627 854 basechar 0
LayerCount: 2
Fore
SplineSet
505 779 m 0
 505 794 515 797 530 803 c 0
 668 862 693 874 704 874 c 0
 722 874 733 860 733 845 c 0
 733 817 698 806 697 806 c 0
 544 747 532 742 525 742 c 0
 507 742 505 773 505 779 c 0
EndSplineSet
Refer: 88 79 S 1 0 0 1 0 0 3
AlternateSubs2: "Stilistic set 01 subtable" Oacute.vn
AlternateSubs2: "Latin alternatives subtable" Oacute.vn
Substitution2: "Latin Vietnamese substitutions subtable" Oacute.vn
EndChar

StartChar: Ocircumflex
Encoding: 212 212 221
Width: 828
Flags: HW
TeX: 891 0
ItalicCorrection: 91
HStem: -11 63<326.762 538.685> 633 62<458.303 678.281>
VStem: 150 79<148.187 362.417> 772 73<322.497 541.181>
AnchorPoint: "below" 412 0 basechar 0
AnchorPoint: "above" 632 876 basechar 0
LayerCount: 2
Fore
SplineSet
456 764 m 0
 456 778 482 793 616 889 c 0
 621 892 627 896 633 896 c 0
 645 896 644 893 740 785 c 0
 745 779 752 772 752 764 c 0
 752 752 725 729 714 729 c 0
 706 729 704 732 676 764 c 0
 658 785 639 806 622 827 c 1
 493 732 491 729 484 729 c 2
 483 729 l 2
 469 729 456 754 456 764 c 0
EndSplineSet
Refer: 88 79 S 1 0 0 1 -0 -0 3
AlternateSubs2: "Stilistic set 01 subtable" Ocircumflex.vn
AlternateSubs2: "Latin alternatives subtable" Ocircumflex.vn
Substitution2: "Latin Vietnamese substitutions subtable" Ocircumflex.vn
EndChar

StartChar: Otilde
Encoding: 213 213 222
Width: 828
Flags: HW
TeX: 891 0
ItalicCorrection: 91
HStem: -11 63<326.762 538.685> 633 62<458.303 678.281> 772 73<632.408 752.679> 819 73<488.401 608.592>
VStem: 150 79<148.187 362.417> 772 73<322.497 541.181>
AnchorPoint: "below" 412 0 basechar 0
AnchorPoint: "above" 631 872 basechar 0
LayerCount: 2
Fore
SplineSet
421 804 m 0
 421 814 432 822 438 829 c 0
 470 860 507 892 553 892 c 0xdc
 610 892 649 845 696 845 c 0
 743 845 772 890 789 890 c 0xec
 800 890 820 869 820 859 c 0
 820 849 810 841 804 835 c 0
 772 804 734 772 688 772 c 0xec
 631 772 592 819 545 819 c 0
 498 819 468 773 452 773 c 0
 443 773 421 792 421 804 c 0
EndSplineSet
Refer: 88 79 S 1 0 0 1 -0 -0 3
AlternateSubs2: "Stilistic set 01 subtable" Otilde.vn
AlternateSubs2: "Latin alternatives subtable" Otilde.vn
Substitution2: "Latin Vietnamese substitutions subtable" Otilde.vn
EndChar

StartChar: Odieresis
Encoding: 214 214 223
Width: 828
Flags: HW
TeX: 891 0
ItalicCorrection: 91
HStem: -11 63<326.762 538.685> 633 62<458.303 678.281> 786 105<487.644 562.268 682.644 756.056>
VStem: 150 79<148.187 362.417> 471 108<803.139 873.861> 666 107<803.139 873.861> 772 73<322.497 541.181>
AnchorPoint: "below" 412 0 basechar 0
AnchorPoint: "above" 631 871 basechar 0
LayerCount: 2
Fore
SplineSet
471 830 m 0
 471 860 500 891 534 891 c 0
 560 891 579 871 579 847 c 0
 579 817 550 786 516 786 c 0
 489 786 471 806 471 830 c 0
666 830 m 0
 666 860 695 891 729 891 c 0
 755 891 773 871 773 847 c 0
 773 817 744 786 710 786 c 0xfc
 683 786 666 806 666 830 c 0
EndSplineSet
Refer: 88 79 S 1 0 0 1 -0 0 3
EndChar

StartChar: OE
Encoding: 338 338 224
Width: 1058
Flags: HW
TeX: 688 0
ItalicCorrection: 115
HStem: -11 58<336.142 520.241> -0 59<618 925.54> 326 58<699 888.406> 625 58<759 1042.83> 636 59<471.6 738.099>
VStem: 159 77<147.871 367.23> 871 60<209.22 312.359> 941 52<426.628 500.847> 1030 60<430.466 616.75> 1044 71<487.754 620.542>
AnchorPoint: "above" 741 695 basechar 0
LayerCount: 2
Fore
SplineSet
159 232 m 0
 159 430 314 695 594 695 c 0xaf40
 650 695 674 683 758 683 c 2
 1083 683 l 2
 1085 683 1087 684 1090 684 c 0x3780
 1101 684 1115 681 1115 663 c 0x3740
 1115 658 1098 527 1090 460 c 0
 1087 434 1084 430 1056 430 c 0
 1036 430 1030 438 1030 451 c 0x3780
 1030 460 1044 550 1044 601 c 2
 1044 617 l 1
 1019 622 993 625 916 625 c 2
 759 625 l 1
 699 384 l 1
 774 384 l 2
 842 384 892 385 902 390 c 0
 920 400 929 484 941 495 c 0
 944 498 956 501 967 501 c 0
 981 501 994 497 993 482 c 0
 993 476 994 480 931 230 c 0
 926 209 916 209 905 209 c 2
 899 209 l 2
 878 209 871 215 871 227 c 0
 871 244 885 274 890 322 c 1
 856 325 822 326 787 326 c 2
 685 326 l 1
 618 59 l 1
 758 59 l 1
 849 60 904 60 920 73 c 0
 941 90 998 241 1012 270 c 0
 1019 283 1026 286 1038 286 c 2
 1049 286 l 2
 1065 286 1071 279 1071 270 c 0
 1071 265 1069 258 1066 252 c 0
 963 2 967 8 957 3 c 0
 950 -1 942 0 935 -0 c 2
 584 -0 l 2x7740
 508 0 475 -11 417 -11 c 0
 309 -11 159 38 159 232 c 0
236 250 m 0
 236 118 315 47 435 47 c 0
 533 47 554 87 586 216 c 0
 665 532 668 539 668 574 c 0
 668 624 641 636 581 636 c 0xaf
 371 636 236 444 236 250 c 0
EndSplineSet
EndChar

StartChar: Oslash
Encoding: 216 216 225
Width: 828
Flags: HW
TeX: 731 48
ItalicCorrection: 91
HStem: -11 58<314.59 542.245> 636 59<457.479 682.392>
VStem: 151 69<137.808 365.337> 777 69<320.165 544.885>
DStem2: 215 57 261 23 0.653783 0.756682<-123.87 0 70.9474 730.3 801.247 925.126>
LayerCount: 2
Fore
SplineSet
137 -40 m 0
 137 -30 149 -19 215 57 c 1
 215 58 l 1
 168 106 151 166 151 231 c 0
 151 423 298 695 587 695 c 0
 661 695 710 674 736 660 c 1
 815 752 814 753 825 753 c 0
 833 753 861 739 861 722 c 0
 861 715 858 713 782 626 c 1
 782 625 l 1
 820 585 846 532 846 450 c 0
 846 244 690 -11 410 -11 c 0
 336 -11 296 7 261 23 c 1
 190 -60 183 -70 172 -70 c 0
 162 -70 137 -53 137 -40 c 0
220 235 m 0
 220 160 248 124 260 110 c 1
 692 610 l 1
 660 625 628 636 573 636 c 0
 312 636 220 377 220 235 c 0
305 73 m 1
 347 52 388 47 424 47 c 0
 706 47 777 332 777 446 c 0
 777 522 748 558 737 573 c 1
 305 73 l 1
EndSplineSet
EndChar

StartChar: Ugrave
Encoding: 217 217 226
Width: 789
Flags: HW
TeX: 854 0
ItalicCorrection: 148
HStem: -11 58<324.307 498.757> 625 58<238.333 318 392 486.375 640.611 721 780 874.663>
VStem: 211 72<87.93 272.945>
DStem2: 159.231 -11 233.481 -11 0.242599 0.970127<196.631 655.518> 561.732 -11 620.982 -11 0.242599 0.970127<142.037 655.639>
AnchorPoint: "below" 401 0 basechar 0
AnchorPoint: "above" 609 866 basechar 0
LayerCount: 2
Fore
SplineSet
493 837 m 0
 493 855 511 875 531 875 c 0
 543 875 548 871 671 803 c 0
 686 795 691 790 691 781 c 0
 691 772 673 742 659 742 c 0
 651 742 643 747 520 806 c 0
 510 810 493 818 493 837 c 0
EndSplineSet
Refer: 94 85 S 1 0 0 1 0 0 3
AlternateSubs2: "Stilistic set 01 subtable" Ugrave.vn
AlternateSubs2: "Latin alternatives subtable" Ugrave.vn
Substitution2: "Latin Vietnamese substitutions subtable" Ugrave.vn
EndChar

StartChar: Uacute
Encoding: 218 218 227
Width: 789
Flags: HW
TeX: 854 0
ItalicCorrection: 148
HStem: -11 58<324.307 498.757> 625 58<238.333 318 392 486.375 640.611 721 780 874.663> 742 61<529.197 599.604> 806 68<668.554 749.516>
VStem: 211 72<87.93 272.945>
DStem2: 159.231 -11 233.481 -11 0.242599 0.970127<196.631 655.518> 561.732 -11 620.982 -11 0.242599 0.970127<142.037 655.639>
AnchorPoint: "below" 401 0 basechar 0
AnchorPoint: "above" 609 865 basechar 0
LayerCount: 2
Fore
SplineSet
527 779 m 0
 527 794 538 797 553 803 c 0
 691 862 715 874 726 874 c 0
 744 874 755 860 755 845 c 0
 755 817 720 806 719 806 c 0
 566 747 555 742 548 742 c 0
 530 742 527 773 527 779 c 0
EndSplineSet
Refer: 94 85 S 1 0 0 1 0 0 3
AlternateSubs2: "Stilistic set 01 subtable" Uacute.vn
AlternateSubs2: "Latin alternatives subtable" Uacute.vn
Substitution2: "Latin Vietnamese substitutions subtable" Uacute.vn
EndChar

StartChar: Ucircumflex
Encoding: 219 219 228
Width: 789
Flags: HW
TeX: 891 0
ItalicCorrection: 148
HStem: -11 58<324.307 498.757> 625 58<238.333 318 392 486.375 640.611 721 780 874.663>
VStem: 211 72<87.93 272.945>
DStem2: 159.231 -11 233.481 -11 0.242599 0.970127<196.631 655.518> 561.732 -11 620.982 -11 0.242599 0.970127<142.037 655.639>
AnchorPoint: "below" 401 0 basechar 0
AnchorPoint: "above" 614 887 basechar 0
LayerCount: 2
Fore
SplineSet
440 764 m 0
 440 776 449 781 600 889 c 0
 605 892 611 896 617 896 c 0
 629 896 628 893 724 785 c 0
 729 779 736 772 736 764 c 0
 736 752 709 729 698 729 c 0
 690 729 688 732 660 764 c 0
 642 785 623 806 606 827 c 1
 477 732 475 729 468 729 c 2
 467 729 l 2
 453 729 440 754 440 764 c 0
EndSplineSet
Refer: 94 85 S 1 0 0 1 -0 0 3
EndChar

StartChar: Udieresis
Encoding: 220 220 229
Width: 789
Flags: HW
TeX: 891 0
ItalicCorrection: 148
HStem: -11 58<324.307 498.757> 625 58<238.333 318 392 486.375 640.611 721 780 874.663> 786 105<468.994 542.809 662.995 737.691>
VStem: 211 72<87.93 272.945> 452 107<802.137 874.038> 646 108<802.514 874.038>
DStem2: 159.231 -11 233.481 -11 0.242599 0.970127<196.631 655.518> 561.732 -11 620.982 -11 0.242599 0.970127<142.037 655.639>
AnchorPoint: "below" 401 0 basechar 0
AnchorPoint: "above" 613 882 basechar 0
LayerCount: 2
Fore
SplineSet
452 830 m 0
 452 861 482 891 515 891 c 0
 541 891 559 871 559 847 c 0
 559 817 531 786 497 786 c 0
 471 786 452 806 452 830 c 0
646 830 m 0
 646 861 676 891 709 891 c 0
 736 891 754 871 754 847 c 0
 754 815 723 786 691 786 c 0
 666 786 646 803 646 830 c 0
EndSplineSet
Refer: 94 85 S 1 0 0 1 -0 0 3
EndChar

StartChar: Yacute
Encoding: 221 221 230
Width: 789
Flags: HW
TeX: 854 0
ItalicCorrection: 195
HStem: 0 59<278.625 377.519 443 523.936> 625 58<204.442 288 371 434.655 693.115 741 791.984 890 891 901.716> 742 61<529.197 599.646> 806 68<668.969 749.672>
VStem: 373 70<59 140.308>
DStem2: 371 625 288 625 0.368998 -0.92943<0 308.443> 484 338 511 289 0.666444 0.745555<0 385.25>
AnchorPoint: "below" 393 0 basechar 0
AnchorPoint: "above" 610 865 basechar 0
LayerCount: 2
Fore
SplineSet
527 779 m 0
 527 794 538 797 553 803 c 0
 691 862 716 874 727 874 c 0
 745 874 755 860 755 845 c 0
 755 817 721 806 720 806 c 0
 567 747 555 742 548 742 c 0
 530 742 527 773 527 779 c 0
EndSplineSet
Refer: 98 89 S 1 0 0 1 0 0 3
AlternateSubs2: "Stilistic set 01 subtable" Yacute.vn
AlternateSubs2: "Latin alternatives subtable" Yacute.vn
Substitution2: "Latin Vietnamese substitutions subtable" Yacute.vn
EndChar

StartChar: Thorn
Encoding: 222 222 231
Width: 669
Flags: HW
TeX: 688 0
ItalicCorrection: 100
HStem: -0 59<84.5094 180 247 327.623> 178 59<292 510.034> 504 59<373 571.55> 625 58<240.854 321 389 483.362>
VStem: 612 75<329.068 465.99>
DStem2: 165.246 -0 232.246 -0 0.242599 0.970127<77.071 199.794 260.67 535.948 596.582 644.115>
LayerCount: 2
Fore
SplineSet
81 18 m 0
 81 22 84 48 95 55 c 0
 102 60 112 59 123 59 c 2
 180 59 l 1
 321 625 l 1
 263 625 l 2
 251 625 238 627 238 643 c 0
 238 644 239 677 256 682 c 0
 260 683 264 683 268 683 c 2
 466 683 l 2
 482 683 487 675 487 666 c 0
 487 660 485 655 484 649 c 0
 478 626 469 625 456 625 c 2
 389 625 l 1
 373 563 l 1
 517 563 l 2
 592 563 687 534 687 422 c 0
 687 341 625 178 414 178 c 2
 277 178 l 1
 247 59 l 1
 306 59 l 2
 317 59 331 57 331 41 c 0
 331 39 329 6 312 1 c 0
 308 0 304 0 300 -0 c 2
 116 -0 l 2
 97 0 81 1 81 18 c 0
292 237 m 1
 380 237 l 2
 388 237 395 236 403 236 c 0
 558 236 612 337 612 405 c 0
 612 454 584 477 567 487 c 0
 537 504 501 504 468 504 c 2
 359 504 l 1
 292 237 l 1
EndSplineSet
EndChar

StartChar: Germandbls
Encoding: 61699 61699 232
Width: 1161
Flags: HW
TeX: 688 0
ItalicCorrection: 115
HStem: -11 59<242.408 420.269 796.722 975.495> 639 56<350.806 511.91 907.716 1067.64>
VStem: 81 106<-3.5 191.288> 203 70<436.949 560.379> 507 69<137.625 272.913> 555 60<456.003 510.114> 558 109<490.712 688> 637 105<-2 191.288> 759 69<438.19 560.379> 1063 69<136.303 272.965> 1113 109<490.712 688>
LayerCount: 2
Fore
SplineSet
81 1 m 0
 81 5 81 4 132 208 c 0
 137 227 142 227 155 227 c 2
 159 227 l 2
 163 227 166 228 170 228 c 0
 182 228 192 226 192 215 c 0
 192 206 187 194 187 168 c 0
 187 71 274 48 336 48 c 0
 455 48 507 151 507 211 c 0xf880
 507 249 487 280 459 295 c 0
 437 307 324 331 291 344 c 0
 248 361 203 406 203 474 c 0
 203 566 285 695 446 695 c 0
 518 695 566 668 593 621 c 1
 629 675 638 689 645 693 c 0
 654 697 667 694 667 682 c 0xf280
 667 678 616 476 615 474 c 0xf480
 610 457 605 456 592 456 c 2
 574 456 l 2
 558 456 555 460 555 470 c 0xf480
 555 479 558 492 558 511 c 0xf280
 558 585 521 639 436 639 c 0
 327 639 273 552 273 494 c 0
 273 396 389 405 482 370 c 0
 522 355 576 314 576 230 c 0
 576 139 499 -11 326 -11 c 0
 254 -11 191 10 153 62 c 1
 152 62 l 1
 107 -11 104 -11 94 -11 c 0
 88 -11 81 -8 81 1 c 0
637 1 m 0
 637 5 638 10 639 14 c 0
 690 216 686 228 706 228 c 0
 708 228 711 227 714 227 c 0
 718 227 722 228 726 228 c 0
 738 228 748 226 748 215 c 0
 748 206 742 194 742 168 c 0
 742 71 830 48 892 48 c 0
 1011 48 1063 150 1063 211 c 0xf1c0
 1063 248 1045 278 1015 295 c 0
 993 307 879 331 846 344 c 0
 803 361 759 406 759 474 c 0
 759 566 841 695 1002 695 c 0
 1074 695 1122 667 1149 621 c 1
 1187 677 1194 690 1201 693 c 0
 1209 697 1222 694 1222 682 c 0
 1222 678 1172 476 1171 474 c 0
 1166 457 1160 456 1147 456 c 2xf0a0
 1130 456 l 2
 1114 456 1110 460 1110 470 c 0
 1110 479 1113 492 1113 511 c 0xf0a0
 1113 585 1077 639 992 639 c 2
 991 639 l 2
 882 639 828 552 828 494 c 0
 828 396 945 405 1038 370 c 0
 1078 355 1132 314 1132 230 c 0
 1132 134 1051 -11 882 -11 c 0
 810 -11 747 10 709 62 c 1
 708 62 l 1
 663 -11 659 -11 649 -11 c 0
 639 -11 637 -5 637 1 c 0
EndSplineSet
EndChar

StartChar: acircumflex
Encoding: 226 226 235
Width: 550
Flags: HW
TeX: 666 0
ItalicCorrection: 95
HStem: -5 58<207.429 319.149 449.1 504.719> 405 59<285.812 399.142>
VStem: 116 71<72.9179 254.233> 534 55<91.6838 160.895>
AnchorPoint: "below" 243 0 basechar 0
AnchorPoint: "above" 404 645 basechar 0
LayerCount: 2
Fore
SplineSet
257 526 m 0
 257 534 263 540 273 547 c 0
 427 663 427 665 437 665 c 0
 449 665 449 660 531 561 c 0
 550 538 553 533 553 526 c 0
 553 513 526 492 515 492 c 0
 505 492 504 495 465 544 c 0
 452 561 439 578 426 595 c 1
 301 498 295 492 286 492 c 0
 273 492 257 516 257 526 c 0
EndSplineSet
Refer: 106 97 S 1 0 0 1 0 -0 3
AlternateSubs2: "Stilistic set 01 subtable" acircumflex.vn
AlternateSubs2: "Latin alternatives subtable" acircumflex.vn
Substitution2: "Latin Vietnamese substitutions subtable" acircumflex.vn
EndChar

StartChar: adieresis
Encoding: 228 228 237
Width: 550
Flags: HW
TeX: 666 0
ItalicCorrection: 95
HStem: -5 58<207.429 319.149 449.1 504.719> 405 59<285.812 399.142> 578 105<296.644 371.006 491.514 565.356>
VStem: 116 71<72.9179 254.233> 280 108<594.962 665.861> 475 107<595.139 666.863> 534 55<91.6838 160.895>
AnchorPoint: "below" 243 0 basechar 0
AnchorPoint: "above" 409 663 basechar 0
LayerCount: 2
Fore
SplineSet
280 622 m 0
 280 652 309 683 343 683 c 0
 370 683 388 663 388 639 c 0
 388 608 358 578 325 578 c 0
 298 578 280 598 280 622 c 0
475 622 m 0
 475 652 503 683 537 683 c 0
 564 683 582 663 582 639 c 0
 582 609 553 578 519 578 c 0xfc
 492 578 475 598 475 622 c 0
EndSplineSet
Refer: 106 97 S 1 0 0 1 -0 0 3
EndChar

StartChar: aring
Encoding: 229 229 238
Width: 550
Flags: HW
TeX: 666 0
ItalicCorrection: 95
HStem: -5 58<207.429 319.149 449.1 504.719> 405 59<285.812 399.142> 501 35<339.127 429.651> 640 35<356.736 446.605>
VStem: 116 71<72.9179 254.233> 279 56<539.022 622.599> 451 55<552.989 636.942> 534 55<91.6838 160.895>
LayerCount: 2
Fore
SplineSet
279 568 m 0
 279 618 327 675 415 675 c 0
 489 675 506 635 506 608 c 0
 506 560 461 501 370 501 c 0
 297 501 279 541 279 568 c 0
335 569 m 0
 335 556 340 536 378 536 c 0
 443 536 451 586 451 607 c 0
 451 634 428 640 408 640 c 0
 341 640 335 587 335 569 c 0
EndSplineSet
Refer: 106 97 S 1 0 0 1 -0 -0 3
EndChar

